<?xml version="1.0" encoding="UTF-8" standalone="no"?>
<!-- Created with Inkscape (http://www.inkscape.org/) -->

<svg
   width="135.80296mm"
   height="117.19118mm"
   viewBox="0 0 135.80296 117.19118"
   version="1.1"
   id="svg1"
   xml:space="preserve"
   inkscape:version="1.4.2 (2aeb623e1d, 2025-05-12)"
   sodipodi:docname="pipeline.svg"
   xmlns:inkscape="http://www.inkscape.org/namespaces/inkscape"
   xmlns:sodipodi="http://sodipodi.sourceforge.net/DTD/sodipodi-0.dtd"
   xmlns="http://www.w3.org/2000/svg"
   xmlns:svg="http://www.w3.org/2000/svg"><sodipodi:namedview
     id="namedview1"
     pagecolor="#ffffff"
     bordercolor="#000000"
     borderopacity="0.25"
     inkscape:showpageshadow="2"
     inkscape:pageopacity="0.0"
     inkscape:pagecheckerboard="0"
     inkscape:deskcolor="#d1d1d1"
     inkscape:document-units="mm"
     inkscape:zoom="1.6774762"
     inkscape:cx="245.309"
     inkscape:cy="385.99655"
     inkscape:window-width="3774"
     inkscape:window-height="2091"
     inkscape:window-x="0"
     inkscape:window-y="0"
     inkscape:window-maximized="1"
     inkscape:current-layer="layer1" /><defs
     id="defs1" /><g
     inkscape:label="Layer 1"
     inkscape:groupmode="layer"
     id="layer1"
     transform="translate(-39.482391,-98.608978)"><rect
       style="fill:#ffffff;fill-opacity:1;stroke-width:0.263526"
       id="rect332"
       width="135.80296"
       height="117.19118"
       x="39.482391"
       y="98.608978" /><g
       id="g331"
       style="fill:#ff00ff"><path
         style="fill:#ff00ff;stroke-width:0.494255"
         d="m 49.622205,193.04055 c -0.274568,0.27457 -0.671785,0.54151 -0.882704,0.59322 -0.210923,0.0517 -0.426724,0.15849 -0.479564,0.23733 -0.05283,0.0789 -0.09698,0.74305 -0.09808,1.47602 -0.002,1.35046 -0.06625,1.54641 -0.457611,1.39622 -0.18979,-0.0728 -0.213191,-0.29482 -0.182716,-1.73314 0.01922,-0.9073 0.08077,-1.9003 0.136765,-2.20666 0.05791,-0.31686 0.04735,-0.70033 -0.02452,-0.88936 -0.105716,-0.27807 -0.07146,-0.38722 0.209817,-0.66849 0.281893,-0.28189 0.419794,-0.32494 0.854199,-0.26668 0.284924,0.0382 0.721805,0.22491 0.97085,0.41486 0.634183,0.48371 0.620191,0.98007 -0.04642,1.64668 z m -0.361487,-1.23525 c -0.113772,-0.0436 -0.349161,-0.0794 -0.52309,-0.0794 -0.257368,0 -0.316565,0.067 -0.318018,0.35962 -9.59e-4,0.1978 -0.0388,0.49788 -0.08404,0.66687 -0.08129,0.30368 -0.07762,0.30484 0.316328,0.10113 0.759387,-0.3927 1.043292,-0.8815 0.608818,-1.04823 z"
         id="path231" /><path
         style="fill:#ff00ff;stroke-width:0.494255"
         d="m 54.58264,196.56448 c -0.349997,0 -0.495179,-0.35117 -0.603208,-1.45899 -0.148702,-1.52492 -0.155191,-1.53418 -0.592226,-0.84505 -0.565171,0.89119 -1.047632,0.81744 -1.609531,-0.24602 -0.205629,-0.38916 -0.20733,-0.38431 -0.212524,0.60483 -0.0065,1.24492 -0.116793,1.81529 -0.369673,1.91232 -0.384442,0.14753 -0.502553,-0.27785 -0.396077,-1.42649 0.0556,-0.59986 0.09475,-1.58031 0.08698,-2.17878 -0.01507,-1.16285 0.08947,-1.40963 0.537043,-1.26757 0.315903,0.10026 0.549107,0.55689 0.854809,1.67378 0.126589,0.46249 0.26102,0.72322 0.345854,0.67079 0.194786,-0.12038 0.88133,-1.60337 0.976474,-2.10925 0.105925,-0.5632 0.329831,-0.73815 0.647455,-0.5059 0.213339,0.156 0.259943,0.43007 0.338742,1.99205 0.05025,0.99614 0.133562,2.12013 0.185123,2.49772 0.08816,0.6456 0.07686,0.68656 -0.189239,0.68656 z"
         id="path230" /><path
         style="fill:#ff00ff;stroke-width:0.494255"
         d="m 57.47566,196.26828 c -0.09082,0.0352 -0.252652,-0.009 -0.359619,-0.0975 -0.158112,-0.13122 -0.194494,-0.57507 -0.194494,-2.37262 0,-1.91981 0.02798,-2.22195 0.212346,-2.2927 0.408458,-0.15673 0.506898,0.33998 0.506898,2.55776 0,1.60352 -0.04147,2.15719 -0.165131,2.20506 z"
         id="path228" /><path
         style="fill:#ff00ff;stroke-width:0.494255"
         d="m 59.048473,191.25544 c -0.04299,0.043 -0.47094,0.0782 -0.950995,0.0782 -0.480051,0 -1.142366,0.0811 -1.471812,0.18026 -0.42839,0.12893 -0.639156,0.1401 -0.740022,0.0393 -0.66896,-0.66896 1.162846,-1.27615 2.624843,-0.87007 0.451482,0.1254 0.709967,0.40042 0.537986,0.57239 z"
         id="path226" /><path
         style="fill:#ff00ff;stroke-width:0.494255"
         d="m 60.619654,195.25675 c -0.08258,0.46037 -0.249173,0.59568 -0.48866,0.39693 -0.15052,-0.12493 -0.2017,-0.42882 -0.2017,-1.19756 0,-0.93683 0.02328,-1.03016 0.256938,-1.03016 0.457729,0 0.630748,0.73085 0.433422,1.83079 z"
         id="path222" /><path
         style="fill:#ff00ff;stroke-width:0.494255"
         d="m 60.888859,191.95477 c -0.105908,0.26248 -0.378609,0.18902 -0.560578,-0.15099 -0.182598,-0.34118 -0.09934,-0.60095 0.192602,-0.60095 0.152264,0 0.480108,0.40381 0.44426,0.5472 -0.0057,0.0227 -0.03998,0.11484 -0.07629,0.20474 z"
         id="path221" /><path
         style="fill:#ff00ff;stroke-width:0.494255"
         d="m 62.978218,194.53752 c -0.09341,0.75057 -0.446188,1.52067 -0.675829,1.4753 -0.16864,-0.0333 -0.207256,-0.1696 -0.177982,-0.62815 0.02056,-0.32209 0.06865,-1.46832 0.106879,-2.54719 0.03821,-1.07886 0.124799,-2.01789 0.192398,-2.08674 0.07792,-0.0794 0.206237,-0.0418 0.350564,0.1025 0.188801,0.18879 0.229804,0.48918 0.240228,1.7598 0.0069,0.84269 -0.0094,1.7087 -0.03628,1.92448 z"
         id="path219" /><path
         style="fill:#ff00ff;stroke-width:0.494255"
         d="m 65.902643,196.38357 c -0.426848,0.20354 -0.481646,0.2018 -0.957247,-0.0304 -0.27747,-0.1355 -0.622178,-0.42956 -0.766025,-0.65347 -0.143855,-0.22393 -0.423374,-0.50071 -0.62117,-0.61509 -0.461412,-0.26683 -0.492846,-0.74322 -0.04904,-0.74322 0.241938,0 0.328304,-0.0885 0.390743,-0.4008 0.102305,-0.5115 0.754574,-1.16845 1.160144,-1.16845 0.401142,0 0.884874,0.44991 0.884246,0.82241 -4.93e-4,0.4307 -0.457219,1.09864 -0.911326,1.33347 -0.339686,0.17566 -0.379587,0.24568 -0.263551,0.4625 0.147386,0.27539 0.490112,0.38281 1.106388,0.34674 0.585851,-0.0342 0.602709,0.37174 0.02684,0.64635 z m -1.030185,-2.59146 c -0.08391,0.0838 -0.109155,0.19598 -0.05611,0.24905 0.05307,0.053 0.148918,0.0116 0.213023,-0.0921 0.15094,-0.24422 0.04068,-0.35451 -0.156925,-0.15693 z"
         id="path216" /><path
         style="fill:#ff00ff;stroke-width:0.494255"
         d="m 69.085332,196.10573 c -0.403979,0.2089 -1.562844,0.29868 -1.818209,0.14085 -0.283045,-0.17493 -0.139761,-0.44708 0.279614,-0.53108 0.770247,-0.15426 1.278508,-0.3473 1.209302,-0.45928 -0.03746,-0.0606 -0.35475,-0.20544 -0.705068,-0.32179 -1.094131,-0.36341 -1.367499,-1.00877 -0.652535,-1.54049 0.704955,-0.52428 1.815635,-0.21703 1.815635,0.50227 0,0.40111 -0.226345,0.51754 -0.508929,0.26179 -0.246293,-0.22288 -0.798785,-0.28676 -0.798785,-0.0924 0,0.0642 0.161829,0.15697 0.359619,0.20634 0.197796,0.0493 0.550878,0.23527 0.78463,0.41314 0.333755,0.25397 0.425009,0.41953 0.425009,0.7711 0,0.36464 -0.07239,0.48512 -0.390283,0.64951 z"
         id="path213" /><path
         style="fill:#ff00ff;stroke-width:0.494255"
         d="m 72.081509,192.90287 c -0.378426,1.62154 -0.469453,4.31623 -0.198309,5.87063 0.117835,0.67552 0.178474,1.264 0.134753,1.30771 -0.04374,0.0436 -6.032863,0.0834 -13.309206,0.088 -9.640882,0.007 -13.326065,0.0492 -13.584911,0.15855 -0.490479,0.20716 -0.757811,-0.0765 -0.75181,-0.79758 0.01266,-1.51875 0.401808,-7.17706 0.536775,-7.80426 0.134309,-0.62412 0.367785,-0.98726 1.765635,-2.7462 3.013812,-3.79229 2.875891,-3.64074 3.403245,-3.73968 0.70681,-0.13258 5.558665,-0.13429 11.159327,-0.004 3.499511,0.0814 5.614248,0.0697 7.384195,-0.0411 2.320847,-0.14529 2.491078,-0.14047 2.648611,0.075 0.0926,0.12663 0.123999,0.27291 0.06979,0.32506 -0.21976,0.2114 -7.18072,0.37322 -10.69106,0.24853 -1.941961,-0.069 -5.072294,-0.12715 -6.956293,-0.12927 -3.374366,-0.004 -3.430163,5e-4 -3.740568,0.29038 -0.409085,0.38198 -1.732689,2.01614 -3.091726,3.81712 -1.450549,1.92224 -1.543153,2.26883 -1.711268,6.40494 -0.06992,1.72025 -0.111662,3.1432 -0.09277,3.16209 0.06125,0.0613 13.587189,0.11891 20.011615,0.0853 l 6.249791,-0.0326 -0.103532,-1.01348 c -0.171753,-1.68131 -0.07777,-3.6772 0.248804,-5.28395 0.27261,-1.34122 0.298653,-1.78757 0.271593,-4.65469 -0.01646,-1.74417 0.02046,-3.17121 0.08206,-3.17121 0.399511,0 0.465589,0.4605 0.494956,3.44941 0.0258,2.62398 -0.0045,3.17074 -0.229699,4.13534 z"
         id="path210" /><path
         style="fill:#ff00ff;stroke-width:0.494255"
         d="m 87.40978,193.39608 c -0.05578,0.0903 -0.560969,0.25203 -1.12264,0.35949 -1.392509,0.26643 -6.067722,0.6234 -7.232509,0.55223 -0.521453,-0.0318 -0.947792,-0.0226 -0.947422,0.0205 3.76e-4,0.0432 0.324242,0.28441 0.719705,0.53615 0.732876,0.46651 0.983492,0.8331 0.737636,1.07895 -0.281938,0.28194 -2.8965,-1.72074 -2.8965,-2.21863 0,-0.32716 1.815836,-1.41847 2.081433,-1.25094 0.354491,0.2236 0.291369,0.41036 -0.241571,0.71474 -0.291576,0.16652 -0.530587,0.34691 -0.53114,0.40086 -0.003,0.28089 5.964551,0.007 8.083214,-0.3723 1.196545,-0.21368 1.562471,-0.16517 1.349794,0.17895 z"
         id="path204" /></g><g
       id="g332"
       style="fill:#0055d4"><path
         style="fill:#0055d4;stroke-width:0.494255"
         d="m 60.550187,117.80974 c -0.18456,0.57567 -0.549226,0.64204 -1.60227,0.29161 -0.866962,-0.28851 -0.984363,-0.45039 -0.514712,-0.70971 0.139568,-0.077 0.276748,-0.15329 0.304851,-0.16942 0.02808,-0.0161 -0.280845,-0.47031 -0.686549,-1.00933 -0.405704,-0.53903 -0.737646,-1.04076 -0.737646,-1.11496 0,-0.0742 0.173661,-0.13491 0.38591,-0.13491 0.336374,0 0.489677,0.14688 1.194282,1.14426 0.444602,0.62933 0.831346,1.17013 0.859425,1.20174 0.02808,0.0317 0.141312,-0.0713 0.251626,-0.22884 0.110306,-0.15749 0.314917,-0.28635 0.454689,-0.28635 0.28768,0 0.315576,0.31353 0.09039,1.01591 z"
         id="path223" /><path
         style="fill:#0055d4;stroke-width:0.494255"
         d="m 67.879227,118.43619 c -0.610177,0.58088 -1.048284,0.84049 -1.419989,0.84144 -0.283435,4.9e-4 -0.381559,-0.11013 -0.631746,-0.71375 -0.326287,-0.78723 -0.287997,-0.98542 0.190397,-0.98542 0.351188,0 0.356071,-0.0231 0.321133,-1.51912 -0.01571,-0.67201 0.01922,-0.80972 0.218549,-0.86143 0.514528,-0.13349 0.564157,-0.004 0.564157,1.47604 0,1.29674 0.09474,1.67252 0.326929,1.29683 0.09665,-0.15639 0.676344,-0.17522 0.769189,-0.0249 0.03598,0.0582 -0.116417,0.27886 -0.338619,0.49038 z"
         id="path215" /><path
         style="fill:#0055d4;stroke-width:0.494255"
         d="m 74.804556,116.44168 c -0.593378,0.32145 -1.268164,0.6247 -1.499529,0.67389 -0.231366,0.0491 -0.631199,0.23231 -0.888517,0.40693 -0.257319,0.17462 -0.524083,0.3175 -0.592814,0.3175 -0.06873,0 -0.124963,0.0588 -0.124963,0.13078 0,0.0726 0.348721,0.13076 0.78463,0.13076 0.887093,0 1.026161,0.18217 0.294234,0.38544 -0.67697,0.18801 -1.635993,0.17184 -1.915157,-0.0323 -0.220531,-0.16126 -0.221209,-0.20852 -0.01325,-0.92397 0.155379,-0.5345 0.301436,-0.78459 0.501664,-0.85904 0.340214,-0.12649 0.609395,-0.0429 0.609395,0.18924 0,0.23188 1.452813,-0.2557 2.157729,-0.72415 0.864669,-0.57462 1.765418,-0.77142 1.765418,-0.38571 0,0.0584 -0.485492,0.36919 -1.078864,0.69063 z"
         id="path207" /><path
         style="fill:#0055d4;stroke-width:0.494255"
         d="m 59.346301,108.76387 c -0.01276,0.0128 -0.0564,0.89534 -0.09704,1.96134 -0.04062,1.06601 -0.108814,1.9947 -0.151508,2.06379 -0.07502,0.12139 -0.884325,0.10526 -4.175004,-0.0832 -1.247622,-0.0714 -1.559952,-0.0453 -2.353888,0.19697 -1.276299,0.38945 -1.416188,0.41461 -1.605472,0.2887 -0.175352,-0.11662 -0.361785,-1.70494 -0.501906,-4.27596 -0.0431,-0.79117 -0.161271,-1.69333 -0.262558,-2.0048 -0.217463,-0.66872 -0.460264,-2.27024 -0.359482,-2.37109 0.03866,-0.0387 0.712825,-0.10734 1.49813,-0.15257 0.785302,-0.0452 1.502406,-0.14413 1.593566,-0.21978 0.219079,-0.18182 2.574504,0.0177 4.442397,0.3762 0.772534,0.14829 1.458679,0.23621 1.524766,0.19536 0.06608,-0.0409 0.199016,-0.0439 0.29541,-0.007 0.135763,0.0521 0.175322,0.51148 0.175505,2.03805 1.29e-4,1.08392 -0.01018,1.98118 -0.02294,1.99391 z m -0.826409,-2.53993 -9.59e-4,-0.86082 -1.471178,-0.28555 c -0.80915,-0.15705 -1.948135,-0.28461 -2.531078,-0.28343 l -1.059895,0.002 -0.646372,0.68657 c -0.355507,0.37759 -0.864244,1.01629 -1.130528,1.41933 -0.447661,0.67753 -0.484157,0.805 -0.484157,1.69116 0,0.85195 0.185533,2.86849 0.331165,3.59943 l 0.05369,0.26944 1.213371,-0.24835 c 1.057398,-0.21644 1.377863,-0.23006 2.493074,-0.10598 0.703843,0.0783 1.683728,0.14239 2.177523,0.14239 h 0.89781 l 0.08568,-1.53657 c 0.04711,-0.84511 0.108533,-1.62484 0.136473,-1.73272 0.02792,-0.10789 0.02506,-0.57867 -0.0064,-1.04618 -0.03148,-0.4675 -0.05767,-1.23739 -0.05819,-1.71082 z"
         id="path227" /><path
         style="fill:#0055d4;stroke-width:0.494255"
         d="m 71.451176,107.41169 c -0.104886,0.40624 -0.228286,1.68123 -0.465751,4.81211 -0.0596,0.78582 -0.03291,0.99797 0.151193,1.2014 0.122965,0.13587 0.184915,0.3096 0.137664,0.38606 -0.129718,0.20989 -0.734902,0.17095 -2.921687,-0.18792 -1.174943,-0.19282 -2.524095,-0.32693 -3.288939,-0.32693 -0.713244,0 -1.455851,-0.0604 -1.650237,-0.13437 l -0.353431,-0.13437 0.06287,-3.92084 c 0.0346,-2.15645 0.0951,-3.95306 0.134481,-3.99244 0.108099,-0.10811 2.456194,0.15572 4.154088,0.46673 0.827129,0.15151 1.856958,0.29497 2.288502,0.31881 0.431548,0.0239 1.034732,0.11118 1.340409,0.19411 0.609495,0.16536 0.663561,0.33878 0.410838,1.31765 z m -2.208947,-1.0116 c -0.755207,-0.0942 -1.637916,-0.21846 -1.961573,-0.27603 -0.568181,-0.10105 -0.613277,-0.084 -1.307715,0.49247 -0.395586,0.32844 -0.866364,0.7358 -1.046173,0.90525 -0.179811,0.16947 -0.510047,0.38795 -0.73386,0.48553 l -0.40693,0.17742 0.06382,2.19621 c 0.03509,1.20793 0.08782,2.22276 0.117163,2.25519 0.02936,0.0324 0.683945,0.0697 1.454675,0.0832 0.770726,0.0132 2.078069,0.14798 2.9052,0.29931 0.82713,0.15131 1.572951,0.27575 1.657379,0.27648 0.09908,9e-4 0.175664,-0.35794 0.216009,-1.01213 0.162649,-2.63734 0.337508,-4.64106 0.411457,-4.71501 0.04483,-0.0449 0.06398,-0.28736 0.04255,-0.53898 l -0.0389,-0.4575 z"
         id="path211" /><path
         style="fill:#0055d4;stroke-width:0.494255"
         d="m 83.982514,112.39916 c -0.106483,0.59373 -0.188653,1.28223 -0.211377,1.77115 -0.01903,0.40988 -0.412169,0.48075 -1.343346,0.24219 -0.908736,-0.2328 -2.097433,-0.24647 -3.40231,-0.0391 -0.716215,0.11382 -1.083352,0.0979 -2.026963,-0.0877 -0.633778,-0.12462 -1.402428,-0.33605 -1.708105,-0.46983 l -0.555779,-0.24327 v -0.73677 c 0,-1.09666 0.235467,-3.7324 0.474953,-5.31646 l 0.211076,-1.39615 0.997392,-0.0987 c 1.716403,-0.1699 3.258918,-0.0853 4.985928,0.27347 0.899054,0.18677 1.827323,0.37455 2.062825,0.41732 0.235503,0.0428 0.46937,0.14337 0.51971,0.2236 0.125762,0.20038 0.122422,4.7553 -0.0039,5.46022 z m -0.857704,-5.14975 c -0.127602,-0.12761 -3.070637,-0.69855 -4.087037,-0.79288 l -0.731566,-0.0679 -0.507916,0.70102 c -0.279353,0.38557 -0.606193,0.74818 -0.726312,0.80578 -0.120114,0.0576 -0.45511,0.32106 -0.744426,0.58545 l -0.526031,0.48068 -0.141129,1.65147 c -0.209046,2.44621 -0.203619,2.514 0.218489,2.72949 0.197796,0.10096 0.797693,0.28233 1.333104,0.40301 0.819495,0.18472 1.109103,0.1953 1.830803,0.0669 0.864542,-0.1538 3.091514,-0.11063 3.636217,0.0705 0.278504,0.0926 0.294235,0.0634 0.294235,-0.54511 0,-0.35363 0.05313,-0.69886 0.118078,-0.76719 0.06495,-0.0684 0.144411,-0.24193 0.176592,-0.38578 0.09711,-0.43403 -0.03015,-4.82248 -0.143101,-4.93544 z"
         id="path205" /><g
         id="g327"
         transform="matrix(0.49425468,0,0,0.49425468,-137.49429,90.512266)"
         style="fill:#0055d4"><path
           style="fill:#0055d4"
           d="m 468.46398,37.857667 c -0.13339,0 -0.35157,-0.3271 -0.48483,-0.7269 l -0.2423,-0.7269 -0.34499,0.64461 c -0.18974,0.35454 -0.4048,1.69368 -0.4779,2.97586 l -0.13292,2.33125 h 0.69815 c 0.87763,0 0.89153,0.34161 0.0367,0.90171 -0.62699,0.41083 -0.66283,0.56749 -0.68783,3.00699 -0.0299,2.92103 -0.22503,3.89651 -0.77931,3.89651 -0.31967,0 -0.36888,-0.50471 -0.29023,-2.97656 0.0908,-2.8547 0.0725,-2.97657 -0.4474,-2.97657 -0.83677,0 -0.92657,-0.45889 -0.18491,-0.94484 0.62175,-0.40739 0.67172,-0.59361 0.69529,-2.59132 0.0357,-3.02315 0.47301,-4.7747 1.21869,-4.88097 0.96017,-0.13684 1.66633,0.40674 1.66633,1.28269 0,0.43145 -0.10914,0.78444 -0.24254,0.78444 z"
           id="path199" /><path
           style="fill:#0055d4"
           d="m 460.33898,44.980237 c -0.81411,0.64038 -0.81853,0.64097 -1.91731,0.25794 -0.9721,-0.33888 -1.35682,-0.92858 -1.35682,-2.07975 0,-0.48432 -0.1623,-0.88173 -0.39687,-0.97174 -0.49877,-0.1914 -0.52296,-0.88943 -0.0308,-0.88943 0.25832,0 0.41733,-0.52563 0.5403,-1.78594 0.25847,-2.64918 0.41475,-3.24115 0.85567,-3.24115 0.33945,0 0.36942,0.38972 0.2066,2.68636 -0.18529,2.61351 -0.1759,2.68255 0.34638,2.54597 0.29526,-0.0772 0.69884,-0.0359 0.89686,0.0918 0.29916,0.19291 0.29293,0.27619 -0.0369,0.49269 -0.21829,0.14329 -0.66477,0.26235 -0.99219,0.26458 -0.65077,0.004 -0.73955,0.38399 -0.33728,1.44203 0.27868,0.73299 1.19443,0.91118 2.12456,0.41339 0.79959,-0.42793 0.87427,0.1625 0.0978,0.77328 z"
           id="path203" /><path
           style="fill:#0055d4"
           d="m 462.81954,39.114567 c -0.50064,-0.1667 -0.57182,-0.99231 -0.0856,-0.99231 0.24544,0 0.41628,0.22621 0.41628,0.55121 0,0.32332 -0.13674,0.50569 -0.33073,0.4411 z"
           id="path202" /><path
           style="fill:#0055d4"
           d="m 463.24076,43.499817 c -0.37149,0.37149 -0.88424,-0.46424 -0.88424,-1.44121 0,-1.06301 0.5739,-1.45132 0.89773,-0.60742 0.2134,0.55612 0.20501,1.83013 -0.0135,2.04863 z"
           id="path201" /><path
           style="fill:#0055d4"
           d="m 472.21225,44.584687 c -1.291,0.84459 -2.34497,1.0957 -2.84771,0.67847 -0.58868,-0.48856 -0.47654,-0.7909 0.29334,-0.7909 0.78457,0 2.22364,-0.76908 2.22364,-1.18838 0,-0.15429 -0.49958,-0.51557 -1.11017,-0.80285 -1.33991,-0.6304 -1.78773,-1.25276 -1.37534,-1.91138 0.39321,-0.62799 1.64463,-0.7614 1.86068,-0.19837 0.0913,0.23781 0.0311,0.56725 -0.13379,0.73209 -0.46022,0.46022 -0.36463,0.64949 0.42789,0.84728 0.93596,0.23358 1.65364,0.88482 1.65364,1.50053 0,0.26797 -0.44331,0.77443 -0.99218,1.13351 z"
           id="path197" /></g></g><g
       id="g330"
       style="fill:#806600;fill-opacity:1"
       transform="matrix(0.49425468,0,0,0.49425468,-140.80173,97.457916)"><g
         id="g326"
         transform="translate(-67.191715,-136.59161)"
         style="fill:#806600;fill-opacity:1"><path
           style="fill:#806600;fill-opacity:1"
           d="m 470.50088,258.19634 c -0.72698,1.9979 -3.96369,2.98518 -5.4362,1.65817 -0.89331,-0.80505 -0.34632,-2.71651 0.77736,-2.71651 0.40026,0 0.39188,0.32367 -0.0351,1.35529 -0.12852,0.31053 -0.009,0.46086 0.43301,0.54356 1.52108,0.28475 3.1242,-0.86096 3.1242,-2.23278 0,-0.68907 -0.34962,-1.26389 -1.70665,-2.80595 -2.05754,-2.33807 -2.61135,-3.97874 -1.90981,-5.65778 0.4979,-1.19162 1.88197,-2.12695 2.82271,-1.90752 0.86724,0.20229 1.77518,1.12989 1.99684,2.04008 0.23229,0.95387 -0.43709,0.99618 -1.04647,0.0661 -0.57421,-0.87635 -1.54881,-0.86093 -2.25409,0.0357 -1.08217,1.37576 -0.65402,2.73234 1.67658,5.31225 1.48901,1.64829 2.00573,3.07786 1.55761,4.30936 z"
           id="path200" /><path
           style="fill:#806600;fill-opacity:1"
           d="m 475.26557,259.24931 c -0.6919,1.3342 -1.61895,1.787 -2.72265,1.32984 -1.62468,-0.67297 -2.00145,-3.07329 -0.75677,-4.82128 0.43371,-0.6091 0.72025,-0.73653 1.65606,-0.73653 0.78777,0 1.27415,0.15752 1.60077,0.51843 0.69037,0.76284 0.80033,2.59547 0.22259,3.70954 z m -1.65793,-2.50818 c -0.83732,0 -1.48406,1.08217 -1.23642,2.06885 0.37504,1.49428 2.11822,0.36196 1.96299,-1.2751 -0.0613,-0.6466 -0.19601,-0.79375 -0.72657,-0.79375 z"
           id="path198" /><path
           style="fill:#806600;fill-opacity:1"
           d="m 482.13254,259.05623 c -0.0977,1.88571 -0.31145,2.15157 -0.97176,1.20884 -0.38505,-0.54973 -0.42821,-0.5554 -0.90994,-0.11945 -0.75824,0.68621 -1.85684,0.3134 -2.3162,-0.78599 -0.44612,-1.06771 -0.48844,-3.70371 -0.0637,-3.96622 0.52964,-0.32734 1.0182,0.73505 1.0182,2.21409 0,1.854 0.41107,1.74245 1.4552,-0.39491 0.43657,-0.89365 0.88017,-1.7097 0.9858,-1.81345 0.34812,-0.34193 0.99959,0.46723 0.94676,1.17595 -0.0285,0.38236 -0.0935,1.49888 -0.14438,2.48114 z"
           id="path196" /><path
           style="fill:#806600;fill-opacity:1"
           d="m 487.02509,257.27983 c -1.28403,0.27455 -1.52135,0.58767 -1.52135,2.00724 0,0.98005 -0.097,1.29052 -0.40342,1.29052 -0.50304,0 -0.79612,-0.76281 -1.03222,-2.68656 -0.2102,-1.71282 -0.16075,-1.77257 1.64407,-1.98632 0.99223,-0.11752 1.37963,-0.0513 1.7261,0.2952 0.64444,0.64444 0.55721,0.87242 -0.41318,1.07992 z"
           id="path195" /><path
           style="fill:#806600;fill-opacity:1"
           d="m 492.37566,260.97894 c -0.48828,0.30178 -2.63284,-0.94569 -3.0661,-1.78351 -0.54659,-1.05699 -0.28374,-2.40495 0.60532,-3.10429 0.89646,-0.70516 1.80664,-0.68657 2.32073,0.0474 0.64964,0.92749 0.53206,1.33248 -0.33179,1.14275 -0.54994,-0.12079 -0.86847,-0.0254 -1.22272,0.366 -0.6263,0.69206 -0.41132,1.17137 0.89542,1.99627 1.08486,0.68484 1.29191,1.03083 0.79914,1.33537 z"
           id="path193" /><path
           style="fill:#806600;fill-opacity:1"
           d="m 497.94064,261.5656 c -0.8723,-0.0791 -1.92412,-0.36352 -2.33737,-0.63206 -0.41325,-0.26853 -1.18782,-0.7679 -1.72128,-1.10969 -1.04836,-0.67171 -1.32606,-1.62751 -0.47285,-1.62751 0.30429,0 0.62627,-0.31192 0.83021,-0.80429 0.4289,-1.03544 1.2167,-1.57696 2.29416,-1.57696 1.75192,0 1.91756,2.09665 0.25063,3.17236 l -1.02273,0.65999 1.28731,0.36203 c 2.05396,0.57763 2.47794,0.79332 2.47794,1.26065 0,0.37648 -0.2268,0.41873 -1.58602,0.29548 z"
           id="path191" /></g><g
         id="g328"
         style="fill:#806600;fill-opacity:1"><path
           style="fill:#806600;fill-opacity:1"
           d="m 489.44527,215.44065 c -0.61956,0.78764 -3.04021,2.26811 -3.71479,2.27196 -0.48804,0.003 -0.79814,-0.56552 -0.53299,-0.97678 0.0957,-0.1484 0.54664,-0.4607 1.00214,-0.694 1.01858,-0.52171 2.47911,-1.72942 2.47911,-2.04997 0,-0.13013 -0.62508,-0.55188 -1.38906,-0.93722 -1.58574,-0.79981 -1.77627,-1.01493 -1.78189,-2.01183 -0.003,-0.51479 0.20272,-0.83132 0.72355,-1.11388 l 0.72761,-0.39473 -0.92604,-0.007 c -1.64495,-0.0116 -1.6878,0.0939 -1.5159,3.73194 0.0918,1.94385 0.0497,3.45439 -0.10405,3.72912 -0.25446,0.45469 -1.02101,0.65049 -1.03102,0.26335 -0.15737,-6.08957 -0.0954,-8.04881 0.26972,-8.53111 0.73246,-0.96746 4.21727,-1.03829 5.15087,-0.1047 0.65338,0.65339 0.47986,1.06569 -0.78478,1.86464 -0.65458,0.41355 -1.19036,0.83197 -1.19062,0.92982 -2.6e-4,0.0979 0.40472,0.31165 0.89995,0.47509 1.21507,0.40101 2.27458,1.43001 2.27458,2.2091 0,0.35112 -0.25038,0.95671 -0.55639,1.34574 z"
           id="path194" /><path
           style="fill:#806600;fill-opacity:1"
           d="m 496.82519,216.92134 c -0.4023,0 -1.0027,-1.04658 -1.0027,-1.74785 0,-0.67503 -0.4729,-0.15215 -0.80641,0.89164 -0.44125,1.38098 -0.65408,1.54277 -1.46118,1.11082 -0.92467,-0.49487 -1.70208,-2.09137 -1.69711,-3.48521 0.005,-1.34601 0.31277,-1.93458 0.89529,-1.71105 0.32008,0.12283 0.42457,0.53631 0.42763,1.6922 0.006,2.4039 0.31899,2.50185 1.3671,0.42833 0.63544,-1.25712 1.08356,-1.83397 1.46871,-1.89066 0.6646,-0.0978 0.77497,0.20521 1.01751,2.79355 0.14919,1.59213 0.11369,1.91823 -0.20884,1.91823 z"
           id="path192" /><path
           style="fill:#806600;fill-opacity:1"
           d="m 504.09587,216.59061 c -0.0635,0.1819 -0.3436,0.33073 -0.62251,0.33073 -0.3576,0 -0.50712,-0.1855 -0.50712,-0.62914 0,-0.34603 -0.19616,-1.09017 -0.43591,-1.65365 l -0.4359,-1.0245 -0.4832,1.05833 c -0.26576,0.58209 -0.48632,1.32623 -0.49014,1.65365 -0.007,0.62875 -0.63245,0.81699 -0.95892,0.28876 -0.21853,-0.3536 -0.877,-3.30507 -0.8908,-3.99293 -0.0128,-0.63706 0.67108,-0.58204 1.14319,0.092 l 0.38874,0.55501 0.30551,-0.57086 c 0.42152,-0.78761 1.61329,-0.63814 2.02995,0.2546 0.50113,1.07371 1.08176,3.28074 0.95711,3.63802 z"
           id="path190" /><path
           style="fill:#806600;fill-opacity:1"
           d="m 510.97714,217.40154 c -0.32937,-0.0634 -0.53497,-0.52738 -0.7414,-1.67305 -0.28405,-1.57641 -0.28684,-1.5801 -0.49905,-0.65923 -0.29896,1.29735 -1.21941,2.87641 -1.78048,3.05449 -0.77143,0.24484 -1.51063,-0.34685 -1.8505,-1.48123 -0.27603,-0.9213 -0.2496,-1.23082 0.19712,-2.30871 0.62823,-1.51586 1.23467,-1.70848 1.90558,-0.60526 l 0.49383,0.81204 0.32809,-1.8359 c 0.19057,-1.06639 0.2527,-2.43932 0.14822,-3.27555 -0.12157,-0.97304 -0.0818,-1.50029 0.12279,-1.62671 0.5038,-0.31137 1.07323,0.39787 1.07323,1.33672 0,0.48634 0.23777,2.10888 0.52837,3.60562 0.67736,3.48875 0.69788,4.77688 0.0742,4.65677 z m -3.04996,-2.23001 c -0.48343,0.0244 -0.60876,0.20407 -0.66682,0.95606 l -0.0715,0.92604 0.66682,-0.74235 c 0.82263,-0.91582 0.83911,-1.17846 0.0715,-1.13975 z"
           id="path189" /><path
           style="fill:#806600;fill-opacity:1"
           d="m 514.53289,217.93214 c -0.54058,0.44864 -1.08065,-0.0578 -0.88652,-0.83129 0.0926,-0.36908 -0.0226,-1.54272 -0.256,-2.60809 -0.52311,-2.38745 -0.61876,-6.42429 -0.16301,-6.88003 0.6477,-0.64771 0.98569,0.21307 0.90533,2.30567 -0.0416,1.08304 0.10786,2.93632 0.33209,4.1184 0.49658,2.61775 0.51247,3.52655 0.0681,3.89534 z"
           id="path188" /><path
           style="fill:#806600;fill-opacity:1"
           d="m 521.60352,218.62147 c -1.57553,0.39543 -4.77763,-0.80746 -5.05122,-1.89752 -0.59543,-2.37236 1.80249,-4.96876 3.76366,-4.07519 0.51008,0.23241 0.64194,0.49228 0.64194,1.26517 0,0.78924 -0.19792,1.16096 -1.04943,1.97098 l -1.04943,0.9983 0.7187,0.14231 c 0.39529,0.0783 1.16519,0.21916 1.71089,0.3131 1.19394,0.20551 1.39202,1.01251 0.31489,1.28285 z m -2.21836,-4.61054 c -0.36266,0 -1.76099,1.25137 -1.59,1.4229 0.20154,0.20219 1.83983,-0.82578 1.83983,-1.15443 0,-0.14766 -0.11243,-0.26847 -0.24983,-0.26847 z"
           id="path187" /></g><g
         id="g325"
         transform="translate(6.3090812,-186.1179)"
         style="fill:#806600;fill-opacity:1"><path
           style="fill:#806600;fill-opacity:1"
           d="m 530.27694,262.11273 c -0.0599,0.96254 -0.21569,1.45216 -0.4965,1.55991 -0.66463,0.25504 -0.84693,-0.4135 -0.68752,-2.52127 0.14182,-1.87524 0.12219,-1.97425 -0.35442,-1.78759 -0.4314,0.16896 -3.09793,0.67853 -3.57459,0.68311 -0.0878,8.4e-4 -0.71973,0.84385 -1.4043,1.87336 -1.02952,1.54825 -1.31066,1.81708 -1.62632,1.55511 -0.2099,-0.17421 -0.38164,-0.49382 -0.38164,-0.71025 0,-0.43245 4.9756,-9.2112 6.00107,-10.58804 0.35225,-0.47295 0.75953,-0.8599 0.90507,-0.8599 0.8539,0 1.8694,6.7708 1.61915,10.79556 z m -1.52465,-6.49608 c -0.0941,-0.76398 -0.274,-1.38906 -0.39973,-1.38906 -0.12573,0 -0.55014,0.56554 -0.94313,1.25677 -0.39299,0.69122 -0.9435,1.64372 -1.22336,2.11666 l -0.50882,0.8599 h 1.76239 1.76239 l -0.13931,-0.7276 c -0.0766,-0.40019 -0.21632,-1.35269 -0.31043,-2.11667 z"
           id="path185" /><path
           style="fill:#806600;fill-opacity:1"
           d="m 537.38093,265.73696 c -0.10535,0.43656 -0.33402,1.05891 -0.50815,1.383 -0.95042,1.76896 -3.67361,1.36685 -4.17126,-0.61594 -0.26542,-1.0575 0.2454,-1.27525 0.90349,-0.38514 0.52063,0.7042 0.65552,0.75557 1.34903,0.51381 0.93576,-0.32621 1.25869,-1.09896 1.44975,-3.46923 l 0.14347,-1.77976 -1.16266,0.0506 c -1.35369,0.0589 -2.13338,-0.49047 -2.39654,-1.68865 -0.40124,-1.82681 1.62235,-2.83691 2.76731,-1.38134 0.35853,0.4558 0.54837,0.55861 0.54837,0.29698 0,-0.6235 0.63669,-1.04535 1.01171,-0.67033 0.34581,0.34581 0.39676,6.37327 0.0655,7.746 z m -2.7143,-6.42166 c -0.4906,0.16354 -0.57197,0.73312 -0.10473,0.73312 0.2304,0 0.41892,-0.18852 0.41892,-0.41892 0,-0.23041 -0.14139,-0.3718 -0.31419,-0.3142 z"
           id="path183" /><path
           style="fill:#806600;fill-opacity:1"
           d="m 543.59087,267.63494 c -0.61321,0.86091 -2.06541,1.26689 -2.97398,0.83142 -0.85612,-0.41032 -1.40294,-1.6444 -0.93569,-2.11166 0.23105,-0.23104 0.42245,-0.16124 0.78476,0.28619 0.3756,0.46385 0.63675,0.55221 1.20816,0.40879 1.03306,-0.25928 1.33004,-0.98141 1.11417,-2.70919 -0.26914,-2.15408 -0.33116,-2.24705 -1.36917,-2.05232 -0.76035,0.14265 -1.01534,0.0489 -1.68284,-0.61859 -1.27642,-1.27642 -0.94335,-3.44699 0.61216,-3.98924 1.04789,-0.3653 1.05425,-0.36433 1.72624,0.26172 0.31848,0.29671 0.57906,0.41577 0.57906,0.26458 0,-0.54094 0.78612,-0.26298 0.90621,0.32043 0.0674,0.32742 0.19409,2.38125 0.28154,4.56406 0.13368,3.33699 0.0938,4.06029 -0.25062,4.54381 z m -2.1266,-8.5996 c -0.0485,-0.0485 -0.33645,0.0448 -0.63996,0.2072 -0.80165,0.42903 -0.75369,1.59963 0.0655,1.59963 0.33955,0 0.70307,-0.0857 0.80783,-0.19047 0.16938,-0.16938 -0.007,-1.3898 -0.23341,-1.61636 z"
           id="path181" /><path
           style="fill:#806600;fill-opacity:1"
           d="m 555.94335,263.75259 c -1.45817,0 -3.27597,-0.73458 -4.13289,-1.67012 -0.59358,-0.64804 -1.15825,-0.9636 -1.96956,-1.10067 -0.62557,-0.10569 -1.20288,-0.1267 -1.2829,-0.0467 -0.08,0.08 -0.20654,0.68715 -0.28116,1.34918 -0.10595,0.93997 -0.24162,1.2037 -0.61923,1.2037 -0.37119,0 -0.61671,-0.44574 -1.0566,-1.91823 -0.31517,-1.05503 -0.58811,-2.26273 -0.60651,-2.68379 -0.0495,-1.13292 0.57017,-1.15723 1.0367,-0.0407 0.36134,0.86482 0.44167,0.91968 0.80888,0.55247 0.22424,-0.22423 0.42897,-0.40641 0.45495,-0.40483 0.026,0.002 0.63172,0.18016 1.34607,0.39687 1.6502,0.5006 2.00847,0.49543 2.00847,-0.029 0,-0.56624 1.51789,-1.95824 2.13534,-1.95824 0.54745,0 1.03966,0.73917 1.03966,1.56129 0,0.29576 -0.4212,0.95894 -0.936,1.47374 -0.93444,0.93444 -0.93499,0.9364 -0.33073,1.18132 0.3329,0.13493 1.14105,0.40231 1.7959,0.59418 0.90136,0.2641 1.21116,0.49348 1.27517,0.94416 0.0711,0.50037 -0.0383,0.59531 -0.68556,0.59531 z"
           id="path179" /><path
           style="fill:#806600;fill-opacity:1"
           d="m 562.49677,263.75259 c -0.20721,3.56673 -0.46795,4.5699 -1.30411,5.0174 -1.09377,0.58536 -2.81895,-0.5593 -3.48559,-2.31271 -0.43103,-1.13368 0.0511,-1.16322 1.23122,-0.0754 0.6957,0.64127 1.31371,1.00619 1.55029,0.9154 0.48655,-0.1867 1.01119,-2.58899 0.90031,-4.12246 -0.0666,-0.92068 -0.1818,-1.13924 -0.6112,-1.15919 -1.21569,-0.0565 -1.46003,-0.14242 -1.97406,-0.69417 -0.34985,-0.37552 -0.53948,-0.93827 -0.53948,-1.601 0,-0.92624 0.0906,-1.05981 0.96779,-1.42631 0.71725,-0.29968 1.28235,-0.34725 2.18282,-0.18372 1.197,0.21737 1.21546,0.23631 1.24458,1.27776 0.0163,0.58142 -0.0569,2.5454 -0.16257,4.36441 z m -1.78522,-4.22928 c -0.67191,0.006 -1.22123,0.41909 -1.01047,0.76011 0.19956,0.32291 1.01769,0.39719 1.2971,0.11778 0.34468,-0.34468 0.16928,-0.88188 -0.28663,-0.87789 z"
           id="path175" /><path
           style="fill:#806600;fill-opacity:1"
           d="m 568.89172,262.79921 c -0.14654,0.0906 -0.50733,-0.14157 -0.80176,-0.51587 l -0.53531,-0.68054 -1.06746,0.61188 c -0.83858,0.48067 -1.168,0.54939 -1.53639,0.32049 -0.73926,-0.45935 -0.72794,-1.94853 0.0219,-2.87464 0.57901,-0.71518 0.69751,-0.75644 1.33638,-0.46535 0.55087,0.25099 0.81625,0.24907 1.23898,-0.009 0.45627,-0.27853 0.59577,-0.25041 0.91871,0.18519 0.20942,0.28248 0.38239,0.87779 0.38438,1.32292 0.002,0.44513 0.0719,1.06378 0.15534,1.37478 0.0834,0.31099 0.0318,0.63955 -0.11472,0.73012 z"
           id="path173" /><path
           style="fill:#806600;fill-opacity:1"
           d="m 574.89589,260.57759 c -0.52931,0 -0.55623,0.0965 -0.41331,1.4812 0.17831,1.72769 -0.13002,2.81741 -0.73183,2.58648 -0.29973,-0.11502 -0.40535,-0.55618 -0.40535,-1.6931 0,-2.09734 -0.14079,-2.38611 -1.07253,-2.19976 -1.24391,0.24878 -2.15077,-0.0954 -2.0535,-0.77949 0.0717,-0.50444 0.27025,-0.59686 1.42692,-0.66435 l 1.3436,-0.0784 -0.22402,-1.63803 c -0.12321,-0.90091 -0.34021,-2.05626 -0.48222,-2.56744 -0.38245,-1.37658 -0.32941,-2.38462 0.12546,-2.38462 0.46281,0 1.09672,1.9718 1.50295,4.67495 0.25058,1.66744 0.36153,1.91601 0.91753,2.05556 0.82845,0.20793 0.88333,1.20699 0.0663,1.20699 z"
           id="path169" /><path
           style="fill:#806600;fill-opacity:1"
           d="m 578.9551,263.32271 c -0.36993,0.22863 -1.04653,-0.6417 -1.50164,-1.93163 -0.52807,-1.4967 -0.50939,-1.87183 0.0932,-1.87183 0.49336,0 0.88394,0.70241 1.20009,2.15824 0.084,0.38666 0.22082,0.88063 0.30412,1.09771 0.0833,0.21708 0.0402,0.46346 -0.0958,0.54751 z"
           id="path166" /><path
           style="fill:#806600;fill-opacity:1"
           d="m 578.9678,257.08909 c -0.30495,-0.0578 -0.49133,-0.38054 -0.54593,-0.94544 -0.0865,-0.89442 0.15141,-1.08026 0.69145,-0.54023 0.50982,0.50982 0.40404,1.58978 -0.14552,1.48567 z"
           id="path165" /><path
           style="fill:#806600;fill-opacity:1"
           d="m 585.25388,262.86438 c -0.2802,0.69434 -1.26908,1.41737 -1.93851,1.41737 -0.74615,0 -1.95051,-0.80028 -2.27451,-1.51138 -0.44322,-0.97278 -0.34665,-2.58982 0.19459,-3.25822 0.43605,-0.5385 0.62446,-0.57706 1.98764,-0.40674 1.30211,0.16269 1.55919,0.29117 1.89953,0.94932 0.43313,0.83757 0.48438,1.93462 0.13126,2.80965 z m -1.11348,-1.54596 c -0.51141,0.51141 -1.27,0.38498 -1.27,-0.21167 0,-0.63078 -0.33659,-0.68313 -0.80025,-0.12445 -0.25683,0.30946 -0.26579,0.55854 -0.0381,1.05833 0.55106,1.20946 2.38911,0.7107 2.41778,-0.65606 0.006,-0.29839 -0.0625,-0.31309 -0.30946,-0.0661 z"
           id="path162" /><path
           style="fill:#806600;fill-opacity:1"
           d="m 592.73927,264.89217 c -0.0704,0.27175 -0.31413,0.44193 -0.56462,0.39427 -0.32564,-0.062 -0.47739,-0.46312 -0.5812,-1.53646 -0.14272,-1.47559 -0.67505,-2.64323 -1.20506,-2.64323 -0.43867,0 -1.12377,0.85254 -1.45986,1.81663 -0.42079,1.20709 -1.12351,1.00967 -1.29563,-0.36398 -0.10466,-0.83529 -0.2428,-1.05577 -0.66146,-1.05577 -0.37635,0 -0.55271,-0.20357 -0.61069,-0.70489 -0.0998,-0.86295 0.75334,-1.24038 1.68126,-0.74377 0.52289,0.27984 0.71357,0.24582 1.32707,-0.23675 0.96852,-0.76184 1.24998,-0.7162 2.19073,0.35526 1.12464,1.28089 1.58897,3.13855 1.17946,4.71869 z"
           id="path159" /></g><g
         id="g329"
         style="fill:#806600;fill-opacity:1"><path
           style="fill:#806600;fill-opacity:1"
           d="m 556.52498,215.9713 c -0.56658,1.54637 -1.54658,2.68046 -2.86982,3.32102 -0.96402,0.46668 -1.28951,0.51649 -1.75321,0.26833 -0.48241,-0.25818 -0.54262,-0.45277 -0.39406,-1.27359 0.0964,-0.53286 0.23826,-2.72669 0.31515,-4.87516 0.1602,-4.47644 0.2699,-4.68529 2.18957,-4.16838 2.36255,0.63617 3.56475,3.8555 2.51237,6.72778 z m -1.05162,-4.36613 c -0.41191,-0.79654 -1.52391,-1.42533 -2.1177,-1.19747 -0.21599,0.0829 -0.36386,1.2208 -0.45697,3.51653 -0.0757,1.86669 -0.22611,3.67372 -0.33425,4.01561 -0.19301,0.61027 -0.18263,0.61436 0.56874,0.22358 2.28352,-1.18763 3.44059,-4.43028 2.34018,-6.55825 z"
           id="path178" /><path
           style="fill:#806600;fill-opacity:1"
           d="m 561.68254,219.10416 c -0.35225,0.60478 -1.63064,1.25677 -2.4642,1.25677 -0.83683,0 -1.48335,-0.90209 -1.48335,-2.06971 0,-0.6635 0.23165,-1.12528 0.89958,-1.79321 1.29488,-1.29488 2.01436,-1.2117 2.87073,0.33186 0.5215,0.93999 0.57259,1.59551 0.17724,2.27429 z m -1.53545,-1.60782 c -0.72396,-0.10624 -1.35377,0.37987 -1.35377,1.0449 0,0.61534 0.7211,0.6505 1.54245,0.0752 0.71486,-0.50071 0.63078,-0.99985 -0.18868,-1.12011 z"
           id="path176" /><path
           style="fill:#806600;fill-opacity:1"
           d="m 569.72943,221.50745 c -0.30475,0.30476 -0.76333,0.19394 -1.31174,-0.31699 -0.29127,-0.27135 -0.78293,-0.62896 -1.09257,-0.79468 -0.47166,-0.25242 -0.6257,-0.21177 -0.94956,0.2506 -0.64505,0.92094 -1.53296,0.56992 -2.25828,-0.89276 -0.8154,-1.64433 -1.07384,-3.62603 -0.47289,-3.62603 0.54664,0 0.85875,0.62698 1.08352,2.17665 0.22321,1.53887 0.60179,1.8308 0.9773,0.75362 0.34355,-0.9855 0.54661,-1.00407 1.66355,-0.15214 1.25618,0.95814 1.47873,0.85859 1.47873,-0.66146 0,-0.95438 0.10267,-1.32292 0.36856,-1.32292 0.20271,0 0.44084,0.18833 0.52917,0.41852 0.21754,0.56691 0.20474,3.94707 -0.0158,4.16759 z"
           id="path172" /><path
           style="fill:#806600;fill-opacity:1"
           d="m 575.17988,221.03326 c -0.37568,0.23218 -0.39068,0.20963 -0.96335,-1.44774 -0.27306,-0.79027 -0.64199,-1.48537 -0.81985,-1.54466 -0.42603,-0.142 -1.10961,1.52654 -1.10961,2.70844 0,1.14338 -0.59655,1.26402 -1.02327,0.20694 -0.48469,-1.20069 -1.04678,-4.29706 -0.80697,-4.44528 0.12289,-0.076 0.45622,0.0947 0.74073,0.37921 0.50981,0.50981 0.52393,0.50995 0.9767,0.01 0.57303,-0.6332 1.48881,-0.65333 2.02983,-0.0446 0.99794,1.1228 1.61871,3.78072 0.97579,4.17806 z"
           id="path170" /><path
           style="fill:#806600;fill-opacity:1"
           d="m 580.58856,221.91464 c -0.85201,1.21642 -3.67571,1.29638 -3.97284,0.11251 -0.17572,-0.70013 0.39343,-1.56042 0.62126,-0.93906 0.21895,0.59714 2.45842,0.28654 2.45842,-0.34097 0,-0.18997 -0.48029,-0.75651 -1.06732,-1.25898 -1.30312,-1.11543 -1.74602,-2.33363 -1.07066,-2.94483 0.66265,-0.59968 1.7994,-0.53695 2.00494,0.11064 0.20989,0.66133 -0.0692,1.14125 -0.55518,0.95475 -0.61281,-0.23515 -0.42225,0.16254 0.55975,1.1682 1.16308,1.1911 1.55088,2.38214 1.02163,3.13774 z"
           id="path164" /><path
           style="fill:#806600;fill-opacity:1"
           d="m 586.25832,222.74218 c -0.17394,0 -0.64814,-0.31797 -1.05378,-0.7066 -0.69443,-0.6653 -0.76606,-0.68076 -1.22593,-0.26458 -0.64742,0.5859 -1.25682,0.55798 -1.90196,-0.0872 -1.09119,-1.09119 -0.26254,-4.02454 1.24369,-4.40258 0.93413,-0.23445 2.19518,1.10698 2.19764,2.33771 9.6e-4,0.48084 0.2383,1.23143 0.52742,1.668 0.59636,0.90047 0.67752,1.45521 0.21292,1.45521 z m -3.14212,-3.47642 c -0.51889,0.63503 -0.69357,1.62433 -0.28681,1.62433 0.28317,0 0.98828,-0.80135 1.16404,-1.32291 0.25376,-0.75301 -0.34119,-0.95744 -0.87723,-0.30142 z"
           id="path161" /><path
           style="fill:#806600;fill-opacity:1"
           d="m 594.15703,222.70745 c -0.457,0.37928 -0.57598,0.23152 -0.82423,-1.02361 -0.37859,-1.91415 -0.39762,-1.9437 -0.93719,-1.4554 -0.26456,0.23943 -0.62541,0.78391 -0.80188,1.20995 -0.53238,1.28527 -1.315,0.86734 -1.315,-0.70223 0,-1.00906 -0.44365,-0.74913 -0.9401,0.55081 -0.25009,0.65484 -0.5534,1.19062 -0.67403,1.19062 -0.44928,0 -0.76712,-1.07074 -0.76712,-2.58434 0,-1.71053 0.15845,-2.06645 0.71448,-1.60499 0.27599,0.22905 0.44179,0.22849 0.67257,-0.002 0.47537,-0.47537 1.18929,-0.36267 1.62274,0.25617 l 0.39397,0.56247 0.71505,-0.56247 c 0.39328,-0.30935 0.86403,-0.56246 1.0461,-0.56246 0.86684,0 1.82176,4.12432 1.09464,4.72778 z"
           id="path158" /><path
           style="fill:#806600;fill-opacity:1"
           d="m 601.02682,221.55461 c -0.77308,0.50654 -2.17551,0.92298 -3.10827,0.92298 -0.68458,0 -0.70166,0.0432 -0.88426,2.23533 -0.19055,2.28754 -0.63094,3.20137 -1.24626,2.58606 -0.20908,-0.20909 -0.20201,-0.63497 0.0255,-1.53869 0.17306,-0.68726 0.29214,-2.45116 0.26463,-3.91978 -0.0428,-2.2853 0.0123,-2.68254 0.38255,-2.75576 0.25803,-0.051 0.43257,-0.34461 0.43257,-0.7276 0,-0.53957 0.12901,-0.64206 0.80826,-0.64206 0.44455,0 1.32078,0.23348 1.94718,0.51884 1.90315,0.86698 2.59148,2.52562 1.37806,3.32068 z m -1.75653,-2.09057 c -1.31833,-0.52749 -2.11239,-0.16642 -2.11239,0.96053 0,0.60486 0.11493,0.73011 0.66996,0.73011 0.83092,0 2.50504,-0.67907 2.50504,-1.01611 0,-0.13714 -0.47818,-0.44068 -1.06261,-0.67453 z"
           id="path157" /><path
           style="fill:#806600;fill-opacity:1"
           d="m 603.98958,221.88228 c -0.16151,0.47294 -0.44494,0.8599 -0.62986,0.8599 -0.25599,0 -0.32578,-0.77344 -0.29246,-3.24115 0.0241,-1.78263 -0.056,-3.74716 -0.17793,-4.36562 -0.18724,-0.94971 -0.15538,-1.12448 0.20499,-1.12448 0.23467,0 0.55508,0.32742 0.71203,0.7276 0.4073,1.03857 0.5373,6.10689 0.18323,7.14375 z"
           id="path156" /><path
           style="fill:#806600;fill-opacity:1"
           d="m 605.89846,222.74218 c -0.38958,0 -0.73092,-0.79327 -0.93928,-2.18282 -0.15715,-1.04806 -0.1191,-1.25677 0.22916,-1.25677 0.22968,0 0.54086,0.2303 0.6915,0.51178 0.34565,0.64584 0.36016,2.92781 0.0186,2.92781 z"
           id="path155" /><path
           style="fill:#806600;fill-opacity:1"
           d="m 606.69114,216.64342 c -0.12068,0.19527 -0.41003,0.28189 -0.643,0.19249 -0.5396,-0.20706 -0.57064,-1.50207 -0.036,-1.50207 0.51131,0 0.95706,0.85969 0.67901,1.30958 z"
           id="path154" /><path
           style="fill:#806600;fill-opacity:1"
           d="m 611.21307,223.3837 c -0.45312,0.28004 -0.73938,-0.0145 -0.9397,-0.96675 l -0.18204,-0.8654 -0.51991,0.99219 c -0.28595,0.5457 -0.63194,0.99219 -0.76887,0.99219 -0.49233,0 -0.79673,-1.05479 -0.79673,-2.76073 0,-1.38031 0.0829,-1.73719 0.40342,-1.73719 0.22188,0 0.52257,0.31337 0.66819,0.69638 0.2579,0.67834 0.2785,0.68394 0.79543,0.21612 0.46069,-0.41691 0.58063,-0.43024 0.90945,-0.10107 0.49597,0.49653 0.83571,3.28399 0.43076,3.53426 z"
           id="path153" /><path
           style="fill:#806600;fill-opacity:1"
           d="m 616.58162,227.28949 c -0.42904,1.40016 -1.32155,2.23751 -2.65069,2.48686 -1.06825,0.2004 -2.22095,-0.42439 -2.22095,-1.20383 0,-0.63984 0.48281,-0.95546 0.86972,-0.56854 0.44268,0.44268 1.6437,0.35423 2.28903,-0.16858 0.70056,-0.56754 1.05699,-2.02685 0.87955,-3.60108 l -0.13313,-1.18111 -0.82811,0.50495 c -1.16185,0.70847 -1.96409,0.65175 -2.33631,-0.16519 -0.65873,-1.44575 0.80457,-3.15231 2.70297,-3.15231 0.57187,0 1.14687,0.11636 1.27778,0.25857 0.45175,0.49076 0.56136,5.44824 0.15014,6.79026 z m -2.22993,-5.41665 c -0.63713,0.16662 -0.97133,0.60475 -0.46128,0.60475 0.29496,0 0.99457,-0.48508 0.99457,-0.6896 0,-0.03 -0.23998,0.008 -0.53329,0.0849 z"
           id="path152" /></g><path
         style="fill:#806600;fill-opacity:1"
         d="m 622.27007,170.86487 c -0.12642,0.64441 -0.3515,1.2933 -0.50018,1.44198 -0.14868,0.14868 -0.27195,0.75253 -0.27394,1.34189 -0.007,2.19464 -0.0769,2.26183 -2.34235,2.2651 -1.11081,0.002 -2.45331,0.0746 -2.98332,0.16228 l -0.96367,0.15937 -0.44336,2.81428 c -0.24386,1.54786 -0.60824,3.89743 -0.80975,5.22128 -0.63681,4.18373 -1.46152,6.99563 -2.86369,9.76384 -2.69577,5.32206 -5.79007,7.56619 -12.34441,8.9527 -6.29769,1.33223 -6.85931,1.36395 -24.07708,1.36007 -11.5768,-0.003 -17.18799,-0.10343 -19.44688,-0.34945 -1.74625,-0.19019 -5.00506,-0.41275 -7.2418,-0.49459 l -4.06681,-0.1488 0.10723,1.89773 c 0.12139,2.14838 0.32263,1.96303 -2.55695,2.35507 -0.87312,0.11888 -2.3863,0.16955 -3.36262,0.11262 -2.0486,-0.11946 -2.23993,-0.35307 -1.81139,-2.21169 0.50718,-2.19971 0.71028,-2.07267 -3.25772,-2.03771 -1.94532,0.0171 -3.64196,-0.0324 -3.77032,-0.11 -0.34967,-0.21152 -6.18401,-0.69389 -12.00732,-0.99273 -2.83766,-0.14563 -7.06438,-0.38886 -9.39271,-0.54053 -4.38056,-0.28535 -34.44692,-0.35333 -36.15563,-0.0817 l -0.96606,0.15354 -0.31667,2.5851 c -0.2348,1.91675 -0.24005,2.72826 -0.0203,3.13885 0.34285,0.64062 0.2044,0.69204 -2.601,0.96604 l -1.69509,0.16556 0.18829,-2.99439 c 0.10357,-1.64692 0.30304,-5.19705 0.44328,-7.88918 0.14023,-2.69214 0.35984,-6.26401 0.48802,-7.9375 0.12817,-1.67349 0.17388,-3.75709 0.10157,-4.63021 -0.0726,-0.87714 3e-5,-1.92494 0.1624,-2.3416 l 0.29388,-0.75411 1.9147,0.18231 c 2.27574,0.21668 2.57616,0.49667 2.57616,2.40099 v 1.37082 l 1.1186,0.17887 c 0.61523,0.0984 4.03828,0.0372 7.60677,-0.13592 4.22037,-0.20476 10.64975,-0.25858 18.39442,-0.15399 13.0514,0.17625 19.02679,0.46251 26.06146,1.24851 4.74959,0.53067 8.32387,0.63986 11.40824,0.3485 l 1.75094,-0.16541 0.16085,-1.72245 c 0.0885,-0.94736 0.19388,-1.7555 0.23426,-1.79588 0.0404,-0.0404 1.20413,-0.14504 2.58612,-0.23259 1.382,-0.0875 2.74259,-0.18639 3.02356,-0.21965 0.59297,-0.0702 0.87773,0.6702 0.91799,2.38691 l 0.0264,1.12448 1.25677,0.0172 c 0.69123,0.01 4.65006,0.12379 8.7974,0.25403 4.14734,0.13024 12.30312,0.35908 18.12396,0.50854 5.82083,0.14945 10.82145,0.32712 11.1125,0.39482 0.96351,0.22412 8.9696,-0.57428 10.15742,-1.01294 2.02966,-0.74955 2.90629,-1.43585 3.18707,-2.49511 0.41188,-1.55383 1.0753,-6.36991 1.0753,-7.80617 v -1.31514 l -3.02122,0.18063 c -2.22076,0.13277 -3.07286,0.0971 -3.21611,-0.13472 -0.10719,-0.17344 -0.16355,-1.51717 -0.12523,-2.98606 0.0383,-1.4689 0.0866,-3.50417 0.10725,-4.52282 0.0308,-1.51609 0.1096,-1.82894 0.43447,-1.72455 0.8148,0.26183 6.21676,-0.0186 6.51474,-0.33813 0.4733,-0.50761 2.06997,-8.06152 2.47211,-11.69564 0.16103,-1.45521 0.35585,-3.06256 0.43294,-3.57188 0.0771,-0.50932 0.28259,-4.25979 0.45667,-8.33437 0.37344,-8.74102 0.17183,-16.52708 -0.50356,-19.44688 -1.37115,-5.92761 -2.45101,-8.14804 -4.79272,-9.85491 -2.69609,-1.96517 -5.53873,-3.02155 -10.13809,-3.76751 -2.46529,-0.39984 -4.27394,-0.43079 -16.13792,-0.27618 -8.91513,0.11618 -17.05939,0.0598 -24.47396,-0.16945 -6.11187,-0.18897 -17.72046,-0.35345 -25.79687,-0.36552 -8.0764,-0.0121 -17.6014,-0.16714 -21.16666,-0.34459 -3.56526,-0.17744 -11.66151,-0.38494 -17.99167,-0.4611 -9.3784,-0.11283 -11.80424,-0.069 -13.10195,0.23664 -0.93043,0.21916 -1.82867,0.28777 -2.16046,0.16504 -0.54428,-0.20135 -0.57558,-0.11764 -0.75314,2.01397 -0.15404,1.84917 -0.26911,2.25067 -0.68269,2.38193 -0.73957,0.23473 -6.64886,-0.0784 -7.486,-0.39668 -0.5208,-0.19801 -0.71077,-0.44246 -0.67616,-0.87007 0.0265,-0.32708 0.035,-1.2793 0.0188,-2.11605 l -0.0293,-1.52136 h -2.31285 c -3.89601,0 -14.87095,-0.51591 -17.53089,-0.82408 -1.38245,-0.16017 -3.88277,-0.27963 -5.55625,-0.26547 -6.33124,0.0536 -15.45336,-1.89166 -20.3765,-4.34521 -3.14146,-1.56561 -5.28565,-4.634192 -7.11206,-10.178182 -1.25873,-3.82082 -1.39309,-5.08557 -0.93665,-8.81686 0.21659,-1.77054 0.5127,-4.94556 0.65804,-7.05562 0.14533,-2.11005 0.3825,-4.4913 0.52704,-5.29166 0.21498,-1.19041 0.47831,-4.93105 0.84746,-12.03854 0.0227,-0.43657 0.0172,-2.83956 -0.0122,-5.33999 -0.0525,-4.46736 -0.0638,-4.54914 -0.64876,-4.71409 -1.96631,-0.55444 -2.05077,-0.6404 -2.04647,-2.08271 0.002,-0.74633 0.0996,-1.50753 0.21645,-1.69156 0.11682,-0.18403 0.87781,-0.47418 1.6911,-0.64477 1.25221,-0.26265 2.18158,-0.21902 6.06741,0.28484 8.75682,1.13548 10.69538,1.36401 14.77516,1.74178 2.25557,0.20886 4.49793,0.52026 4.98302,0.69201 l 0.88197,0.31227 -0.18412,1.62007 c -0.10127,0.89103 -0.22254,1.66194 -0.26949,1.71313 -0.15721,0.17139 -1.30203,0.14244 -2.12605,-0.0538 l -0.81571,-0.19423 -0.31703,3.91392 c -0.17437,2.15266 -0.49096,5.4022 -0.70353,7.22121 -1.30201,11.14165 -1.44304,14.17024 -0.81931,17.59479 0.62387,3.42532 2.28854,5.67711 5.27152,7.13074 3.34279,1.62896 5.52797,1.92744 16.71225,2.2827 5.47048,0.17377 10.02657,0.2357 10.12465,0.13762 0.0981,-0.0981 0.18496,-0.81182 0.19307,-1.58611 0.0219,-2.08836 0.26871,-2.26423 3.00506,-2.14098 3.88954,0.17518 6.25605,0.45437 6.45478,0.76149 0.10453,0.16154 0.12364,0.71162 0.0425,1.22239 l -0.14756,0.92868 3.03728,-0.0964 c 1.70062,-0.054 3.60316,0.0352 4.32314,0.2026 0.72367,0.16828 6.02866,0.41377 12.13377,0.56149 16.80929,0.40672 27.57074,0.76782 36.5125,1.22519 6.31634,0.32308 9.75327,0.36602 14.94896,0.18674 8.73357,-0.30134 35.96783,-0.21598 44.97916,0.14099 9.64825,0.3822 15.17278,1.1515 18.19051,2.53306 8.34834,3.822 11.95449,8.109642 15.24629,18.127532 1.13039,3.44009 1.60358,6.00984 2.16807,11.77396 0.30662,3.13096 0.38518,5.42262 0.25851,7.54062 -0.10009,1.67349 -0.28143,5.06677 -0.40299,7.54063 -0.12155,2.47385 -0.47032,6.34338 -0.77503,8.59896 -0.30472,2.25557 -0.55405,5.14491 -0.55407,6.42076 -2e-5,1.29705 -0.22873,3.39663 -0.51879,4.7625 -0.28532,1.34353 -0.64978,3.69293 -0.80992,5.2209 -0.16014,1.52797 -0.35624,3.04567 -0.43578,3.37266 l -0.14461,0.59454 2.79785,-0.17119 c 2.0865,-0.12766 2.90098,-0.0856 3.20349,0.16547 0.45274,0.37573 0.50498,2.24803 0.11781,4.22163 z m -7.58352,-2.87004 c -3.60165,0.0322 -9.67383,-0.009 -13.49375,-0.091 l -6.94532,-0.14948 v 1.30018 c 0,0.71509 0.0893,1.31171 0.19844,1.32581 0.10914,0.0141 6.11359,0.071 13.34321,0.12632 14.63978,0.11213 13.34643,0.27524 13.41516,-1.69184 l 0.0307,-0.87843 z m 4.76249,4.18546 c -0.5457,-0.0146 -1.82562,-0.073 -2.84427,-0.12989 -3.19617,-0.17847 -22.21679,-0.0903 -22.39,0.10375 -0.0908,0.1017 -0.22429,0.66115 -0.29673,1.24324 l -0.13172,1.05833 6.32269,-0.0938 c 3.47748,-0.0516 8.10538,0.0426 10.28421,0.20926 2.25126,0.1722 5.27534,0.22447 7.00476,0.12107 l 3.04325,-0.18194 v -1.15179 c 0,-1.14987 -0.002,-1.15184 -0.99219,-1.17827 z m -1.42062,-41.62026 c -0.30841,0.27721 -1.26805,1.41676 -2.13254,2.53233 -1.60326,2.06889 -2.33381,2.66457 -2.33381,1.90295 0,-0.54422 2.37827,-3.85121 3.91058,-5.43765 l 1.19943,-1.24181 -0.17439,-3.12381 c -0.17552,-3.14418 -0.35773,-4.3207 -0.667,-4.30704 -0.0922,0.004 -0.82243,0.90937 -1.62279,2.01178 -1.5886,2.1881 -2.96061,3.51877 -3.12369,3.02955 -0.10871,-0.32613 -0.12503,-0.29987 2.39879,-3.85811 1.06026,-1.49482 1.85428,-2.36757 2.13299,-2.3445 0.2442,0.0202 0.44399,-0.0766 0.44399,-0.21523 0,-0.76864 -0.89064,-5.94047 -1.05405,-6.12076 -0.2332,-0.25728 -1.94596,1.75139 -3.28443,3.85185 -0.98738,1.54949 -1.48235,1.89882 -1.48235,1.04616 0,-0.65537 2.2147,-4.20753 3.36322,-5.39426 l 0.94327,-0.97466 -0.61423,-2.0019 c -0.33783,-1.10105 -0.69904,-2.00191 -0.80269,-2.00191 -0.10364,0 -1.22974,1.19566 -2.50244,2.65702 -2.69685,3.09663 -3.82671,4.02557 -3.82671,3.14621 0,-0.28303 3.26166,-4.22387 5.06168,-6.11568 l 0.96064,-1.00962 -0.72131,-1.52178 c -1.27561,-2.69121 -3.89954,-6.416562 -4.51946,-6.416562 -0.12208,0 -1.2439,1.29812 -2.49294,2.884722 -2.18443,2.77479 -3.05111,3.58055 -3.05111,2.83667 0,-0.32025 2.52414,-3.93718 4.11398,-5.895072 l 0.67814,-0.83513 -0.87471,-0.65597 c -1.44073,-1.08044 -3.91741,-2.37645 -3.91741,-2.04991 0,0.35453 -3.56759,4.86779 -4.5929,5.810352 -1.03898,0.95512 -1.17362,0.44103 -0.22019,-0.840742 0.45928,-0.61745 1.55357,-2.15787 2.43175,-3.42316 l 1.59669,-2.30053 -0.86445,-0.39361 c -0.47544,-0.21649 -1.44409,-0.58361 -2.15255,-0.81582 -1.27778,-0.41883 -1.29538,-0.41668 -2.19413,0.26883 -0.89228,0.68058 -1.6251,1.56809 -4.14209,5.01648 -1.17946,1.61592 -1.87355,2.227992 -2.17954,1.922002 -0.17868,-0.17867 3.40857,-5.564352 4.54159,-6.818472 0.52702,-0.58335 0.85507,-1.06282 0.729,-1.06549 -0.12607,-0.003 -1.44455,-0.17762 -2.92995,-0.38879 -1.4854,-0.21118 -4.10478,-0.46242 -5.82084,-0.55832 l -3.1201,-0.17436 -0.76943,0.7616 c -0.42318,0.41887 -1.62646,2.07128 -2.67395,3.67201 -1.8967,2.89846 -2.89485,4.06872 -3.20542,3.75814 -0.16597,-0.16597 2.88394,-5.44405 4.03429,-6.98163 0.34657,-0.46324 0.62981,-0.93949 0.62942,-1.05834 -3.9e-4,-0.11885 -1.251,-0.25678 -2.77914,-0.30652 -2.31706,-0.0754 -2.75448,-0.028 -2.6342,0.28542 0.0845,0.22016 -0.0845,0.47791 -0.40788,0.62222 -0.30366,0.13549 -1.4099,1.48695 -2.45831,3.00323 -1.7483,2.52849 -2.56767,3.39148 -2.56767,2.70436 0,-0.27126 3.29451,-5.78927 3.72974,-6.24699 0.13145,-0.13824 0.23901,-0.3394 0.23901,-0.44702 0,-0.2083 -9.59994,-0.36975 -20.50521,-0.34485 -8.24887,0.0188 -16.00729,0.35445 -16.00729,0.69245 0,0.13959 -0.28406,0.6328 -0.63124,1.09604 -0.34718,0.46323 -0.88812,1.35362 -1.20208,1.97864 -0.61956,1.23336 -2.30207,3.22922 -2.72225,3.22922 -0.14336,0 0.0509,-0.50601 0.4317,-1.12448 1.17575,-1.90957 2.81766,-5.22372 2.60547,-5.25905 -0.11077,-0.0184 -1.30265,-0.0482 -2.64863,-0.0661 -2.21266,-0.0295 -3.0101,0.13265 -2.11684,0.4304 0.21725,0.0724 0.0523,0.42728 -0.48063,1.0343 -0.44623,0.50824 -1.25487,1.71718 -1.79697,2.68654 -0.90714,1.62213 -2.02186,2.74535 -2.02186,2.03729 0,-0.60753 2.21788,-4.68367 2.98911,-5.49354 l 0.81886,-0.8599 h -2.97794 c -2.06483,0 -2.92378,0.0876 -2.80134,0.28573 0.0971,0.15715 -0.059,0.45071 -0.34683,0.65235 -0.28788,0.20164 -0.79689,1.05532 -1.13112,1.89708 -1.2955,3.26269 -2.93024,5.95479 -3.35689,5.52814 -0.0761,-0.0761 0.12894,-0.64952 0.45564,-1.27427 0.3267,-0.62475 0.98998,-2.1715 1.47396,-3.43723 0.48398,-1.26573 1.06147,-2.65234 1.28332,-3.08135 l 0.40337,-0.78002 -4.02747,-0.15853 c -9.46289,-0.3725 -20.79113,-0.6917 -29.42746,-0.82918 -5.09323,-0.0811 -10.98682,-0.29135 -13.09688,-0.46726 -4.18054,-0.34852 -10.95894,-0.43025 -11.25292,-0.13568 -0.63095,0.63221 -1.2137,6.72302 -1.5139,15.823142 l -0.0655,1.98437 1.19063,-0.10205 c 2.57196,-0.22045 25.10683,-1.7e-4 31.35312,0.30649 3.63802,0.1786 12.62724,0.32473 19.97604,0.32473 7.3488,0 20.4889,0.17084 29.20021,0.37966 13.18714,0.3161 17.26922,0.32301 24.38329,0.0413 8.61793,-0.34129 10.52847,-0.29083 15.32877,0.40483 4.62298,0.66997 7.5399,1.7782 10.46273,3.97513 2.94755,2.21551 4.07289,4.41711 5.59288,10.94182 0.54492,2.33911 0.58577,3.15617 0.58867,11.77395 0.004,11.83937 -0.58643,19.27535 -2.10079,26.45834 -0.36816,1.74625 -0.73475,3.54107 -0.81466,3.98848 l -0.14528,0.81349 4.66903,0.24663 c 4.54808,0.24025 8.12815,0.15596 8.48384,-0.19973 0.18027,-0.18027 0.90075,-5.1265 0.91584,-6.28744 l 0.008,-0.64481 -0.81374,0.7771 c -0.44757,0.42741 -1.24594,1.34266 -1.77416,2.03388 -0.89252,1.16793 -1.64543,1.61952 -1.64543,0.98693 0,-0.85032 3.31603,-4.75724 4.03775,-4.75724 0.59413,0 1.25392,-3.11503 1.25392,-5.92007 0,-1.99526 0.24707,-4.63021 0.68161,-7.269 0.19794,-1.20204 -0.13145,-0.95032 -1.91851,1.46615 -0.98043,1.32575 -1.55381,1.89429 -1.73135,1.71676 -0.36968,-0.36968 0.81679,-2.47365 2.69324,-4.7759 l 1.51639,-1.86049 0.16516,-2.71093 c 0.0908,-1.49101 0.13321,-2.74288 0.0942,-2.78192 -0.039,-0.039 -0.36291,0.19964 -0.71971,0.5304 -3.07557,2.85117 -4.22059,3.61999 -4.22059,2.83393 0,-0.13764 1.10133,-1.39193 2.4474,-2.78733 l 2.44739,-2.53709 0.15277,-1.64444 c 0.084,-0.90445 0.17333,-1.87126 0.19844,-2.14847 0.0449,-0.49565 0.0363,-0.49565 -0.51506,0 z m -4.30006,23.04014 c -2.5939,2.85433 -3.34129,3.435 -3.34129,2.59595 0,-0.50736 4.99041,-6.21436 5.43407,-6.21436 0.89146,0 0.35924,0.9202 -2.09278,3.61841 z m -2.81382,-48.48683 c -1.04077,1.33151 -1.76817,1.91175 -2.04702,1.6329 -0.35269,-0.35268 2.11222,-3.86031 2.71274,-3.86031 0.66086,0 0.40427,0.85851 -0.66572,2.22741 z m -21.91072,-8.994082 c -1.85389,2.63677 -2.69384,3.52664 -2.69384,2.85399 0,-0.36335 3.43154,-5.97163 3.79579,-6.20358 0.47584,-0.30301 0.96857,-0.2364 0.94857,0.12824 -0.01,0.1819 -0.93272,1.63151 -2.05052,3.22135 z m -21.28248,-3.05742 c -0.57778,0.30922 -1.40294,1.40925 -2.95333,3.93711 -0.37931,0.61846 -0.86809,1.12448 -1.08617,1.12448 -0.29626,0 -0.12094,-0.55189 0.6934,-2.18281 1.53237,-3.06895 2.24077,-3.95257 3.08781,-3.85162 0.89742,0.10696 1.0192,0.56561 0.25829,0.97284 z m -6.57659,-0.60181 c -0.30744,0.27721 -1.09773,1.43709 -1.75619,2.5775 -1.2734,2.20544 -2.34003,3.61507 -2.73543,3.61507 -0.44262,0 -0.25193,-0.44349 1.49302,-3.47233 1.96909,-3.41788 2.4731,-4.03097 3.11222,-3.78571 0.58646,0.22505 0.56179,0.45646 -0.11362,1.06547 z m -11.05589,1.79464 c -1.52151,1.8021 -2.31098,2.46652 -2.59421,2.18328 -0.40145,-0.40144 3.13237,-4.78488 3.70386,-4.59439 0.58967,0.19656 0.38544,0.64031 -1.10965,2.41111 z m -5.21941,-1.92439 c -0.37311,0.34858 -1.14615,1.41933 -1.71787,2.37945 -1.17195,1.96814 -2.34993,3.25016 -2.34993,2.55747 0,-0.47676 1.85448,-3.86821 2.82319,-5.16304 0.61068,-0.81626 1.47961,-1.12508 1.78325,-0.63377 0.0769,0.12437 -0.16552,0.51132 -0.53864,0.85989 z m -28.1318,1.6568 c -1.3341,2.30341 -2.21141,3.34914 -2.53677,3.02377 -0.0565,-0.0565 0.56803,-1.43665 1.38788,-3.06696 1.05524,-2.09838 1.62747,-2.96421 1.95907,-2.96421 0.25764,0 0.52094,0.0893 0.58511,0.19844 0.0642,0.10914 -0.5637,1.37317 -1.39529,2.80896 z m -7.70762,-0.62615 c -1.40791,1.84302 -2.48316,2.91042 -2.93185,2.91042 -0.42621,0 -0.14303,-0.52088 1.63309,-3.00395 1.07227,-1.49907 1.80994,-2.28772 2.13984,-2.28772 0.77015,0 0.59142,0.50603 -0.84108,2.38125 z m -5.92606,-0.45372 c -1.74166,2.30903 -3.00322,3.42006 -2.72742,2.40198 0.20006,-0.73846 3.12371,-4.87715 3.56492,-5.04646 0.21079,-0.0809 0.49675,-0.0336 0.63546,0.10514 0.15988,0.15988 -0.37931,1.08943 -1.47296,2.53934 z m -7.62993,-0.18047 c -0.75424,0.88813 -1.70384,2.04898 -2.11023,2.57969 -0.70842,0.92514 -1.51007,1.28367 -1.51007,0.67537 0,-0.36218 2.92384,-4.43069 3.66538,-5.10035 0.50998,-0.46056 1.38416,-0.44509 1.34399,0.0238 -0.01,0.11371 -0.63483,0.93339 -1.38907,1.82151 z m -6.42605,-0.55643 c -0.36852,0.43656 -1.29611,1.62718 -2.06129,2.64583 -1.88779,2.5131 -3.86421,4.21748 -3.86421,3.33232 0,-0.13175 0.38695,-0.70538 0.8599,-1.27474 0.47294,-0.56935 1.68122,-2.12247 2.68507,-3.45136 1.78197,-2.35899 2.33892,-2.86304 2.82891,-2.56021 0.3605,0.2228 0.28713,0.43687 -0.44838,1.30816 z m -7.53738,-0.51253 c -0.44997,0.42741 -1.41575,1.52506 -2.14619,2.43923 -1.26943,1.58873 -2.85651,2.79239 -2.85651,2.16639 0,-0.3254 3.59884,-4.89316 4.44879,-5.64654 0.5285,-0.46845 1.37204,-0.44359 1.37204,0.0404 0,0.12286 -0.36816,0.57309 -0.81813,1.00049 z m -6.6184,-0.41352 c -0.16103,0 -1.1433,0.81913 -2.18281,1.82029 -1.03952,1.00115 -2.16814,1.90539 -2.50806,2.00941 -0.5797,0.1774 -0.59757,0.15066 -0.28829,-0.43122 0.18135,-0.34119 1.10407,-1.42402 2.05049,-2.40629 1.33014,-1.38051 1.8911,-1.78594 2.47111,-1.78594 0.49058,0 0.75034,0.1374 0.75034,0.39688 0,0.21828 -0.13175,0.39687 -0.29278,0.39687 z m 131.63496,84.489622 -6.10886,-0.16923 -0.16864,2.75623 c -0.20172,3.29695 -0.86474,7.01877 -1.39728,7.84356 -0.49097,0.76041 -2.02254,1.72371 -3.53927,2.22607 -0.75956,0.25158 -1.23332,0.58182 -1.32292,0.92217 -0.0768,0.29162 -0.99514,1.26405 -2.04081,2.16094 -1.04568,0.8969 -1.97544,1.7508 -2.06614,1.89756 -0.0907,0.14676 -0.39907,0.26683 -0.68526,0.26683 -0.48842,0 -0.49612,-0.0468 -0.12548,-0.76358 0.21717,-0.41997 1.1132,-1.41364 1.99117,-2.20816 0.87797,-0.79451 1.5963,-1.50458 1.5963,-1.57793 0,-0.14959 -3.63333,0.002 -4.96093,0.20746 -0.53911,0.0833 -0.8599,0.28441 -0.8599,0.53911 0,0.47101 -4.20332,4.57878 -4.69635,4.5896 -0.82221,0.018 -0.17006,-1.11745 1.66215,-2.89404 1.09608,-1.06282 1.9201,-2.00567 1.83114,-2.09524 -0.089,-0.0896 -1.81803,-0.22238 -3.8424,-0.29514 -3.30939,-0.11894 -3.66687,-0.089 -3.54397,0.2965 0.0902,0.28294 -0.53447,1.11536 -1.83658,2.44739 -1.0853,1.11024 -2.04094,2.01861 -2.12363,2.01861 -0.0827,0 -0.15036,-0.28565 -0.15036,-0.63478 0,-0.40481 0.57511,-1.26939 1.5875,-2.38652 0.87313,-0.96346 1.5875,-1.78385 1.5875,-1.82308 0,-0.0392 -1.48828,-0.10274 -3.30729,-0.14111 -2.60191,-0.0549 -3.30729,0.005 -3.30729,0.28027 0,0.3276 -4.29369,4.70522 -4.61501,4.70522 -0.0811,0 -0.14749,-0.30176 -0.14749,-0.67058 0,-0.47715 0.53161,-1.20219 1.84296,-2.51354 l 1.84296,-1.84296 -0.98307,-0.0251 c -0.54068,-0.0138 -2.44172,-0.10308 -4.22452,-0.19844 -2.09942,-0.11228 -3.24268,-0.0802 -3.24491,0.0912 -0.002,0.14552 -1.07183,1.37953 -2.37763,2.74223 -1.8341,1.91402 -2.41204,2.37899 -2.5406,2.04397 -0.19892,-0.51838 0.82435,-2.13892 2.44389,-3.87033 l 1.1488,-1.22816 -6.54509,-0.15957 c -3.59979,-0.0878 -6.85336,-0.0966 -7.23014,-0.0196 l -0.68506,0.13999 -0.33656,4.67364 c -0.18511,2.57051 -0.4136,5.66087 -0.50777,6.86747 -0.20124,2.57881 -0.57566,2.33664 3.93424,2.54457 1.67349,0.0772 4.53099,0.28529 6.35,0.46253 2.16793,0.21123 8.86736,0.32771 19.44687,0.3381 17.33478,0.017 17.72684,-0.007 24.47396,-1.48163 5.2951,-1.15751 8.76926,-3.69543 11.04635,-8.06948 0.61847,-1.18801 1.12448,-2.24909 1.12448,-2.35796 0,-0.25236 -2.62347,2.59803 -2.63628,2.86432 -0.0151,0.31378 -0.8033,0.23075 -0.8033,-0.0846 0,-0.45777 1.42522,-2.38651 2.88201,-3.9002 1.17616,-1.22211 1.40725,-1.64672 1.77414,-3.2598 0.23201,-1.02006 0.36716,-1.90933 0.30033,-1.97616 -0.0668,-0.0668 -1.08282,0.89407 -2.25777,2.13532 -2.09195,2.21001 -2.69871,2.63352 -2.69871,1.8837 0,-0.86641 4.49761,-5.64266 5.01333,-5.32393 0.13441,0.0831 0.32205,-0.41682 0.41698,-1.11086 0.0949,-0.69404 0.2805,-1.67861 0.41238,-2.18793 0.43436,-1.67757 0.26358,-1.65418 -1.9063,0.261 -1.38891,1.22589 -2.23983,1.80598 -2.40576,1.64005 -0.40059,-0.4006 0.12818,-1.14791 2.07353,-2.93046 1.37389,-1.25893 1.84342,-1.55182 2.11988,-1.32238 0.39216,0.32546 0.53803,0.0918 0.67913,-1.08779 0.061,-0.50992 -0.0724,-0.70782 -0.58234,-0.86381 -0.3638,-0.1113 -3.41044,-0.27851 -6.77031,-0.37158 z m -56.00321,15.26339 c -0.76336,0.80317 -1.64422,1.8152 -1.95746,2.24896 -0.49818,0.68984 -0.59312,0.73005 -0.75774,0.32088 -0.10351,-0.25727 -0.0458,-0.81166 0.12834,-1.23198 0.44139,-1.06559 3.05263,-3.81183 3.48695,-3.66721 0.71509,0.23812 0.45995,0.89839 -0.90009,2.32935 z m -6.86969,-6.30633 -0.86824,0.0835 -0.0597,1.71979 c -0.1102,3.17204 -0.62712,8.31941 -0.99832,9.94114 -0.42215,1.84431 -1.06363,5.83142 -1.32717,8.24896 l -0.18026,1.65365 h 1.174 1.174 l 0.33546,-2.4474 c 0.47399,-3.458 0.75201,-6.14453 1.05803,-10.22384 0.14618,-1.94871 0.31538,-3.59271 0.37599,-3.65332 0.0606,-0.0606 0.12693,-1.30177 0.14736,-2.75812 l 0.0371,-2.64793 z m -2.21947,0.89892 c -0.0883,-0.23018 -0.38059,-0.41852 -0.64947,-0.41852 -0.54145,0 -0.65116,0.44348 -0.8962,3.62277 -0.0807,1.04663 -0.33074,2.77304 -0.55572,3.83646 -0.51279,2.42378 -1.66679,11.65064 -1.70153,13.6046 -0.003,0.1702 0.26834,0.24175 0.6443,0.16988 0.54933,-0.10501 0.6729,-0.31365 0.80098,-1.35237 0.40688,-3.29986 0.74032,-5.4343 1.24585,-7.97509 0.88336,-4.43971 1.4741,-10.54358 1.11179,-11.48773 z m -7.44604,3.24083 c -3.25485,0.0606 -5.67108,-0.0421 -7.87148,-0.33475 -1.74625,-0.23222 -4.39867,-0.49824 -5.89428,-0.59115 -2.4092,-0.14966 -2.70103,-0.12137 -2.55926,0.24807 0.1057,0.27544 -0.27381,0.85059 -1.11799,1.6943 -0.70291,0.70252 -1.54475,1.60473 -1.87076,2.00491 -0.62249,0.76411 -0.9874,0.9004 -1.25433,0.46849 -0.24772,-0.40081 0.34846,-1.31999 1.93541,-2.98398 0.79903,-0.83783 1.40405,-1.57119 1.3445,-1.6297 -0.24022,-0.23601 -14.64086,-0.68362 -22.07452,-0.68614 -7.47328,-0.002 -22.06241,0.46922 -22.35148,0.72275 -0.0728,0.0638 -0.20671,1.1483 -0.29767,2.40996 -0.0909,1.26167 -0.29745,3.06784 -0.45887,4.01373 -0.24339,1.42623 -0.80231,6.45197 -0.72231,6.49501 0.013,0.007 2.16677,-0.07 4.78615,-0.17105 8.51827,-0.32871 23.5406,-0.25119 30.55937,0.15769 3.71078,0.21618 9.96156,0.5737 13.89062,0.79449 3.92907,0.2208 7.91766,0.51707 8.86354,0.65838 1.91413,0.28595 6.42043,0.34782 7.34219,0.1008 0.47685,-0.12779 0.59531,-0.3481 0.59531,-1.10714 0,-1.30227 0.50804,-4.87594 1.2106,-8.51568 0.32303,-1.67349 0.59957,-3.2213 0.61453,-3.43959 0.0234,-0.34194 -0.62286,-0.38476 -4.66927,-0.3094 z m -2.78491,3.37549 c -1.20494,1.22407 -2.33634,2.22558 -2.51421,2.22558 -0.74946,0 -0.19983,-1.05067 1.52252,-2.91042 1.01077,-1.0914 1.84238,-2.07367 1.84801,-2.18281 0.0197,-0.38221 1.01354,-0.19431 1.17322,0.22182 0.11109,0.2895 -0.52039,1.11273 -2.02954,2.64583 z m -6.88798,-1.56399 c -0.48146,0.41077 -1.45718,1.43206 -2.16827,2.26953 -1.37755,1.62237 -2.08387,1.71709 -1.45336,0.19491 0.48208,-1.16385 3.78831,-4.63788 4.18219,-4.39445 0.56814,0.35113 0.33033,1.16989 -0.56056,1.93001 z m -15.40749,0.27281 c -1.86952,1.86947 -2.23797,2.05164 -2.23797,1.10649 0,-0.63402 2.84636,-3.67515 3.43977,-3.67515 0.98272,0 0.64493,0.72198 -1.2018,2.56866 z m -7.8186,-1.62597 c -0.44997,0.42741 -1.41272,1.52125 -2.13945,2.43075 -1.26813,1.58708 -2.06951,2.08005 -2.06951,1.27306 0,-0.41455 2.77543,-4.20612 3.67006,-5.01374 0.45375,-0.40962 0.62568,-0.43951 0.95519,-0.16604 0.55415,0.4599 0.51782,0.58869 -0.41629,1.47597 z m -7.06627,0.64849 c -0.84392,0.94386 -1.80453,2.10307 -2.13468,2.57601 -0.66476,0.95224 -1.35801,1.13464 -1.35801,0.3573 0,-0.56281 1.43755,-2.56885 3.15064,-4.39658 0.90903,-0.96986 1.20676,-1.14807 1.50484,-0.90068 0.20438,0.16962 0.37161,0.38477 0.37161,0.47811 0,0.0933 -0.69048,0.94197 -1.5344,1.88584 z m -9.34364,0.26091 c -1.86849,2.31977 -3.16214,3.70416 -3.46137,3.70416 -0.53728,0 -0.0979,-1.0721 1.08453,-2.6461 2.05756,-2.73904 3.33478,-4.08037 3.68138,-3.86616 0.5405,0.33405 0.33919,0.76737 -1.30454,2.8081 z m -6.74194,0.53046 c -1.93314,2.58958 -3.27543,3.96745 -3.86497,3.96745 -0.26151,0 -0.47547,-0.0636 -0.47547,-0.14145 0,-0.0778 0.78522,-1.06007 1.74494,-2.18282 0.95972,-1.12274 2.0426,-2.54737 2.40639,-3.16583 0.41054,-0.69791 0.85265,-1.12448 1.16548,-1.12448 0.80031,0 0.60554,0.52805 -0.97637,2.64713 z m -8.00248,-7.47478 c -0.53939,-0.0654 -1.05426,0.0109 -1.16255,0.1723 -0.10692,0.15935 -0.19989,1.89707 -0.20661,3.8616 -0.007,1.96453 -0.13375,4.46484 -0.2823,5.55625 -0.14854,1.09141 -0.31163,3.88938 -0.36244,6.21771 -0.0508,2.32833 -0.18137,5.16969 -0.29016,6.31414 l -0.19779,2.0808 0.63455,-0.19544 c 0.349,-0.1075 0.65217,-0.21042 0.67372,-0.22872 0.0405,-0.0344 0.43362,-4.12093 0.9068,-9.42599 0.14926,-1.67349 0.46213,-3.75708 0.69526,-4.63021 0.38875,-1.45597 0.86341,-8.14501 0.65057,-9.16813 -0.0584,-0.28095 -0.43642,-0.47879 -1.05905,-0.55431 z m -4.45057,-96.719272 -1.06002,-0.0792 -0.0529,1.66671 c -0.0291,0.91669 -0.27981,3.57172 -0.55714,5.90005 -0.27733,2.32833 -0.57828,5.06677 -0.66879,6.085422 -0.0905,1.01864 -0.45486,3.25296 -0.80967,4.96514 -0.76524,3.6928 -0.85223,6.14355 -0.22659,6.38363 0.59127,0.2269 2.43648,0.19986 2.58293,-0.0378 0.0672,-0.10914 0.31442,-4.1275 0.54928,-8.92968 0.23485,-4.802192 0.60527,-9.862352 0.82315,-11.244802 0.45614,-2.89417 0.58817,-3.99254 0.52475,-4.36562 -0.0247,-0.14552 -0.52198,-0.30023 -1.10499,-0.3438 z m -3.06603,-0.1509 c -0.32742,-0.0877 -0.98227,-0.16116 -1.45521,-0.16315 l -0.8599,-0.004 7.7e-4,2.4474 c 8e-4,2.54507 -0.31177,7.80936 -0.90722,15.279682 -0.39939,5.01055 -0.26604,7.22353 0.44343,7.35884 0.39889,0.0761 0.46302,-0.12924 0.46302,-1.48222 0,-0.86378 0.28535,-2.98587 0.63411,-4.71575 0.34875,-1.72988 0.71174,-3.91915 0.80664,-4.86503 0.0949,-0.945892 0.40245,-3.743862 0.68346,-6.217712 0.281,-2.47386 0.55206,-5.0337 0.60234,-5.68854 0.0503,-0.65485 0.11222,-1.32557 0.13765,-1.4905 0.0254,-0.16493 -0.22167,-0.37166 -0.54909,-0.45941 z m -3.84051,3.6697 c -0.11744,-0.15985 -2.13196,-0.26458 -5.08918,-0.26458 -6.0511,0 -16.3234,-0.31574 -16.64009,-0.51146 -0.12897,-0.0797 -1.07928,-0.32263 -2.11181,-0.53983 -2.79176,-0.58726 -5.00329,-1.69473 -6.62731,-3.31875 -3.43238,-3.43238 -4.01766,-7.36379 -2.8354,-19.04559 1.53753,-15.192 1.57375,-15.66076 1.22667,-15.87527 -0.17093,-0.10564 -1.7588,-0.27585 -3.52861,-0.37823 -2.98795,-0.17286 -8.11581,-0.75168 -13.34066,-1.50587 -1.20193,-0.17349 -2.27349,-0.22731 -2.38125,-0.11959 -0.10775,0.10771 -0.21628,3.92863 -0.24117,8.49092 -0.0438,8.02421 -0.47149,14.18212 -1.14918,16.54509 -0.14342,0.50009 -0.26077,2.10561 -0.26077,3.56782 0,1.46221 -0.18621,4.07846 -0.4138,5.81388 -0.49831,3.79966 -0.38431,4.84269 0.97752,8.94382 2.32311,6.99597 4.17804,8.872292 10.87512,11.000472 4.75217,1.51013 8.81305,2.18228 14.62262,2.42031 2.91041,0.11925 7.97057,0.39467 11.24479,0.61204 3.27422,0.21737 7.87332,0.47006 10.22022,0.56152 l 4.26711,0.16629 0.29456,-2.06379 c 0.16201,-1.13508 0.42192,-4.32597 0.57758,-7.090872 0.15566,-2.76489 0.32593,-5.14614 0.37838,-5.29166 0.17415,-0.48315 0.13201,-1.84805 -0.0654,-2.11667 z m -6.09094,3.89217 c -1.18302,1.68983 -2.24399,2.60757 -2.60138,2.25018 -0.0904,-0.0904 0.25167,-0.7355 0.76013,-1.43356 0.50846,-0.69807 1.17998,-1.77522 1.49225,-2.39369 0.60337,-1.19499 0.79233,-1.31249 1.29784,-0.80698 0.43238,0.43237 0.452,0.38306 -0.94884,2.38405 z m -7.81934,-1.19334 c -0.19495,0.11637 -0.96925,1.0622 -1.72068,2.10185 -1.16834,1.61646 -1.78991,2.21078 -2.31215,2.21078 -0.32896,0 0.0326,-0.75562 1.29885,-2.7144 1.69733,-2.62563 2.13188,-3.04174 2.69154,-2.57727 0.49078,0.40732 0.50363,0.70373 0.0424,0.97904 z m -6.86644,-1.2894 c -0.20043,0.16633 -1.0092,1.25357 -1.79729,2.41608 -1.30142,1.91974 -2.15222,2.68709 -2.54442,2.29489 -0.0801,-0.0801 0.68484,-1.43042 1.69986,-3.00072 1.27318,-1.9697 2.00032,-2.8551 2.34476,-2.8551 0.60871,0 0.79794,0.72918 0.29709,1.14485 z m -8.39197,-0.61568 c -1.31932,2.1257 -2.37942,3.231 -2.37826,2.47967 6.9e-4,-0.45089 2.03426,-4.46275 2.51581,-4.96325 0.3467,-0.36035 1.1934,-0.24561 1.18198,0.16017 -0.003,0.11371 -0.59699,1.15924 -1.31953,2.32341 z m -5.55675,-4.43728 c -1.72327,2.79242 -3.29588,4.78538 -3.56771,4.52136 -0.19336,-0.18779 3.70736,-7.24987 4.15843,-7.52865 0.14121,-0.0873 0.40512,0.004 0.58648,0.20337 0.26823,0.2945 0.0486,0.81755 -1.1772,2.80392 z m -0.54268,-16.983 c -0.5928,0.57605 -1.51448,1.61758 -2.04818,2.31451 -0.95518,1.24733 -2.09529,2.20176 -2.33898,1.95807 -0.14649,-0.14649 3.58178,-5.17004 4.24219,-5.71603 0.39063,-0.32295 0.50525,-0.32145 0.83767,0.011 0.33709,0.33709 0.25073,0.5157 -0.6927,1.43248 z m -1.79107,-13.0417 c -2.07408,2.08983 -2.95499,2.71531 -2.95499,2.09815 0,-0.27476 1.61862,-2.21882 3.06866,-3.68565 0.96388,-0.97504 2.26196,-1.52057 2.2035,-0.92604 -0.0107,0.10914 -1.05346,1.24023 -2.31717,2.51354 z m 1.70188,20.92139 c -0.21593,0.0829 -1.22507,1.39143 -2.24254,2.90795 -1.72765,2.57502 -2.67891,3.54627 -2.67891,2.73519 0,-0.4946 2.57979,-4.7446 3.47489,-5.72461 0.7395,-0.80965 1.5366,-0.97793 1.73989,-0.36731 0.0546,0.16397 -0.0774,0.36592 -0.29333,0.44878 z m -1.12743,-14.17451 c -1.61611,2.25062 -2.26191,2.24922 -1.11321,-0.002 0.78695,-1.54255 1.58957,-2.57726 1.99916,-2.57726 0.62875,0 0.31917,0.90141 -0.88595,2.57969 z m 6.59088,-15.37445 c -0.54571,-0.0902 -1.63176,-0.16531 -2.41344,-0.16691 -0.78169,-0.002 -2.62716,-0.17216 -4.10105,-0.37902 -1.47388,-0.20686 -3.87041,-0.51421 -5.32562,-0.683 -1.45521,-0.1688 -4.37501,-0.53775 -6.48845,-0.8199 -2.11344,-0.28216 -4.23286,-0.43496 -4.70982,-0.33957 -0.82896,0.16579 -0.86369,0.22145 -0.78759,1.26215 l 0.0796,1.08872 1.56592,-0.0852 c 0.86125,-0.0468 2.76625,0.10015 4.23333,0.32663 4.35903,0.67294 10.08514,1.21137 14.1819,1.33353 2.11287,0.063 4.04763,0.19363 4.29948,0.29027 0.38004,0.14583 0.45791,0.0193 0.45791,-0.74401 0,-0.85726 -0.0674,-0.93087 -0.99219,-1.08373 z"
         id="path151" /></g></g></svg>
