<?xml version="1.0" encoding="UTF-8" standalone="no"?>
<!-- Created with Inkscape (http://www.inkscape.org/) -->

<svg
   width="197.85396mm"
   height="145.43492mm"
   viewBox="0 0 197.85396 145.43492"
   version="1.1"
   id="svg1"
   xml:space="preserve"
   inkscape:version="1.4.2 (2aeb623e1d, 2025-05-12)"
   sodipodi:docname="simplify.svg"
   xmlns:inkscape="http://www.inkscape.org/namespaces/inkscape"
   xmlns:sodipodi="http://sodipodi.sourceforge.net/DTD/sodipodi-0.dtd"
   xmlns="http://www.w3.org/2000/svg"
   xmlns:svg="http://www.w3.org/2000/svg"><sodipodi:namedview
     id="namedview1"
     pagecolor="#ffffff"
     bordercolor="#000000"
     borderopacity="0.25"
     inkscape:showpageshadow="2"
     inkscape:pageopacity="0.0"
     inkscape:pagecheckerboard="0"
     inkscape:deskcolor="#d1d1d1"
     inkscape:document-units="mm"
     inkscape:zoom="2.3723095"
     inkscape:cx="440.28825"
     inkscape:cy="265.35323"
     inkscape:window-width="3774"
     inkscape:window-height="2091"
     inkscape:window-x="0"
     inkscape:window-y="0"
     inkscape:window-maximized="1"
     inkscape:current-layer="layer1" /><defs
     id="defs1" /><g
     inkscape:label="Layer 1"
     inkscape:groupmode="layer"
     id="layer1"
     transform="translate(-6.1341419,-77.178658)"><rect
       style="fill:#ffffff;stroke-width:0.264583;fill-opacity:1"
       id="rect198"
       width="197.85396"
       height="145.43492"
       x="6.1341419"
       y="77.178658" /><path
       style="fill:#000000;stroke-width:0.556437"
       d="m 46.674966,184.71293 c -0.130585,0.19558 -0.688002,0.50053 -0.914913,0.50053 -0.09001,0 -0.326205,-0.16262 -0.524958,-0.36136 -0.664093,-0.66412 -0.354337,-1.847 0.483676,-1.847 0.620681,0 1.293802,1.20224 0.956195,1.70783 z"
       id="path128" /><path
       style="fill:#000000;stroke-width:0.556437"
       d="m 55.59842,184.2565 c -0.367947,0.62612 -0.856118,0.68049 -1.382668,0.15392 -0.935701,-0.93571 0.08885,-2.42398 1.094111,-1.58935 0.378233,0.31404 0.523352,1.03589 0.288557,1.43543 z"
       id="path123" /><g
       id="g194"
       transform="matrix(0.5564363,0,0,0.5564363,-85.308581,-25.989587)"><path
         style="fill:#000000"
         d="m 327.09483,211.66271 c -1.42685,1.20062 -3.14539,0.46923 -4.2146,-1.79367 -0.54884,-1.16157 -0.56287,-1.29922 -0.17226,-1.68983 0.57949,-0.57949 1.26002,-0.26073 1.26002,0.59018 0,0.89467 0.78931,2.23312 1.31382,2.22789 1.05457,-0.0105 1.59308,-1.0677 1.2783,-2.50949 -0.28684,-1.31386 -0.55872,-1.6662 -2.09552,-2.71573 -0.67276,-0.45945 -1.28632,-1.07675 -1.36347,-1.37178 -0.20158,-0.77083 0.71482,-1.79882 1.92741,-2.16212 0.89196,-0.26724 1.1326,-0.24276 1.77174,0.18019 l 0.7396,0.48943 -1.0917,0.21941 c -0.60043,0.12067 -1.31481,0.4676 -1.5875,0.77095 -0.48751,0.54233 -0.48474,0.55869 0.16566,0.97786 1.98099,1.27674 2.90557,2.90079 2.90894,5.10962 10e-4,0.76479 -0.17573,1.11778 -0.84044,1.67709 z"
         id="path132" /><path
         style="fill:#000000"
         d="m 330.33918,199.74345 c -0.13387,0.0827 -0.49447,-0.16877 -0.80134,-0.55888 -0.65405,-0.83149 -0.36923,-1.35677 0.48716,-0.89844 0.56698,0.30343 0.75677,1.18378 0.31418,1.45732 z"
         id="path131" /><path
         style="fill:#000000"
         d="m 330.47303,210.15415 c -0.65327,-0.0933 -0.89837,-1.28539 -0.92918,-4.51894 -0.0156,-1.63762 0.0652,-2.09137 0.39505,-2.21794 0.78597,-0.3016 0.98019,0.37714 1.03337,3.61132 0.0512,3.11137 0.0367,3.20213 -0.49924,3.12556 z"
         id="path130" /><path
         style="fill:#000000"
         d="m 341.85964,209.49714 c -0.58334,0.22385 -0.958,-0.37027 -0.9619,-1.52529 -0.005,-1.41806 -0.25892,-2.30658 -0.62539,-2.18646 -0.53179,0.17431 -1.43901,1.76369 -1.62076,2.83947 -0.20255,1.19889 -0.51491,1.50389 -1.06912,1.04394 -0.25622,-0.21265 -0.38528,-0.83343 -0.38528,-1.85323 0,-1.5844 -0.17331,-2.37049 -0.52261,-2.37049 -0.3118,0 -1.06489,2.94826 -1.06489,4.16893 0,1.22024 -0.38504,1.64484 -0.96535,1.06453 -0.24776,-0.24776 -0.4177,-1.08581 -0.47581,-2.34641 -0.0497,-1.07856 -0.22648,-2.30782 -0.39279,-2.7317 -0.39319,-1.00212 0.007,-1.49065 0.80981,-0.98914 0.47868,0.29893 0.60009,0.27229 0.93444,-0.20507 0.54211,-0.77397 1.34073,-0.68155 2.21706,0.25656 0.7301,0.78158 0.76062,0.78943 1.03984,0.26771 0.73051,-1.36497 2.68542,-0.76329 3.16819,0.97511 0.40305,1.45132 0.35616,3.42208 -0.0855,3.59154 z"
         id="path129" /><path
         style="fill:#000000"
         d="m 349.49165,207.2592 c -0.73523,0.87377 -2.23439,1.49333 -3.07901,1.27246 -0.46743,-0.12224 -0.51881,-0.0465 -0.38615,0.56903 0.36921,1.71316 0.49924,6.30606 0.19464,6.8752 -0.3931,0.73452 -1.24182,0.75095 -1.62687,0.0315 -0.39623,-0.74037 -0.36122,-4.77584 0.0436,-5.02604 0.30816,-0.19045 0.29338,-0.35116 -0.31433,-3.41959 -0.12969,-0.65484 -0.31356,-1.7484 -0.40859,-2.43012 -0.16689,-1.19714 -0.14222,-1.25813 0.72191,-1.78495 1.07157,-0.65328 1.7745,-0.68437 3.08602,-0.13652 2.33184,0.97407 3.02365,2.55772 1.76878,4.04904 z m -1.27771,-2.58831 c -0.81297,-0.43509 -2.46363,-0.47643 -2.86822,-0.0718 -0.24656,0.24655 -0.24645,0.51288 4.6e-4,1.19571 0.17472,0.48318 0.31767,1.07842 0.31767,1.32275 0,0.59076 0.46567,0.5588 1.5875,-0.10895 1.66678,-0.99212 1.99363,-1.78588 0.96259,-2.33768 z"
         id="path127" /><path
         style="fill:#000000"
         d="m 353.24462,208.47764 c -0.68727,0.9399 -0.96575,0.20442 -0.97882,-2.58515 -0.007,-1.483 -0.17225,-3.94652 -0.36734,-5.47449 -0.19509,-1.52797 -0.26885,-2.87133 -0.1639,-2.98524 0.31894,-0.34619 1.07082,0.0974 1.1852,0.69932 0.0592,0.31137 0.23741,1.81628 0.39609,3.34425 0.39405,3.7944 0.36753,6.40127 -0.0712,7.00131 z"
         id="path126" /><path
         style="fill:#000000"
         d="m 356.09903,200.43116 c -0.37841,0.31405 -0.48962,0.29352 -0.81416,-0.15032 -0.53461,-0.73112 -0.34012,-1.31805 0.43677,-1.31805 0.80219,0 1.03855,0.91966 0.37739,1.46837 z"
         id="path125" /><path
         style="fill:#000000"
         d="m 356.42997,207.74459 c -0.59653,0.36868 -1.1014,-0.76865 -1.19898,-2.70092 -0.0948,-1.87796 -0.0708,-1.97984 0.46642,-1.97984 0.31151,0 0.61473,0.14883 0.67381,0.33073 0.23167,0.71321 0.27895,4.21394 0.0588,4.35003 z"
         id="path124" /><path
         style="fill:#000000"
         d="m 363.46201,198.23519 c -0.15848,0.87438 -0.85088,0.73128 -1.04013,-0.21498 -0.0891,-0.44566 -0.24856,-0.71355 -0.35429,-0.59531 -0.39754,0.44458 -0.79334,2.76709 -0.79334,4.65529 0,1.84665 0.0385,1.97457 0.68224,2.26789 0.78814,0.35909 0.72992,0.92601 -0.10775,1.04927 -0.56795,0.0836 -0.57275,0.12861 -0.40913,3.83646 0.17892,4.05463 -0.19435,8.33751 -0.75698,8.68537 -0.18813,0.11631 -0.48754,0.0537 -0.68443,-0.14313 -0.28026,-0.28016 -0.29345,-0.75663 -0.0661,-2.39083 0.30945,-2.22493 0.37266,-6.58982 0.11774,-8.13143 -0.10616,-0.64196 -0.32861,-1.01343 -0.65855,-1.09971 -0.66151,-0.17299 -0.64155,-1.14285 0.0309,-1.50275 0.46651,-0.24967 0.52963,-0.55624 0.53308,-2.589 0.004,-2.44763 0.55625,-5.34947 1.20665,-6.3421 0.37057,-0.56556 0.43605,-0.57692 1.16179,-0.20162 0.423,0.21874 0.81971,0.48785 0.88158,0.59803 0.22436,0.39954 0.36218,1.53681 0.25674,2.11855 z"
         id="path122" /><path
         style="fill:#000000"
         d="m 370.25617,208.62008 c -0.55495,1.81901 -1.26014,4.1705 -1.56708,5.22552 -0.43326,1.48921 -0.6676,1.91823 -1.04774,1.91823 -0.26931,0 -0.55554,-0.1717 -0.63607,-0.38155 -0.0805,-0.20986 0.32345,-2.01004 0.89774,-4.00041 0.57428,-1.99036 1.04415,-3.71747 1.04415,-3.83801 0,-0.12054 -0.35923,-0.0939 -0.79828,0.0591 -1.56386,0.54516 -2.63625,-0.94948 -2.63983,-3.67925 -10e-4,-1.01006 0.063,-1.12448 0.63167,-1.12448 0.76376,0 0.95435,0.42704 0.95435,2.13831 0,0.7157 0.10993,1.30128 0.24429,1.30128 0.40746,0 1.83907,-1.31718 2.32418,-2.13841 0.74724,-1.26497 1.71727,-0.88563 1.63325,0.63869 -0.0174,0.31552 -0.48568,2.06195 -1.04063,3.88097 z"
         id="path121" /></g><path
       style="fill:#000000;stroke-width:0.556437"
       d="m 62.860229,184.08646 c -0.148073,0.13402 -0.477629,0.24365 -0.73234,0.24365 -0.831773,0 -1.219199,-1.27985 -0.571593,-1.88824 0.493718,-0.46382 0.9342,-0.40934 1.280333,0.15836 0.364725,0.5982 0.373802,1.16931 0.02362,1.48623 z"
       id="path120" /><path
       style="fill:#000000;stroke-width:0.556437"
       d="m 70.767063,183.14816 c -0.283935,0.71825 -1.103947,0.82399 -1.59073,0.20515 -0.837411,-1.06458 0.368205,-2.47636 1.271729,-1.48919 0.396427,0.43311 0.496362,0.83537 0.319001,1.28404 z"
       id="path119" /><path
       style="fill:#000000;stroke-width:0.556437"
       d="m 80.656226,183.37828 c -0.191832,0.47327 -0.538298,0.68128 -1.050325,0.63063 -0.541817,-0.0535 -0.965633,-0.53312 -1.10631,-1.25169 -0.07421,-0.3789 -0.01939,-0.54113 0.286067,-0.84654 0.53148,-0.53148 1.142788,-0.50328 1.629507,0.0752 0.388839,0.46209 0.457469,0.85854 0.241061,1.39244 z"
       id="path118" /><path
       style="fill:#000000;stroke-width:0.556437"
       d="m 81.139595,173.99393 c -0.294837,0.59822 -0.674444,0.8143 -1.219996,0.69449 -0.616868,-0.13549 -0.956888,-0.59044 -0.956888,-1.28034 0,-0.4438 0.08654,-0.66293 0.344219,-0.87158 0.515584,-0.4175 1.007581,-0.34832 1.577723,0.22182 0.573262,0.57326 0.57565,0.58487 0.254942,1.23561 z"
       id="path117" /><path
       style="fill:#000000;stroke-width:0.556437"
       d="m 88.357148,112.84217 c -1.121978,0.0521 -2.813244,0.15859 -3.758371,0.23677 -0.945126,0.0781 -2.617959,0.14209 -3.717398,0.14209 h -1.998997 v 4.86682 4.86679 l 3.864622,-0.0868 c 2.125549,-0.0477 4.179388,-0.12006 4.564097,-0.16073 0.796494,-0.0841 1.426793,0.15081 1.149421,0.42842 -0.118649,0.11877 -1.606187,0.19268 -4.911,0.24401 l -4.740752,0.0736 -0.09656,0.88333 c -0.05316,0.48584 -0.143541,2.10899 -0.201013,3.60699 -0.05753,1.498 -0.150847,3.17451 -0.207471,3.72557 -0.05663,0.55105 -0.05765,1.0299 -0.0026,1.06411 0.05534,0.0342 2.138838,0.0692 4.629959,0.0777 2.491135,0.009 4.61984,0.0502 4.730485,0.0926 0.110678,0.0425 0.201152,0.16947 0.201152,0.28227 0,0.17115 -0.802844,0.20509 -4.851707,0.20509 h -4.851674 l -0.07769,0.47847 c -0.301462,1.85574 -0.881324,7.75277 -0.772992,7.86108 0.03531,0.0353 1.016531,-0.007 2.180621,-0.0932 1.164089,-0.0866 3.067451,-0.19897 4.229707,-0.24991 2.025176,-0.0887 2.110943,-0.0809 2.059612,0.18814 -0.04596,0.24055 -0.200953,0.28523 -1.082636,0.31201 -0.565969,0.0172 -2.46464,0.10913 -4.219262,0.20419 -3.662992,0.19857 -3.354622,0.0311 -3.360695,1.82569 -0.0013,0.56682 -0.10092,1.89184 -0.219979,2.94448 -0.119028,1.05265 -0.217781,2.0649 -0.219361,2.24946 l -0.0026,0.33555 5.067038,-0.041 c 4.621311,-0.0374 5.461421,0.007 5.199224,0.26812 -0.04862,0.0486 -2.262541,0.11761 -4.919719,0.15333 -2.657195,0.0358 -4.974075,0.0949 -5.148613,0.13168 -0.25955,0.0547 -0.335063,0.2077 -0.414711,0.84043 -0.05354,0.42548 -0.259037,1.96613 -0.456635,3.42364 -0.40209,2.96569 -0.652126,5.84521 -0.518704,5.97352 0.04841,0.0465 1.446072,0.0355 3.106024,-0.0241 2.938126,-0.1058 6.87612,-0.18272 7.692441,-0.15016 0.234033,0.009 0.404857,0.10014 0.404857,0.21516 0,0.25118 -1.598471,0.38759 -4.563928,0.3895 -1.174105,5.5e-4 -3.169813,0.0443 -4.434892,0.0968 l -2.300148,0.0954 0.01284,4.11254 0.01284,4.11253 1.183247,-0.0969 c 0.650791,-0.0533 2.011387,-0.18765 3.023539,-0.29855 3.276091,-0.35895 5.859803,-0.55566 6.097989,-0.46427 0.127885,0.0491 0.232635,0.19073 0.232635,0.31474 0,0.18023 -0.199354,0.22538 -0.99375,0.22508 -0.89334,-3.5e-4 -8.09208,0.63799 -9.275109,0.82246 -0.474533,0.0739 -0.478501,0.0815 -0.482841,0.91447 -0.0026,0.46192 -0.09977,1.8005 -0.21646,2.9746 -0.116717,1.17411 -0.214058,2.68978 -0.216472,3.36815 l -0.0039,1.23338 2.686844,-0.0942 c 1.477749,-0.0517 3.71371,-0.13 4.968798,-0.17371 1.486429,-0.0517 2.358954,-0.0254 2.502802,0.0754 0.179705,0.1261 0.184556,0.17834 0.02609,0.28064 -0.107126,0.0693 -2.227124,0.1713 -4.711157,0.22699 -2.484021,0.0557 -4.731717,0.13897 -4.994877,0.18509 l -0.478476,0.0838 v 3.96944 c 0,3.70095 -0.01746,3.96613 -0.257651,3.92046 -0.336323,-0.0639 -0.435872,-1.14876 -0.460191,-5.015 -0.014,-2.21907 -0.06189,-2.90734 -0.20231,-2.90626 -0.101176,5.6e-4 -1.045292,0.0961 -2.097942,0.21188 -1.05265,0.1157 -2.619548,0.25623 -3.481997,0.31216 -0.862448,0.0558 -1.627362,0.14277 -1.699794,0.19297 -0.07589,0.0526 -0.09026,1.61886 -0.03377,3.69829 0.0538,1.98384 0.0651,3.69305 0.02503,3.79823 -0.04006,0.10513 -0.180481,0.17066 -0.312004,0.14548 -0.210655,-0.0403 -0.248264,-0.48685 -0.316022,-3.75246 -0.04224,-2.03867 -0.116588,-3.7463 -0.164945,-3.79472 -0.04841,-0.0484 -1.519582,0.0468 -3.269248,0.21187 -1.749652,0.16494 -3.206061,0.2999 -3.23644,0.2999 -0.03043,0 -0.09849,1.1097 -0.151489,2.46599 -0.109013,2.7928 -0.194272,3.42297 -0.463119,3.42297 -0.310001,0 -0.366279,-0.38589 -0.220235,-1.5102 0.07614,-0.58643 0.140536,-1.81682 0.14304,-2.73421 l 0.0039,-1.66798 -0.920153,0.0819 c -0.506056,0.0451 -1.715125,0.11903 -2.686806,0.16441 -0.971679,0.0455 -2.107943,0.12006 -2.525057,0.16581 l -0.758365,0.0834 0.02221,3.00295 c 0.01284,1.65164 -0.02209,3.00296 -0.07614,3.00295 -0.05406,0 -0.201808,0.0396 -0.32822,0.0883 -0.203029,0.0779 -0.2345,-0.26999 -0.269682,-2.98129 l -0.03981,-3.06948 -1.619466,0.0446 c -0.89071,0.0247 -2.911341,0.10646 -4.490322,0.18199 -1.578982,0.0755 -3.129303,0.13822 -3.445159,0.13934 l -0.574289,0.002 0.09257,1.43543 c 0.09219,1.43093 0.526318,5.38143 0.632198,5.7537 0.04546,0.15977 0.797593,0.18007 4.067611,0.10979 6.548332,-0.14066 13.094134,-0.36703 16.157824,-0.55876 1.690421,-0.1058 6.684617,-0.18538 12.145964,-0.19353 5.101309,-0.008 10.016377,-0.0691 10.922372,-0.13654 1.24116,-0.0925 1.759749,-0.0762 2.103495,0.0663 0.744318,0.3083 0.450905,0.51577 -0.74494,0.5267 -0.600559,0.006 -2.008369,0.10102 -3.128481,0.21232 -1.656086,0.16457 -2.439991,0.16937 -4.195884,0.0259 -2.610548,-0.21351 -10.725123,-0.23048 -14.378882,-0.0301 -6.469506,0.35484 -10.129262,0.46057 -18.402965,0.53165 -11.119624,0.0956 -15.007884,0.38278 -22.009962,1.62602 -2.498516,0.44364 -4.745533,0.4243 -5.714106,-0.0492 l -0.542894,-0.26537 -0.02953,-1.69307 c -0.06445,-3.69149 -0.721104,-12.43642 -1.298989,-17.2988 -0.202092,-1.70044 -0.481454,-4.05233 -0.620809,-5.22644 -0.209938,-1.76882 -0.253991,-3.51014 -0.256971,-10.15844 -0.0026,-4.41302 -0.02747,-15.26489 -0.05675,-24.11525 -0.02927,-8.85035 -0.009,-16.13601 0.04558,-16.19035 0.472775,-0.47277 0.573968,2.26956 0.586847,15.90325 l 0.01156,11.8883 3.86462,2e-5 3.864622,1e-5 v -1.30127 c 0,-0.71571 -0.04339,-2.69293 -0.0963,-4.39384 l -0.0963,-3.09257 -3.370287,-0.0949 c -3.059812,-0.0861 -3.945335,-0.20024 -3.945591,-0.50806 -5.1e-5,-0.058 1.637185,-0.10535 3.6383,-0.10535 h 3.638403 l 0.02286,-0.51528 c 0.01284,-0.2834 0.07538,-2.09277 0.13965,-4.02082 l 0.116846,-3.50555 -3.661092,0.0284 c -2.543984,0.0196 -3.677476,-0.0208 -3.714802,-0.13282 -0.08385,-0.25143 0.397763,-0.297 3.916418,-0.37059 1.807691,-0.0378 3.306318,-0.0914 3.330278,-0.11916 0.02401,-0.0277 -0.01336,-0.97788 -0.08295,-2.1115 -0.06959,-1.13362 -0.192358,-3.1874 -0.272737,-4.56393 -0.08038,-1.37655 -0.188212,-2.685 -0.239598,-2.90767 -0.099,-0.4291 0.138751,-0.57448 0.290946,-0.17789 0.129621,0.33779 0.394103,2.72402 0.358317,3.23278 -0.03287,0.46761 0.306007,5.67918 0.402411,6.1885 0.06408,0.33824 -0.191678,0.33734 4.900039,0.0173 l 2.698271,-0.16961 -0.01682,-3.14813 c -0.0158,-2.96134 -0.159423,-5.33846 -0.391561,-6.48 l -0.101697,-0.50026 -2.997525,0.10213 c -1.648638,0.0561 -3.543116,0.16607 -4.209932,0.24428 -4.0573,0.47584 -5.173624,0.57784 -6.33711,0.57912 -0.827446,0.001 -1.263961,-0.0518 -1.20591,-0.14581 0.05008,-0.081 0.534279,-0.14901 1.076057,-0.15121 1.025031,-0.003 2.31281,-0.12275 5.54902,-0.51083 1.185032,-0.14212 4.319535,-0.28286 8.230753,-0.36955 3.474268,-0.077 7.747437,-0.23757 9.495933,-0.35681 7.443087,-0.50756 9.129822,-0.55258 22.612615,-0.60356 13.513621,-0.0511 16.186008,-0.11107 23.084454,-0.51773 2.873112,-0.16939 3.233255,-0.16518 3.438581,0.0402 0.207635,0.20764 0.0363,0.2383 -1.810625,0.32399 z m -19.074421,0.57001 -9.157993,0.0333 -0.02067,1.32322 c -0.01156,0.72778 -0.07358,2.9532 -0.138044,4.94539 -0.071,2.1911 -0.06369,3.65533 0.01849,3.70612 0.174036,0.10757 9.128538,-0.0859 9.242109,-0.19966 0.165189,-0.1655 0.516162,-4.06979 0.611037,-6.79735 0.08962,-2.57572 0.114664,-2.76046 0.37451,-2.76046 0.153171,0 0.277027,0.0497 0.275228,0.11046 -0.02517,0.8539 -0.462386,7.8654 -0.533907,8.56222 l -0.09681,0.9434 1.089925,-0.0991 c 0.599469,-0.0546 2.494871,-0.14149 4.212037,-0.19327 2.682183,-0.0809 3.130959,-0.12725 3.18503,-0.32898 0.03467,-0.12916 0.07062,-2.26964 0.07999,-4.75664 l 0.01707,-4.52179 z m 6.507962,10.0997 c -3.380689,0.0205 -5.86363,0.17213 -6.010676,0.3669 -0.06779,0.0897 -0.198753,0.59384 -0.291047,1.12015 -0.183717,1.0476 -0.725958,5.94233 -0.795231,7.17849 l -0.04339,0.77426 1.325015,0.0645 c 1.515807,0.0738 7.525597,-0.1089 7.649235,-0.23254 0.04507,-0.0451 0.151155,-1.30168 0.23563,-2.79239 0.08449,-1.49069 0.207138,-3.43913 0.272584,-4.32982 0.06549,-0.89071 0.111838,-1.74207 0.102974,-1.89191 -0.0149,-0.25409 -0.17957,-0.27143 -2.445141,-0.25765 z m -2.686831,9.96639 c -2.449442,0.0548 -4.460932,0.10735 -4.469983,0.11647 -0.009,0.009 -0.05663,1.89186 -0.105672,4.1837 l -0.08911,4.16696 4.080644,-0.10135 c 2.244359,-0.0557 4.105747,-0.12301 4.136396,-0.14951 0.03068,-0.0266 0.178685,-1.39234 0.328927,-3.03512 0.150256,-1.64279 0.33242,-3.38439 0.404787,-3.87023 0.07242,-0.48583 0.139675,-1.00203 0.149548,-1.14709 0.01707,-0.25014 -0.211798,-0.2586 -4.435558,-0.16395 z m -0.294439,8.8174 c -2.125535,0.0508 -4.013681,0.12313 -4.195884,0.16054 -0.28708,0.0589 -0.331378,0.16083 -0.332213,0.76448 -5.26e-4,0.38307 -0.135412,1.59088 -0.299741,2.68402 -0.164329,1.09313 -0.351821,2.36944 -0.416638,2.83625 l -0.117873,0.84872 4.282234,-0.0391 4.282223,-0.0391 0.187171,-1.47223 c 0.194066,-1.5265 0.4185,-4.09386 0.454581,-5.20016 l 0.0208,-0.63621 z m -1.069572,7.77545 c -2.308945,-0.006 -4.231632,0.0455 -4.272643,0.11171 -0.167757,0.27143 -0.642059,5.25157 -0.740878,7.77911 l -0.105927,2.70854 1.383014,-0.0916 c 0.760665,-0.0503 2.58845,-0.13537 4.06177,-0.18895 l 2.678729,-0.0975 0.07999,-0.75292 c 0.04392,-0.41409 0.153967,-1.5148 0.244439,-2.44599 0.09052,-0.93119 0.317576,-2.71996 0.504644,-3.97505 0.187069,-1.25507 0.345709,-2.45221 0.35254,-2.66029 l 0.01284,-0.37834 z m 3.020957,11.88099 -5.13e-4,-1.10419 -1.361893,0.0366 c -0.749043,0.0202 -2.570973,0.077 -4.048736,0.12634 l -2.68683,0.0897 v 4.29335 4.29335 l 1.582653,-0.10313 c 2.501907,-0.16292 5.821552,-0.43369 6.177225,-0.50387 0.295119,-0.0582 0.330673,-0.16919 0.385616,-1.20385 0.03326,-0.62686 0.03633,-1.96786 0.0064,-2.98003 -0.02953,-1.01216 -0.05393,-2.33717 -0.05432,-2.94448 z m -0.232163,7.65564 c -0.04635,0 -1.255434,0.096 -2.68683,0.21345 -1.43141,0.11736 -3.186763,0.25621 -3.900779,0.30849 -0.772183,0.0565 -1.321202,0.16392 -1.354921,0.26501 -0.0312,0.0935 -0.0764,2.01511 -0.10041,4.27026 l -0.04378,4.10026 1.343427,-0.1008 c 0.738875,-0.0555 2.461397,-0.21134 3.827822,-0.34645 l 2.484392,-0.24568 0.104262,-2.06074 c 0.05739,-1.13341 0.164675,-2.55761 0.238544,-3.16491 0.156881,-1.28972 0.209989,-3.23892 0.08821,-3.23892 z m -3.812669,5.63129 c -0.709073,0.5156 -1.574795,0.26601 -1.837416,-0.52974 -0.426114,-1.29114 0.95807,-2.13939 1.819838,-1.11522 0.49703,0.59069 0.504516,1.2909 0.0176,1.64496 z M 66.184355,123.871 c -1.639714,0.0532 -3.735718,0.0968 -4.657796,0.0969 l -1.676515,3.7e-4 0.11646,1.28822 c 0.06408,0.70851 0.155969,2.74572 0.204287,4.52713 l 0.08783,3.23891 3.606983,0.0415 c 1.983844,0.0229 3.746401,0.008 3.91679,-0.0342 0.268796,-0.0656 0.32126,-0.21736 0.396273,-1.14565 0.159205,-1.96993 0.700996,-6.6586 0.829642,-7.17973 0.24716,-1.00114 0.455248,-0.93973 -2.823925,-0.83348 z m -2.087349,9.66692 h -3.890827 l -0.08719,0.77293 c -0.105927,0.93924 -0.373842,6.05784 -0.374895,7.16368 l -5.65e-4,0.79626 3.825382,-0.10069 c 2.103952,-0.0553 3.922594,-0.13792 4.041404,-0.18352 0.27469,-0.10546 0.316087,-0.69907 0.350511,-5.02575 l 0.02722,-3.42296 z m 0.320658,9.07019 c -1.882626,0.0507 -3.687953,0.10102 -4.011846,0.11171 l -0.588889,0.0195 -0.168283,2.13474 c -0.09258,1.1741 -0.216691,2.731 -0.275871,3.45975 l -0.107603,1.32502 3.220353,-0.0141 c 1.771185,-0.008 3.48676,-0.0244 3.812361,-0.0367 l 0.592021,-0.0226 0.402886,-2.90767 c 0.221583,-1.59922 0.426461,-3.07329 0.4553,-3.27573 0.138084,-0.96938 0.447749,-0.89558 -3.330431,-0.79381 z m -1.408515,7.56609 h -3.800921 l -0.185797,2.24516 c -0.102208,1.23484 -0.275473,3.0733 -0.385051,4.08545 -0.109524,1.01217 -0.220273,2.40288 -0.245979,3.0905 l -0.04673,1.25017 2.723643,-0.04 c 1.497999,-0.022 3.232192,-0.0793 3.853758,-0.12724 l 1.130115,-0.0874 0.07909,-1.04931 c 0.04353,-0.57711 0.116717,-2.04306 0.162532,-3.25766 0.04584,-1.21459 0.173124,-2.87085 0.282792,-3.6806 0.109656,-0.80973 0.207047,-1.68754 0.216395,-1.95071 l 0.01707,-0.47847 z m 0.598789,11.04255 c -1.356294,4.1e-4 -3.104393,0.043 -3.884665,0.0948 l -1.418659,0.094 0.07062,4.35881 c 0.03891,2.39734 0.09412,4.38292 0.122753,4.41238 0.05277,0.0543 4.553303,-0.20165 6.508643,-0.37024 l 1.067364,-0.092 v -4.24919 -4.24917 z m -1.299451,5.54475 c -0.29779,0.2978 -0.469064,0.3578 -0.820641,0.28748 -1.01879,-0.20376 -1.66103,-1.04148 -1.306423,-1.70407 0.382277,-0.71431 1.45655,-0.65558 2.014866,0.11012 0.501729,0.68811 0.519834,0.8988 0.112223,1.30645 z m 0.04815,3.7544 c -1.963646,0.1351 -3.66285,0.25102 -3.776023,0.25763 -0.234872,0.0138 -0.170158,1.46017 0.211156,4.71986 0.118516,1.01299 0.215433,2.29841 0.215433,2.85652 v 1.01472 l 1.361828,-0.0826 c 0.749005,-0.0454 2.269448,-0.16398 3.378775,-0.26346 l 2.016972,-0.18089 0.05522,-0.60314 c 0.03043,-0.33171 0.06689,-2.25937 0.08102,-4.2837 l 0.02581,-3.6806 z m 0.126348,4.98912 c -0.261002,0.80467 -1.260942,0.79169 -1.543902,-0.02 -0.364019,-1.04421 0.711512,-2.10194 1.319417,-1.29758 0.370542,0.49029 0.412657,0.7375 0.224485,1.3176 z m -2.935737,-49.4755 -0.172008,-1.98754 -2.870855,0.0398 c -1.578982,0.022 -3.489085,0.0781 -4.244677,0.12506 l -1.373821,0.0853 0.0895,1.27356 c 0.04918,0.70047 0.200255,2.64531 0.335551,4.32185 l 0.246019,3.04829 3.982737,0.0434 c 2.190494,0.0239 4.032416,0.0229 4.093137,-0.002 0.166666,-0.0687 0.109657,-4.69055 -0.08564,-6.94763 z m -5.840107,-12.5406 c -3.785833,0.0299 -7.655578,0.15454 -10.60011,0.34151 -2.550649,0.16196 -6.102638,0.33189 -7.893314,0.37761 l -3.255766,0.083 0.128517,0.53231 c 0.102463,0.42457 0.394026,6.72485 0.415649,8.98302 l 0.0051,0.50064 2.466005,-0.0981 c 1.356294,-0.054 3.19475,-0.13883 4.085459,-0.18866 l 1.619453,-0.0907 -0.09695,-1.56337 c -0.05329,-0.85986 -0.146724,-3.04651 -0.207599,-4.85922 -0.09425,-2.80536 -0.07974,-3.28561 0.09695,-3.22695 0.165355,0.0548 0.229903,0.71061 0.317177,3.22224 0.06022,1.73433 0.159642,3.88209 0.220838,4.7728 l 0.111197,1.61946 4.563934,-0.0553 c 2.510164,-0.0304 4.616785,-0.086 4.681371,-0.1234 0.06459,-0.0375 0.106449,-2.17593 0.09296,-4.75214 -0.01335,-2.57622 0.02401,-4.7624 0.0832,-4.85819 0.08038,-0.13014 0.149935,-0.13182 0.275049,-0.007 0.119286,0.11928 0.159399,1.51995 0.139573,4.87121 l -0.02786,4.70373 h 1.145087 c 0.629785,0 2.547027,-0.0436 4.260522,-0.097 l 3.115436,-0.097 0.01926,-2.58981 c 0.01032,-1.42438 0.06728,-3.08668 0.125963,-3.69398 0.05868,-0.60731 0.09976,-1.70045 0.09116,-2.4292 l -0.01554,-1.32502 z m 1.877105,20.04907 -4.011847,1e-4 -0.009,3.93814 c -0.0051,2.16598 -0.05573,4.12034 -0.11325,4.34302 l -0.104517,0.40487 h 3.977845 3.977845 l 0.01643,-1.72989 c 0.009,-0.95142 0.06459,-2.35925 0.123394,-3.12849 0.0588,-0.76926 0.117617,-1.9452 0.130751,-2.61322 l 0.02388,-1.2146 z m -0.20864,9.20141 c -2.118821,0 -3.895797,0.0434 -3.948827,0.0965 -0.116846,0.11697 -0.482303,4.00861 -0.530055,5.64525 l -0.03441,1.17778 3.90521,0.0392 3.905208,0.0392 0.188328,-1.87947 c 0.280659,-2.8008 0.405312,-4.33872 0.385037,-4.75034 l -0.01811,-0.36806 z m -0.618268,7.46064 -3.955413,-0.003 0.071,5.39961 c 0.03903,2.96979 0.113764,5.44668 0.165946,5.50422 0.05213,0.0575 1.584888,0.0244 3.405931,-0.0736 l 3.310992,-0.17822 0.033,-0.95696 c 0.01811,-0.52631 0.139843,-1.98383 0.270389,-3.23891 0.130533,-1.25508 0.322609,-3.17636 0.42682,-4.2695 0.104262,-1.09313 0.197867,-2.03045 0.2081,-2.08296 0.01032,-0.0525 -1.761311,-0.0974 -3.936795,-0.0995 z m 3.390421,24.56053 c -0.08359,-0.68828 -0.196518,-1.86422 -0.250845,-2.61322 -0.05432,-0.749 -0.141422,-1.36101 -0.193554,-1.36 -0.05213,0.001 -1.187933,0.0995 -2.523978,0.21901 -1.336058,0.11942 -2.777021,0.21803 -3.20212,0.21903 l -0.772926,0.001 0.0039,0.99375 c 0.0039,1.07404 0.223406,4.87798 0.382097,6.62914 l 0.0981,1.0822 0.898991,-0.0809 c 0.494437,-0.0445 1.992114,-0.15725 3.328172,-0.25049 1.336057,-0.0933 2.462757,-0.2211 2.503781,-0.28411 0.09386,-0.1442 -0.07036,-2.90117 -0.271518,-4.5562 z m -2.232268,-13.29209 c -1.012165,0.0174 -2.526226,0.0739 -3.364573,0.12557 l -1.524283,0.094 0.106316,4.51191 c 0.05842,2.48157 0.124806,4.53278 0.147457,4.55827 0.05149,0.0581 6.112921,-0.41248 6.367157,-0.4942 0.145813,-0.0469 0.177758,-1.01127 0.147225,-4.44354 l -0.03903,-4.3837 z m -5.520887,-27.97495 c -0.680208,-0.15133 -8.920462,-0.001 -9.087244,0.1657 -0.06124,0.0613 -0.0683,2.07043 -0.0158,4.46499 l 0.0954,4.35373 4.430243,-0.0613 c 2.436628,-0.0337 4.576147,-0.0913 4.754496,-0.12802 0.402321,-0.0827 0.435423,-0.4976 0.421607,-5.28454 l -0.01032,-3.37963 z m 0.275255,40.93579 -0.0981,-3.0549 -0.45666,-0.003 c -0.548417,-0.003 -9.716553,0.47975 -9.767066,0.51528 -0.01939,0.0137 0.06279,1.41125 0.182805,3.10575 0.119927,1.69452 0.218655,3.6029 0.219349,4.24087 l 0.0011,1.15995 1.43544,-0.0892 c 0.789478,-0.0491 2.462308,-0.12519 3.717395,-0.16916 1.255076,-0.044 2.902906,-0.11851 3.661824,-0.16564 l 1.379868,-0.0858 -0.08899,-1.19951 c -0.04892,-0.65973 -0.133153,-2.5742 -0.187094,-4.25439 z m -0.05072,-46.26507 c -0.07716,-0.80973 -0.142757,-2.02935 -0.145659,-2.71025 l -0.0051,-1.23801 -3.115436,0.097 c -1.713508,0.0534 -3.81082,0.097 -4.660711,0.097 h -1.545251 l 0.0877,4.28494 c 0.04815,2.35671 0.108369,4.29453 0.133563,4.30629 0.0253,0.0115 2.192511,0.002 4.816168,-0.0195 l 4.770264,-0.0409 -0.09746,-1.65221 c -0.05354,-0.90872 -0.160655,-2.31473 -0.237877,-3.12444 z m -2.469691,14.66672 c -1.437264,0.01 -3.540727,0.0596 -4.674347,0.11046 l -2.06113,0.0925 -0.09489,2.35558 c -0.05213,1.29557 -0.13816,2.84012 -0.191023,3.43233 l -0.09617,1.07674 4.534119,-0.10424 c 2.493767,-0.0573 4.573887,-0.16535 4.6225,-0.24006 0.04867,-0.0747 0.103229,-0.5786 0.121467,-1.11973 0.01824,-0.54117 0.119286,-1.8783 0.224549,-2.97144 0.105294,-1.09314 0.19969,-2.13657 0.209757,-2.31878 l 0.01836,-0.33125 z m 2.226703,19.05247 c -0.07704,-0.20066 -0.251885,-0.22637 -1.067378,-0.15692 -0.53641,0.0457 -2.661163,0.15027 -4.721663,0.23239 -2.060513,0.082 -3.761514,0.16443 -3.780004,0.18292 -0.05637,0.0564 -0.497312,7.49975 -0.497312,8.39499 v 0.8376 l 0.478475,0.002 c 0.685113,0.003 8.307294,-0.44736 9.054258,-0.53549 l 0.625701,-0.0738 v -4.32203 c 0,-2.37712 -0.04147,-4.43003 -0.09206,-4.56201 z m -0.250935,-11.65965 c -0.03775,-0.0377 -2.084845,-0.0214 -4.549014,0.0362 l -4.480307,0.10491 -0.199293,3.10673 c -0.207985,3.24247 -0.28328,7.94862 -0.129647,8.10291 0.08577,0.0861 5.126077,-0.10324 8.141411,-0.30588 l 1.458219,-0.098 -0.08629,-5.43913 c -0.04751,-2.99152 -0.117231,-5.47004 -0.155045,-5.50784 z m -9.591554,34.10632 c -0.119928,-1.09313 -0.219336,-2.3121 -0.220941,-2.70879 l -0.0026,-0.7213 -2.760444,0.0978 c -1.518247,0.0538 -3.200951,0.13783 -3.739339,0.18677 l -0.97891,0.089 0.06857,1.49148 c 0.05739,1.2495 0.212119,2.99573 0.379504,4.2831 0.02247,0.17296 -0.06202,0.30945 -0.210695,0.34023 -0.35937,0.0745 -0.541816,-0.73526 -0.638964,-2.83575 -0.04494,-0.97258 -0.11492,-2.09996 -0.155483,-2.50527 l -0.0737,-0.73694 -1.20849,0.0421 c -1.662199,0.0581 -5.44784,0.45801 -5.571388,0.58867 -0.05559,0.0588 -0.04392,0.46023 0.02607,0.89206 0.099,0.61183 0.194362,3.72268 0.148497,4.84616 -0.0131,0.32132 -0.440726,0.19806 -0.510743,-0.14723 -0.03698,-0.1822 -0.101697,-1.48242 -0.144016,-2.88939 -0.04224,-1.40698 -0.109401,-2.59067 -0.149138,-2.63042 -0.03981,-0.0399 -0.699713,10e-4 -1.46654,0.0921 -1.715767,0.20236 -4.803815,0.21772 -4.803815,0.0239 0,-0.18909 0.601485,-0.26869 2.870869,-0.3799 1.05265,-0.0516 2.212027,-0.13851 2.576419,-0.19317 0.767867,-0.11517 0.723298,0.1569 0.461822,-2.81975 -0.09605,-1.09314 -0.193451,-2.88191 -0.216499,-3.97505 l -0.04186,-1.98751 -0.359357,0.0115 c -0.197637,0.007 -1.290605,0.0895 -2.428809,0.18403 -1.138203,0.0945 -2.479782,0.17184 -2.981281,0.17184 -0.632275,0 -0.911266,0.0564 -0.910008,0.18404 0.0011,0.10113 0.0981,1.27716 0.215702,2.61321 0.434164,4.93091 0.540327,6.48196 0.680131,9.93762 0.07858,1.94333 0.145453,3.64063 0.148535,3.77174 0.0039,0.1761 0.204774,0.26232 0.767906,0.32998 1.093469,0.13136 2.727226,0.10891 3.412351,-0.0469 0.913348,-0.20782 6.261329,-1.00704 8.391757,-1.25411 2.977879,-0.34535 5.534498,-0.51862 7.652483,-0.51862 1.067879,0 1.992742,-0.0497 2.055248,-0.11046 0.06253,-0.0607 0.07358,-0.4748 0.02466,-0.92014 -0.04892,-0.44536 -0.187107,-1.70411 -0.307021,-2.79726 z m -1.916947,-41.25699 c -1.21459,0.0215 -3.179739,0.0795 -4.36698,0.12865 l -2.158625,0.0894 -0.08281,1.49082 c -0.04546,0.81995 -0.122752,2.44518 -0.17166,3.61161 l -0.08885,2.12082 2.183059,-0.0997 c 1.762596,-0.0804 6.529059,-0.50357 6.622792,-0.58793 0.0877,-0.0789 0.303028,-3.98969 0.288852,-5.24716 l -0.01746,-1.54585 z m -0.251372,-9.40804 c -1.319263,0.0294 -3.249385,0.0957 -4.289181,0.14723 l -1.890535,0.0937 0.0064,4.41671 0.0064,4.41671 0.779823,-0.008 c 0.428912,-0.003 2.395128,-0.0646 4.369393,-0.13357 l 3.589546,-0.12532 -0.08667,-4.43036 -0.08667,-4.43038 z m 2.261885,-9.1341 c -0.09695,-0.10025 -6.344584,0.11312 -7.467354,0.25499 l -0.598454,0.0756 -0.19277,2.01939 c -0.10606,1.11067 -0.224729,3.02971 -0.263801,4.26454 l -0.071,2.24516 0.420606,5.2e-4 c 1.060277,0.001 8.098564,-0.32311 8.278878,-0.38155 0.169041,-0.0548 0.185066,-0.75478 0.09656,-4.22222 -0.05829,-2.28611 -0.14951,-4.20152 -0.202643,-4.25646 z m -0.627409,25.89488 c -0.27487,0.017 -1.294763,0.10179 -2.266444,0.18867 -0.971679,0.0868 -2.643418,0.20988 -3.714981,0.27347 -1.071564,0.0636 -1.986952,0.15429 -2.034178,0.20151 -0.136235,0.13624 -0.141601,5.68715 -0.0077,8.40779 l 0.121468,2.4772 2.523439,-0.0882 c 1.387895,-0.0485 3.19276,-0.12559 4.010807,-0.17112 l 1.487367,-0.0828 0.109013,-3.99917 c 0.05996,-2.19953 0.153234,-4.62854 0.207291,-5.39779 0.134206,-1.90975 0.149652,-1.84556 -0.43568,-1.80947 z m -0.139894,23.21493 c -0.08295,-0.87507 -0.182805,-1.6231 -0.221967,-1.66226 -0.09437,-0.0944 -7.433636,0.23832 -7.536948,0.34164 -0.195414,0.19541 0.537605,8.21565 0.772337,8.45039 0.03543,0.0354 1.699922,-0.0234 3.698764,-0.13087 l 3.634255,-0.19539 -0.09785,-2.60624 c -0.0538,-1.43342 -0.165689,-3.3222 -0.248598,-4.19727 z m -2.16335,-11.44674 c -1.356306,0.0462 -3.161634,0.1266 -4.011859,0.17871 l -1.54584,0.0946 -0.03891,4.69599 -0.03891,4.69599 1.879185,-0.11466 c 1.03357,-0.0631 2.740465,-0.15561 3.793114,-0.20567 l 1.913917,-0.091 0.237274,-3.45977 c 0.130494,-1.90287 0.246428,-4.00392 0.257638,-4.66902 l 0.02041,-1.20927 z m -5.697734,16.82483 c -0.117488,-0.84407 -0.290201,-2.69406 -0.38378,-4.11108 -0.09361,-1.41704 -0.187582,-2.59544 -0.208935,-2.61868 -0.05059,-0.0551 -5.255584,0.24607 -6.097552,0.35275 l -0.646901,0.0819 0.101442,2.38017 c 0.09515,2.23253 0.278324,4.45368 0.472955,5.73527 l 0.08475,0.55783 0.832634,-0.0755 c 0.457944,-0.0415 1.925755,-0.1496 3.261813,-0.24022 1.336058,-0.0907 2.512012,-0.18965 2.613219,-0.22009 0.227129,-0.0683 0.228401,0.01 -0.02953,-1.84245 z m -0.412055,-54.16406 c -0.182188,10e-4 -1.72252,0.10002 -3.422957,0.2186 -1.700436,0.11852 -3.240756,0.21651 -3.422945,0.21773 -0.324355,0.002 -0.331352,0.0384 -0.33577,1.73212 -0.0026,0.95143 -0.06318,2.5362 -0.134783,3.52169 -0.07165,0.9855 -0.09399,2.06207 -0.04969,2.39238 l 0.08051,0.60058 h 2.978162 c 1.637982,0 3.285517,-0.0421 3.661194,-0.0936 l 0.683058,-0.0936 0.01464,-2.29877 c 0.0077,-1.26432 0.06497,-2.66314 0.126476,-3.10849 0.06163,-0.44535 0.12121,-1.32318 0.132664,-1.95072 0.0199,-1.09208 0.0064,-1.14085 -0.310526,-1.13788 z m 0.0868,11.56646 -0.0972,-2.4637 -3.315641,0.0364 c -1.823599,0.02 -3.476025,0.0672 -3.672044,0.10468 l -0.356391,0.0682 0.106193,4.35989 c 0.05829,2.39791 0.126733,4.38282 0.151887,4.41088 0.02517,0.028 1.637288,0.002 3.582471,-0.0565 l 3.536683,-0.10757 0.05342,-0.75318 c 0.103618,-1.46101 0.106826,-3.16193 0.01032,-5.59906 z m -3.252183,26.20581 c -1.680187,0.0438 -3.187392,0.1059 -3.349332,0.13775 -0.286696,0.0564 -0.294926,0.18266 -0.312542,4.79259 l -0.01811,4.7347 0.975044,-0.0881 c 0.536269,-0.0484 1.968795,-0.12763 3.183398,-0.17598 1.21459,-0.0484 2.291161,-0.11376 2.39238,-0.14531 0.142128,-0.0443 0.184039,-1.114 0.184039,-4.69648 v -4.63908 z m 2.834223,-11.53667 c -0.01785,-0.0224 -1.545327,0.12661 -3.394298,0.33126 -1.848946,0.20459 -3.381998,0.37198 -3.406754,0.37198 -0.117358,0 -0.02915,5.23562 0.129494,7.69244 l 0.178337,2.76045 h 1.567142 c 0.861935,0 2.372477,-0.0433 3.356767,-0.0961 l 1.789598,-0.0962 -0.09386,-5.46147 c -0.05162,-3.00382 -0.108502,-5.4798 -0.126476,-5.5022 z m -2.171568,-7.72564 c -1.315886,0.02 -2.922538,0.0748 -3.570311,0.12173 l -1.17779,0.0853 -0.03633,3.41168 c -0.02003,1.87643 0.0131,3.61278 0.07358,3.85855 l 0.109912,0.44687 2.281967,-0.24548 c 1.255089,-0.135 2.793674,-0.2919 3.419081,-0.34863 l 1.137125,-0.10324 0.04494,-2.15935 c 0.02465,-1.18764 0.05958,-2.82186 0.07755,-3.63158 l 0.03261,-1.47224 z m -5.791442,19.47067 c -0.845448,0 -6.868694,0.42865 -6.926962,0.49296 -0.01156,0.0129 0.169375,1.67859 0.401075,3.70291 0.231702,2.02432 0.465623,4.12779 0.519822,4.67436 l 0.09861,0.99376 0.825391,-5.2e-4 c 1.126944,-5.6e-4 5.481096,-0.28195 5.770822,-0.37274 0.206855,-0.0648 0.238198,-0.62431 0.26782,-4.78209 l 0.03351,-4.70864 z m 0.656531,-5.35529 c -0.08603,-1.21298 -0.107858,-2.94715 -0.04918,-3.88719 l 0.10606,-1.6972 -1.380883,0.11439 c -0.759483,0.063 -2.474018,0.189 -3.810076,0.28022 l -2.429193,0.16581 -0.124036,1.98752 c -0.06818,1.09315 -0.07716,3.40424 -0.01991,5.13579 l 0.104262,3.14825 1.124015,-0.089 c 0.618203,-0.0489 2.316521,-0.12941 3.774034,-0.17878 1.457526,-0.0493 2.733376,-0.1157 2.835237,-0.14742 0.196095,-0.0609 0.188891,-0.328 -0.13034,-4.83236 z m -3.901634,-13.93102 h -3.92791 l 0.09579,1.87711 c 0.05264,1.03239 0.09605,2.88741 0.0963,4.12225 l 5.65e-4,2.24516 1.582653,-0.002 c 1.912466,-0.003 5.799942,-0.38085 5.915966,-0.57422 0.04584,-0.0764 0.101697,-1.83287 0.123908,-3.9032 l 0.04058,-3.7642 z"
       id="path106" /><path
       style="fill:#000000;stroke-width:0.556437"
       d="m 90.869197,114.39884 c -0.365527,1.76944 -0.502936,3.43389 -0.723227,8.75981 -0.203905,4.92989 -0.491002,8.86359 -1.042272,14.2807 -0.123655,1.21459 -0.28612,3.78226 -0.36113,5.70594 -0.274764,7.04546 -0.443634,10.84266 -0.597362,13.43314 -0.335576,5.65478 -0.364139,7.12912 -0.260854,13.47097 0.114286,7.01716 0.0078,16.79195 -0.185556,17.10551 -0.09625,0.15588 -0.152751,0.15604 -0.308089,5.6e-4 -0.144558,-0.14447 -0.187065,-0.95627 -0.177251,-3.38491 0.0078,-1.75719 0.0078,-5.8449 0,-9.08382 -0.02698,-12.26715 -0.0067,-13.81027 0.24458,-18.25574 0.413638,-7.33168 0.552247,-10.41074 0.552247,-12.2677 0,-0.95771 0.267858,-4.68434 0.595241,-8.2814 0.327383,-3.59704 0.658108,-8.06384 0.734949,-9.92622 0.254538,-6.17055 0.439183,-8.81174 0.758606,-10.85211 0.173821,-1.11029 0.364516,-2.09714 0.423774,-2.19302 0.153784,-0.24884 0.582487,-0.0436 0.561572,0.26884 -0.01,0.14425 -0.10646,0.6929 -0.215228,1.21922 z"
       id="path102" /><path
       style="fill:#000000;stroke-width:0.556437"
       d="m 112.44167,204.79836 c -0.352,0.18839 -1.35453,0.22841 -1.61945,0.0647 -0.13547,-0.0837 -0.15722,-0.0129 -0.0845,0.27739 0.33499,1.33475 0.16928,3.33438 -0.27632,3.33438 -0.29891,0 -0.39428,-0.47655 -0.23618,-1.18021 0.15754,-0.70116 -0.0129,-2.07765 -0.35867,-2.90663 -0.27152,-0.64981 -0.27158,-0.91875 -2.4e-4,-0.91875 0.11775,0 0.37978,-0.16564 0.58221,-0.36807 0.64201,-0.64202 1.59935,-0.40358 2.07537,0.51692 0.30333,0.58658 0.2753,0.98897 -0.0821,1.18031 z m -1.08501,-1.18194 c -0.31966,0 -0.67392,0.24766 -0.67392,0.47112 0,0.13892 0.75572,0.15751 1.0959,0.027 0.32701,-0.12545 0.0115,-0.49808 -0.42198,-0.49808 z"
       id="path92" /><g
       id="g195"
       transform="matrix(0.5564363,0,0,0.5564363,-145.25782,87.827089)"><path
         style="fill:#000000"
         d="m 421.9114,209.67841 c -0.0989,0.21829 -0.40597,0.73052 -0.68235,1.1383 -0.71241,1.05113 -1.90413,0.91253 -2.73019,-0.31753 -0.74619,-1.1111 -0.75728,-1.61257 -0.0554,-2.50488 0.4261,-0.54171 0.78004,-0.69714 1.5875,-0.69714 1.58729,0 2.45916,1.10409 1.88043,2.38125 z"
         id="path108" /><path
         style="fill:#000000"
         d="m 439.81062,215.93208 c -0.3938,0.81329 -1.39251,1.21172 -2.16036,0.86187 -1.10523,-0.50358 -1.77217,-2.12688 -1.33834,-3.25744 0.29464,-0.76781 0.89748,-0.47274 0.90179,0.44138 0.006,1.17299 0.33056,1.61876 1.02063,1.39974 0.76815,-0.24379 0.92033,-1.08183 0.55865,-3.07638 -0.38327,-2.11356 -0.4329,-2.18819 -1.13041,-1.69963 -1.75776,1.23118 -3.6797,-0.92122 -2.42373,-2.71437 0.56387,-0.80504 1.18996,-1.09722 2.7151,-1.26704 1.16857,-0.13012 1.31845,-0.087 1.45035,0.41741 0.0809,0.30939 0.0839,0.95199 0.007,1.42801 -0.0772,0.47602 0.0507,1.7898 0.28433,2.91952 0.48007,2.32136 0.51555,3.72038 0.11533,4.54693 z m -3.35092,-7.15484 c -0.8801,1.02317 -0.23977,1.18733 0.79067,0.2027 0.67628,-0.64621 0.72323,-0.77075 0.32147,-0.85271 -0.27284,-0.0557 -0.74003,0.2174 -1.11214,0.65001 z"
         id="path101" /><path
         style="fill:#000000"
         d="m 444.77899,207.56175 c -1.13666,0 -1.48392,0.52221 -1.48392,2.23156 0,0.86814 -0.10589,1.20802 -0.37635,1.20802 -0.4738,0 -0.91967,-1.33105 -1.00965,-3.01414 l -0.0692,-1.29435 1.11511,-0.37822 c 0.93598,-0.31747 1.23298,-0.32173 1.84885,-0.0265 0.40355,0.19342 0.77368,0.55912 0.82251,0.81268 0.0709,0.36815 -0.0998,0.461 -0.84735,0.461 z"
         id="path99" /><path
         style="fill:#000000"
         d="m 450.99331,210.13722 c -0.85369,0.93467 -2.00153,1.34454 -2.64596,0.94481 -1.22531,-0.76004 -1.32366,-2.904 -0.19349,-4.21791 0.54693,-0.63584 0.71484,-0.68277 1.8396,-0.5141 1.38139,0.20715 1.76828,0.65818 1.76828,2.06141 0,0.60676 -0.24128,1.14863 -0.76843,1.72579 z m -1.09643,-2.31089 c -0.65886,0 -0.87251,0.15695 -1.16698,0.85728 -0.42551,1.01201 -0.33453,1.25989 0.39265,1.06973 0.53403,-0.13965 1.58086,-1.26412 1.58086,-1.69811 0,-0.12589 -0.36294,-0.2289 -0.80653,-0.2289 z"
         id="path96" /><path
         style="fill:#000000"
         d="m 457.73257,211.5158 c -0.30068,0.24955 -0.48553,0.20833 -0.89297,-0.19911 -0.28259,-0.28259 -0.56831,-0.67732 -0.63493,-0.87719 -0.0833,-0.24977 -0.4136,-0.0533 -1.0565,0.62838 -0.96062,1.01856 -1.18981,1.1254 -1.69318,0.7893 -0.60789,-0.4059 -0.8995,-1.40951 -0.8995,-3.09572 0,-1.35637 0.0944,-1.78172 0.42358,-1.90803 0.65707,-0.25214 0.91913,0.44501 0.73868,1.96509 -0.24834,2.09197 0.65258,1.67847 1.75043,-0.80342 0.30341,-0.68591 0.59711,-1.2471 0.65267,-1.2471 0.42119,0 0.93256,1.00375 0.93256,1.8305 0,0.61918 0.20117,1.2309 0.52916,1.60908 0.62993,0.72631 0.64915,0.89397 0.15,1.30822 z"
         id="path94" /><path
         style="fill:#000000"
         d="m 478.24126,210.85595 c -0.27846,0.17209 -1.23887,-0.95833 -1.49213,-1.75627 -0.14077,-0.44354 -0.31239,-0.50479 -1.00309,-0.35799 -0.45829,0.0974 -1.20828,0.24259 -1.66664,0.32264 -0.65293,0.11403 -0.93481,0.37047 -1.3018,1.1843 -0.30282,0.67154 -0.61617,1.0094 -0.8864,0.95572 -0.62402,-0.12394 -0.46503,-1.54516 0.47312,-4.22929 1.32893,-3.80217 1.85879,-4.50476 2.66481,-3.53356 0.47201,0.56873 3.45553,6.55609 3.45553,6.93458 0,0.18119 -0.10953,0.39713 -0.2434,0.47987 z m -3.16871,-4.85575 -0.47951,-0.90009 -0.41938,1.23082 c -0.44304,1.30023 -0.38116,1.382 0.80527,1.06405 0.70768,-0.18965 0.71081,-0.23625 0.0936,-1.39478 z"
         id="path90" /></g><g
       id="g196"
       transform="matrix(0.5564363,0,0,0.5564363,-145.25782,87.827089)"><path
         style="fill:#000000"
         d="m 415.52848,223.82457 c -0.41323,0.25539 -0.8084,-0.0806 -0.8084,-0.68742 0,-0.36381 0.14598,-0.50484 0.45999,-0.44437 0.52719,0.10153 0.76508,0.87428 0.34841,1.13179 z"
         id="path116" /><path
         style="fill:#000000"
         d="m 415.99912,219.93976 c -0.19415,-0.064 -0.39278,-0.38816 -0.44141,-0.72039 -0.0601,-0.41044 0.0247,-0.56677 0.26459,-0.48772 0.19414,0.064 0.39278,0.38816 0.4414,0.7204 0.0601,0.41043 -0.0247,0.56676 -0.26458,0.48771 z"
         id="path115" /><path
         style="fill:#000000"
         d="m 416.04302,221.71696 c -0.40224,0.24859 -0.79375,-0.0993 -0.79375,-0.70539 0,-0.3854 0.12084,-0.49548 0.41851,-0.38126 0.23018,0.0883 0.46831,0.1606 0.52917,0.1606 0.22797,0 0.10014,0.76902 -0.15393,0.92605 z"
         id="path114" /><path
         style="fill:#000000"
         d="m 416.84316,225.94634 c -0.45188,0.27927 -1.79849,-0.11955 -1.97734,-0.58563 -0.19498,-0.50812 0.23921,-1.04847 0.50149,-0.6241 0.0978,0.1582 0.39429,0.28764 0.65893,0.28764 0.61781,0 1.21614,0.67535 0.81692,0.92209 z"
         id="path113" /><path
         style="fill:#000000"
         d="m 417.31424,219.10307 c -0.3262,0.2016 -1.06572,-0.64834 -0.8574,-0.98541 0.18229,-0.29494 0.83744,-0.0118 1.00937,0.43628 0.0777,0.20237 0.009,0.44948 -0.15197,0.54913 z"
         id="path112" /><path
         style="fill:#000000"
         d="m 418.9133,225.9751 c -0.16772,0.10365 -0.46923,-0.0367 -0.67062,-0.31207 -0.39376,-0.5385 -0.1039,-0.80495 0.58719,-0.53975 0.46464,0.17829 0.50508,0.59122 0.0834,0.85182 z"
         id="path111" /><path
         style="fill:#000000"
         d="m 419.17811,218.89417 c -0.3423,-0.0487 -0.65721,-0.30298 -0.70854,-0.57214 -0.0715,-0.3751 0.0467,-0.46472 0.52376,-0.39687 0.3423,0.0487 0.65721,0.30297 0.70854,0.57214 0.0715,0.3751 -0.0467,0.46472 -0.52376,0.39687 z"
         id="path110" /><path
         style="fill:#000000"
         d="m 420.45111,225.70602 c -0.51769,0.19865 -0.96851,-0.0644 -0.96851,-0.5651 0,-0.49732 0.6389,-0.48976 1.05573,0.0125 0.26411,0.31824 0.24738,0.42422 -0.0872,0.55262 z"
         id="path109" /><path
         style="fill:#000000"
         d="m 421.8771,218.79833 c -0.13822,0.0854 -0.37667,-0.0789 -0.52989,-0.3652 -0.29724,-0.55541 0.0281,-0.98681 0.51661,-0.68492 0.33532,0.20723 0.34339,0.8461 0.0133,1.05012 z"
         id="path107" /><path
         style="fill:#000000"
         d="m 423.08273,218.93883 c -0.4204,0 -0.76962,-0.71508 -0.53478,-1.09506 0.20249,-0.32763 0.90334,0.23918 0.90334,0.73058 0,0.20047 -0.16585,0.36448 -0.36856,0.36448 z"
         id="path105" /><path
         style="fill:#000000"
         d="m 423.14323,225.52848 c -0.19435,-0.0322 -0.57374,0.0371 -0.84309,0.15405 -0.31986,0.13884 -0.56618,0.0889 -0.71015,-0.14408 -0.32029,-0.51823 -0.0291,-0.82662 0.59381,-0.62891 0.38215,0.12129 0.48251,0.0783 0.34328,-0.14697 -0.13181,-0.21326 -0.0346,-0.28712 0.29455,-0.22374 0.56037,0.10792 0.87677,1.0816 0.3216,0.98965 z"
         id="path104" /><path
         style="fill:#000000"
         d="m 423.50987,222.32752 c -0.0546,0.33581 -0.239,0.56415 -0.40968,0.50743 -0.38438,-0.12774 -0.58509,-3.10237 -0.20933,-3.10237 0.58386,0 0.85577,1.13986 0.61901,2.59494 z"
         id="path103" /><path
         style="fill:#000000"
         d="m 439.77441,232.168 c -0.65183,1.91143 -2.81297,1.04928 -3.79132,-1.51249 -0.32407,-0.84857 -0.36373,-1.23638 -0.14846,-1.45165 0.21526,-0.21527 0.4205,-0.0609 0.76824,0.57761 0.26097,0.47925 0.73325,1.1825 1.0495,1.5628 l 0.575,0.69144 0.28489,-0.74483 c 0.1567,-0.40966 0.2849,-2.04379 0.2849,-3.63141 v -2.88658 l -0.80093,0.16019 c -0.95523,0.19104 -1.73483,-0.39285 -1.97313,-1.4778 -0.17173,-0.78191 0.23626,-2.13613 0.74009,-2.45649 0.45591,-0.28989 1.71059,-0.25248 1.90168,0.0567 0.0899,0.14552 0.38188,0.26458 0.64876,0.26458 0.26689,0 0.55752,0.18833 0.64584,0.41852 0.29819,0.77705 0.14404,9.46436 -0.18506,10.4294 z m -1.89322,-9.88913 c -0.39526,0.15167 -0.82048,1.09712 -0.5949,1.32271 0.19475,0.19474 0.9817,-0.68821 0.9817,-1.10147 0,-0.21562 -0.16119,-0.30782 -0.3868,-0.22124 z"
         id="path100" /><path
         style="fill:#000000"
         d="m 445.11573,222.62115 -1.08976,0.3265 0.17022,1.28325 c 0.18516,1.39575 -0.0371,1.75798 -0.75614,1.23221 -0.38912,-0.28453 -0.73859,-1.33494 -1.01346,-3.04619 -0.073,-0.45439 1.56935,-1.36142 2.46508,-1.36142 0.71397,0 1.31382,0.42784 1.31382,0.93708 0,0.16614 -0.49039,0.449 -1.08976,0.62857 z"
         id="path98" /><path
         style="fill:#000000"
         d="m 450.84687,224.93727 c -0.70528,1.62136 -2.1855,1.7331 -2.90389,0.2192 -1.17665,-2.47962 0.62001,-4.57496 2.59245,-3.02344 0.78785,0.61973 0.88423,1.48748 0.31144,2.80424 z m -1.46638,-1.50052 c -0.38806,0 -0.52917,0.17639 -0.52917,0.66146 0,0.77822 0.20512,0.83721 0.69002,0.19843 0.49149,-0.64744 0.45174,-0.85989 -0.16085,-0.85989 z"
         id="path97" /><path
         style="fill:#000000"
         d="m 456.38804,226.87633 c -0.25681,0 -0.61599,-0.20386 -0.79819,-0.45303 -0.27484,-0.37587 -0.40126,-0.39495 -0.74221,-0.11198 -1.12719,0.93548 -2.38615,-0.37075 -2.70678,-2.80843 -0.15403,-1.17104 -0.11653,-1.38906 0.23894,-1.38906 0.51121,0 0.86077,0.60687 1.10769,1.9231 0.10187,0.54302 0.29862,0.98732 0.43723,0.98732 0.1386,0 0.5123,-0.59251 0.83045,-1.31668 0.31814,-0.72418 0.72308,-1.31949 0.89986,-1.32292 0.47469,-0.009 0.89119,0.92782 0.84912,1.9103 -0.0203,0.47387 0.0503,1.24854 0.15696,1.72148 0.16199,0.71854 0.1171,0.8599 -0.27307,0.8599 z"
         id="path95" /><path
         style="fill:#000000"
         d="m 462.41122,225.88867 c -0.25466,0.2295 -0.77355,0.49474 -1.15307,0.58943 -0.65635,0.16375 -0.69836,0.28026 -0.86017,2.38536 -0.17873,2.32516 -0.50895,3.56912 -0.94747,3.56912 -0.56238,0 -0.75039,-0.94504 -0.50005,-2.51354 0.23904,-1.49776 0.19434,-2.91568 -0.19395,-6.15156 l -0.16668,-1.38907 1.01773,0.002 c 2.19749,0.004 4.07942,2.35882 2.80366,3.50851 z m -1.80316,-1.9293 c -0.81581,-0.31017 -0.9113,-0.31649 -0.90041,-0.0596 0.021,0.49401 0.79438,1.17762 1.1695,1.03367 0.61671,-0.23665 0.49304,-0.68431 -0.26909,-0.97408 z"
         id="path93" /><path
         style="fill:#000000"
         d="m 477.99097,226.61697 c -0.74703,0.74703 -2.24972,1.31351 -3.49145,1.31622 -1.1074,0.002 -1.84931,-1.2496 -1.6705,-2.81903 0.0844,-0.74108 -0.031,-2.1165 -0.27402,-3.26491 -0.23095,-1.09141 -0.42001,-2.07975 -0.42013,-2.19632 -3.8e-4,-0.37601 1.80277,-0.97868 2.92816,-0.97868 2.05249,0 3.53332,2.2769 2.60679,4.00815 -0.22148,0.41383 -0.18995,0.63956 0.1403,1.00448 0.23429,0.25889 0.53702,0.85787 0.67273,1.33108 0.21772,0.75914 0.15984,0.94729 -0.49188,1.59901 z m -1.90744,-2.28714 c -1.24828,-0.40988 -1.36972,-1.37632 -0.25198,-2.00526 0.56147,-0.31592 0.80102,-0.6507 0.80102,-1.11943 0,-0.7422 -0.69108,-1.04961 -2.01855,-0.89791 -0.84248,0.0963 -0.78437,-0.30074 -0.60615,4.14187 l 0.0778,1.9384 0.94274,-0.17203 c 1.16186,-0.21202 2.20106,-0.85365 2.06378,-1.27423 -0.0564,-0.17263 -0.51022,-0.44776 -1.00862,-0.61141 z"
         id="path89" /></g><path
       style="fill:#000000;stroke-width:0.556437"
       d="m 123.5392,105.19734 c -0.1599,1.2814 -0.25754,1.32299 -1.70719,0.72722 -0.50448,-0.20732 -1.51348,-0.57587 -2.24224,-0.819 -0.72875,-0.24312 -1.41958,-0.53481 -1.53518,-0.64819 -0.44716,-0.43863 0.26678,-0.38075 1.83213,0.14853 0.86737,0.29327 1.60453,0.50573 1.6381,0.47215 0.11916,-0.11915 -3.19379,-3.76421 -4.03004,-4.43418 -1.72198,-1.379583 -3.82107,-2.087168 -7.43379,-2.505902 -3.52397,-0.408421 -6.30554,0.176719 -10.480939,2.204812 -3.03123,1.47233 -4.407,2.45604 -5.80919,4.15365 -0.65282,0.79037 -1.28725,1.56953 -1.40983,1.73148 -0.19238,0.25414 -0.24314,0.26422 -0.37066,0.0736 -0.0813,-0.12147 -0.14879,-0.26543 -0.15003,-0.31992 -0.003,-0.13968 2.24247,-2.92653 2.6658,-3.30826 1.15108,-1.03794 4.98763,-3.142361 7.492509,-4.109734 3.01677,-1.165084 6.12149,-1.4309 9.56743,-0.819118 3.8701,0.687082 5.33211,1.48655 8.11862,4.439512 1.9854,2.104 2.36641,2.60448 2.25383,2.96045 -0.1099,0.34728 0.75322,0.65113 0.8837,0.31111 0.24526,-0.63912 0.25908,-1.93083 0.0256,-2.39869 -0.26569,-0.5326 -0.30917,-0.96474 -0.10956,-1.08814 0.20158,-0.12456 0.40627,0.20942 0.66418,1.08378 0.22728,0.77058 0.25459,1.19942 0.13661,2.14482 z"
       id="path88" /><g
       id="g197"
       transform="matrix(0.5564363,0,0,0.5564363,-248.15208,-8.2406395)"><path
         style="fill:#000000"
         d="m 516.25022,206.50341 c -0.60181,0 -0.89144,-0.5036 -1.36743,-2.37764 -0.23974,-0.9439 -0.61771,-1.99366 -0.83993,-2.33281 -0.34415,-0.52524 -0.46646,-0.56498 -0.8253,-0.26819 -0.62652,0.51818 -1.65445,2.8772 -1.65741,3.8036 -0.001,0.44512 -0.16306,1.02879 -0.3592,1.29702 -0.34484,0.47161 -0.37417,0.47015 -0.8885,-0.0442 -0.35693,-0.35692 -0.62594,-1.16554 -0.8178,-2.45821 -0.15725,-1.05948 -0.40214,-2.04255 -0.54419,-2.1846 -0.47877,-0.47877 -1.11977,1.34682 -1.28249,3.65261 -0.15633,2.21524 -0.42939,2.69707 -1.07936,1.9046 -0.14919,-0.1819 -0.35764,-1.90831 -0.46323,-3.83646 -0.19659,-3.59012 -0.10091,-3.97394 0.77283,-3.10021 0.33051,0.33052 0.50167,0.34548 0.92534,0.0809 0.70134,-0.43799 1.72361,0.0342 2.368,1.09383 l 0.48485,0.79727 0.36673,-0.68524 c 0.5915,-1.10522 1.8128,-1.99904 2.4628,-1.80242 1.3909,0.42075 2.5366,2.44434 2.9519,5.21378 0.15172,1.01176 0.11264,1.24637 -0.20761,1.24637 z"
         id="path86" /><path
         style="fill:#000000"
         d="m 522.82266,206.50341 c -0.20711,0 -0.71622,-0.28579 -1.13135,-0.6351 -0.66858,-0.56257 -0.81265,-0.59279 -1.2615,-0.26458 -0.80858,0.59125 -1.62438,0.43835 -2.36643,-0.44353 -0.78557,-0.9336 -0.85509,-1.70622 -0.27784,-3.08778 0.47584,-1.13884 0.78519,-1.38027 1.77568,-1.38579 0.40018,-0.002 0.7276,-0.12311 0.7276,-0.26863 0,-0.36846 0.88552,-0.33156 1.27,0.0529 0.17462,0.17462 0.3175,0.98788 0.3175,1.80724 0,1.06433 0.18857,1.86144 0.66035,2.79135 0.77867,1.53484 0.75854,1.43391 0.28599,1.43391 z m -2.76603,-4.7625 c -0.6538,0 -1.46633,2.05138 -1.06015,2.67655 0.19013,0.29264 0.34257,0.23335 0.75924,-0.2953 0.52146,-0.66162 0.73877,-2.38125 0.30091,-2.38125 z"
         id="path84" /><path
         style="fill:#000000"
         d="m 529.21851,206.50631 c -1.62056,0.98808 -3.80987,0.44017 -4.4539,-1.11464 -0.35759,-0.86331 -0.15657,-2.53773 0.44414,-3.69937 0.70848,-1.37004 2.97542,-1.88463 3.81989,-0.8671 0.23471,0.2828 0.0998,0.39187 -0.6611,0.53462 -1.35332,0.25389 -2.25789,1.50305 -2.25789,3.11805 0,0.79343 0.1177,1.24222 0.33073,1.26108 0.74045,0.0656 1.60767,-0.0924 2.45785,-0.44758 1.15125,-0.48102 1.18017,-0.47716 1.18017,0.1576 0,0.31746 -0.34778,0.7451 -0.85989,1.05734 z"
         id="path82" /><path
         style="fill:#000000"
         d="m 535.37961,201.21175 c -0.63912,0 -1.86162,1.72204 -1.86162,2.62232 0,0.35607 0.14189,1.03981 0.31533,1.51943 0.38799,1.07297 0.16293,1.35078 -0.65835,0.81266 -0.43192,-0.28301 -0.80136,-1.00696 -1.19972,-2.35094 -0.79055,-2.66721 -0.7689,-2.97319 0.19674,-2.78007 0.51762,0.10353 0.87971,0.0228 1.10272,-0.24595 0.58645,-0.70663 1.22353,-0.91696 1.94574,-0.64237 0.79866,0.30365 0.91243,1.06492 0.15916,1.06492 z"
         id="path80" /><path
         style="fill:#000000"
         d="m 542.73173,204.56854 c -0.29376,1.10381 -1.37612,1.93487 -2.51995,1.93487 -1.18496,0 -1.83433,-0.36794 -2.32543,-1.31762 -0.79744,-1.54207 -0.38475,-3.29156 0.96446,-4.08856 2.05377,-1.21319 4.53658,1.00757 3.88092,3.47131 z m -1.42516,-2.18174 c -0.29328,-0.36428 -0.45353,-0.41744 -0.55121,-0.18286 -0.0757,0.1819 -0.42127,0.33072 -0.76782,0.33072 -0.749,0 -1.24448,0.79019 -1.12805,1.79903 0.0676,0.58552 0.23217,0.72907 0.91175,0.79514 0.6406,0.0623 0.95668,-0.0813 1.38907,-0.63099 0.66633,-0.8471 0.70575,-1.41612 0.14626,-2.11104 z"
         id="path78" /><path
         style="fill:#000000"
         d="m 548.16377,202.61735 c -0.10004,0.10004 -0.39649,0.1819 -0.65877,0.1819 -0.41807,0 -0.46973,0.22023 -0.41892,1.78594 0.0529,1.62886 0.0114,1.78593 -0.47122,1.78593 -0.40218,0 -0.51646,-0.15873 -0.4762,-0.66146 0.0291,-0.3638 -0.0111,-1.10794 -0.0894,-1.65364 -0.1263,-0.88027 -0.22714,-0.99219 -0.89396,-0.99219 -0.79655,0 -1.69017,-0.67109 -1.43766,-1.07966 0.0827,-0.13379 0.51401,-0.24326 0.9585,-0.24326 0.76798,0 0.80026,-0.0428 0.6493,-0.85989 -0.35272,-1.90912 -0.50019,-5.94489 -0.22348,-6.1159 0.64286,-0.39731 1.11603,0.6456 1.11603,2.45985 0,0.98794 0.0729,2.32778 0.1619,2.97742 0.14139,1.03153 0.26489,1.21219 0.9748,1.42599 0.81666,0.24596 1.1476,0.65046 0.80909,0.98897 z"
         id="path76" /><path
         style="fill:#000000"
         d="m 550.84164,199.09508 c -0.43634,0 -1.01863,-1.21304 -0.77303,-1.61042 0.0894,-0.14463 0.35807,-0.13186 0.66335,0.0315 0.62063,0.33215 0.70724,1.57891 0.10968,1.57891 z"
         id="path75" /><path
         style="fill:#000000"
         d="m 551.44861,205.65286 c -0.49811,-0.15471 -1.19902,-1.75124 -1.40938,-3.21028 -0.16745,-1.16138 -0.13813,-1.27369 0.31,-1.18739 0.65476,0.1261 1.0589,1.07017 1.26579,2.95687 0.13007,1.18622 0.0914,1.52088 -0.16641,1.4408 z"
         id="path74" /><path
         style="fill:#000000"
         d="m 555.75626,205.70966 c -0.54744,0 -0.89707,-1.0064 -1.21738,-3.50428 -0.19137,-1.49238 -0.47508,-3.65988 -0.63045,-4.81667 -0.29882,-2.22482 -0.0889,-3.00894 0.6026,-2.25104 0.5228,0.57299 1.70054,10.57199 1.24523,10.57199 z"
         id="path72" /><path
         style="fill:#000000"
         d="m 563.1298,206.51493 c -0.8023,0.42938 -3.16211,0.41322 -4.06389,-0.0278 -0.81671,-0.39944 -2.86272,-3.09765 -2.63198,-3.47098 0.0737,-0.11928 0.35223,-0.21688 0.6189,-0.21688 0.30005,0 0.54992,-0.25917 0.65552,-0.67993 0.33665,-1.34131 1.30322,-2.49012 2.36874,-2.81534 0.94903,-0.28966 1.06453,-0.26682 1.52471,0.30147 1.47593,1.8227 0.54071,3.78585 -2.28694,4.80057 -0.76234,0.27357 -0.77342,0.29977 -0.28016,0.66196 0.341,0.25038 1.2079,0.37711 2.57969,0.37711 1.63808,0 2.06609,0.0803 2.06609,0.38756 0,0.21316 -0.2478,0.52019 -0.55068,0.68228 z m -2.80809,-5.60835 c -0.66438,0.35928 -1.5497,1.89464 -1.08796,1.88678 0.74599,-0.0127 2.35953,-1.86182 1.79912,-2.06179 -0.12841,-0.0458 -0.44843,0.0329 -0.71116,0.17501 z"
         id="path68" /><path
         style="fill:#000000"
         d="m 569.56698,205.51795 c -1.14472,1.03596 -3.39457,1.3095 -4.1257,0.50161 -0.64385,-0.71145 -0.55085,-0.83906 0.61148,-0.83906 1.05309,0 2.91939,-0.70621 2.91939,-1.10471 0,-0.11712 -0.75635,-0.55589 -1.68077,-0.97504 -2.31491,-1.04963 -3.26824,-2.5457 -2.04079,-3.20261 1.1411,-0.6107 3.14121,-0.0354 3.73515,1.07442 0.42327,0.79088 0.11375,0.92709 -0.95193,0.4189 -0.51243,-0.24436 -1.10625,-0.4443 -1.31959,-0.4443 -0.7665,0 -0.36385,0.44572 0.93152,1.03115 2.12787,0.96167 2.99814,2.56505 1.92124,3.53964 z"
         id="path66" /></g><path
       style="fill:#000000;stroke-width:0.556437"
       d="m 185.27487,178.67832 c -0.67781,0.788 -2.00986,0.25131 -2.23986,-0.90245 -0.1694,-0.84979 1.00827,-1.6589 1.79879,-1.23582 0.78833,0.42188 1.00672,1.48068 0.44107,2.13827 z"
       id="path61" /><g
       id="g198"
       transform="matrix(0.5564363,0,0,0.5564363,-150.34669,-22.886626)"><path
         style="fill:#000000"
         d="m 515.39173,225.64998 c -0.56667,0.21745 -1.47879,-0.19062 -2.22926,-0.99733 l -0.64406,-0.69233 -0.67886,0.64742 c -1.54231,1.4709 -3.46599,1.50794 -4.65935,0.0897 -1.36867,-1.62657 -0.36163,-3.90336 1.91542,-4.33054 0.53786,-0.1009 1.30898,-0.0571 1.71875,0.0975 0.59627,0.22507 0.7432,0.20661 0.7432,-0.0934 0,-0.20564 0.16014,-0.37389 0.35587,-0.37389 0.55641,0 1.14611,0.83697 1.3049,1.85208 0.26377,1.6861 0.6785,2.39071 1.64484,2.79447 0.9923,0.41461 1.17314,0.75891 0.52855,1.00626 z m -4.91285,-4.06532 c -1.30836,0 -2.71828,1.19287 -2.57796,2.18109 0.0727,0.51181 0.23395,0.59206 1.12982,0.56217 0.81236,-0.0271 1.21001,-0.21949 1.78594,-0.86407 0.40749,-0.45606 0.74089,-1.06545 0.74089,-1.35419 0,-0.43776 -0.17925,-0.525 -1.07869,-0.525 z"
         id="path87" /><path
         style="fill:#000000"
         d="m 522.57161,231.70748 c -0.715,1.92179 -1.73658,2.54792 -3.17589,1.94654 -1.37679,-0.57526 -2.26492,-3.17685 -1.49833,-4.38902 0.28922,-0.45735 0.39337,-0.24477 0.65439,1.33568 0.36036,2.182 1.78335,2.45988 2.65849,0.51916 0.54517,-1.20896 0.44615,-3.2305 -0.28068,-5.73073 -0.41447,-1.42571 -0.43021,-1.44187 -0.88914,-0.91273 -1.27943,1.4752 -2.94079,1.49114 -3.80009,0.0365 -0.54918,-0.9297 -0.57051,-1.8617 -0.07,-3.05956 0.46475,-1.11229 1.35335,-1.40364 2.48934,-0.8162 1.00861,0.52157 1.04153,0.52038 1.14976,-0.0416 0.0808,-0.4193 0.13629,-0.41227 0.62815,0.0796 0.35305,0.35305 0.83422,1.72769 1.39195,3.97662 1.06501,4.29444 1.22025,5.77052 0.74207,7.05577 z m -3.27903,-9.48066 c -0.70823,-1.0343 -2.17876,-0.21767 -2.17876,1.20993 0,0.63982 0.11214,0.79375 0.57826,0.79375 0.61089,0 1.8058,-0.9533 1.79894,-1.43519 -0.002,-0.15653 -0.0915,-0.41235 -0.19844,-0.56849 z"
         id="path85" /><path
         style="fill:#000000"
         d="m 528.89582,230.85952 c -0.57801,1.06267 -2.0152,1.71887 -3.09037,1.41102 -0.98996,-0.28346 -1.68376,-1.37426 -1.41424,-2.22347 0.23029,-0.72557 0.56693,-0.65643 0.98698,0.2027 0.45242,0.92532 1.13788,0.84482 2.15388,-0.25297 0.70524,-0.76202 0.74913,-0.93059 0.59948,-2.30208 -0.0888,-0.81392 -0.28679,-1.92192 -0.43995,-2.46223 l -0.27849,-0.98238 -0.85017,0.51837 c -0.46759,0.2851 -1.12721,0.51882 -1.46583,0.51936 -0.84383,0.001 -2.16246,-1.36941 -2.16246,-2.24797 0,-0.77168 1.28193,-2.24896 1.95158,-2.24896 0.61304,0 1.74913,0.57627 1.77896,0.90237 0.0145,0.15854 0.10917,-0.009 0.21037,-0.3732 0.11295,-0.40605 0.37625,-0.66146 0.68191,-0.66146 0.43124,0 0.5781,0.46053 1.09685,3.43959 0.6928,3.97864 0.75826,5.81127 0.2415,6.76131 z m -3.03185,-8.48111 c -1.25664,0 -2.14821,1.31585 -1.03764,1.53142 0.43212,0.0839 1.81249,-0.89555 1.81249,-1.28604 0,-0.13496 -0.34868,-0.24538 -0.77485,-0.24538 z"
         id="path83" /><path
         style="fill:#000000"
         d="m 534.05219,221.58466 c -0.90552,0 -1.10529,0.46499 -1.16161,2.70374 -0.0571,2.27083 -0.72561,2.00958 -2.12513,-0.83052 -0.6555,-1.33023 -0.88071,-2.04997 -0.69845,-2.23223 0.18225,-0.18225 0.47459,-0.0758 0.90666,0.33009 l 0.63768,0.59907 0.30466,-0.92313 c 0.43904,-1.33029 1.28812,-1.49992 2.46188,-0.49183 0.67297,0.57797 0.5701,0.84481 -0.32569,0.84481 z"
         id="path81" /><path
         style="fill:#000000"
         d="m 540.59284,227.01419 c -0.47446,0.089 -1.21712,0.0271 -1.65035,-0.13765 -0.78495,-0.29844 -2.62485,-1.55292 -3.61406,-2.46414 -0.52796,-0.48634 -0.52847,-1.16028 -7.9e-4,-1.04492 0.15856,0.0347 0.41107,-0.39291 0.56112,-0.95017 0.40776,-1.51428 1.70263,-2.40993 2.92379,-2.02235 0.59075,0.1875 1.32002,1.40922 1.32002,2.21138 0,0.48977 -1.16574,1.68944 -1.90845,1.964 -0.72338,0.26742 0.53182,1.05559 1.88869,1.18597 1.07696,0.10348 1.34268,0.2247 1.34268,0.61253 0,0.33634 -0.26258,0.53277 -0.86265,0.64535 z m -2.04777,-5.16494 c -0.36039,0 -1.40314,1.06631 -1.22093,1.24851 0.19618,0.19618 1.48551,-0.66311 1.48551,-0.99003 0,-0.14217 -0.11906,-0.25848 -0.26458,-0.25848 z"
         id="path79" /><path
         style="fill:#000000"
         d="m 547.06442,232.45729 c -0.70461,1.41025 -1.98592,1.37855 -3.65912,-0.0905 -1.21346,-1.06544 -1.81126,-2.3793 -1.41741,-3.11521 0.50096,-0.93607 1.0551,-0.44527 1.0551,0.93452 0,0.73537 1.13653,1.71735 1.98765,1.71735 1.10061,0 1.27285,-0.57076 1.12345,-3.72284 -0.0761,-1.60464 -0.18544,-2.96468 -0.24306,-3.02231 -0.0576,-0.0576 -0.53225,-0.008 -1.05472,0.10948 -1.79573,0.405 -3.28653,-0.80798 -3.09182,-2.51564 0.11973,-1.04993 1.16434,-1.15978 2.72643,-0.2867 l 1.16796,0.65278 0.0811,-0.69835 c 0.0965,-0.83113 0.86411,-1.07572 1.21791,-0.38811 0.13556,0.26344 0.31613,2.51452 0.40127,5.00239 0.13456,3.93155 0.096,4.64112 -0.29475,5.42318 z m -3.2355,-9.06458 c -0.22259,-0.0485 -0.43465,0.0308 -0.47125,0.17633 -0.0366,0.14552 0.26457,0.30351 0.66928,0.35109 0.76415,0.0898 0.59753,-0.35391 -0.19803,-0.52742 z"
         id="path77" /><path
         style="fill:#000000"
         d="m 554.68465,225.818 c -0.29104,0 -0.77799,-0.24883 -1.08211,-0.55295 -0.55019,-0.55019 -0.5558,-0.55035 -1.12448,-0.0331 -0.90062,0.81923 -1.57468,1.0735 -2.20975,0.83356 -1.72094,-0.65018 -1.9506,-3.72124 -0.36909,-4.93549 1.36834,-1.05057 3.99168,0.22833 3.99168,1.94597 0,0.6363 0.20155,1.10194 0.66146,1.52817 0.79786,0.73944 0.84956,1.2138 0.13229,1.2138 z m -2.81516,-3.62844 c -0.47101,-0.15681 -1.67302,1.04481 -1.74776,1.74719 -0.10066,0.94588 0.49023,0.96756 1.4062,0.0516 0.79495,-0.79494 0.94727,-1.59713 0.34156,-1.79878 z"
         id="path73" /><path
         style="fill:#000000"
         d="m 559.96569,223.04644 c -0.17399,0.10753 -0.20987,0.74766 -0.0975,1.74044 0.15449,1.36549 0.12316,1.54943 -0.24013,1.41002 -0.24302,-0.0933 -0.55186,-0.75943 -0.7383,-1.59253 l -0.32052,-1.43221 h -1.13921 c -0.86028,0 -1.2071,-0.12684 -1.41647,-0.51805 -0.22271,-0.41615 -0.17592,-0.57229 0.23788,-0.79375 0.28333,-0.15163 0.83451,-0.2757 1.22485,-0.2757 0.54906,0 0.68028,-0.1048 0.57968,-0.46302 -0.0715,-0.25466 -0.4635,-1.56328 -0.87107,-2.90805 -0.40757,-1.34477 -0.65729,-2.52878 -0.55493,-2.63114 0.41342,-0.41342 1.20334,0.97983 1.90293,3.35638 0.40695,1.38245 0.95774,2.75934 1.22398,3.05976 0.55611,0.62751 0.59262,0.81068 0.20886,1.04785 z"
         id="path71" /><path
         style="fill:#000000"
         d="m 562.80224,219.468 c -0.42895,0 -1.23842,-0.83508 -1.23842,-1.27761 0,-0.61364 0.78887,-0.29305 1.19062,0.48386 0.33563,0.64902 0.34434,0.79375 0.0478,0.79375 z"
         id="path70" /><path
         style="fill:#000000"
         d="m 563.18828,225.818 c -0.77226,0 -2.14991,-4.00632 -1.58829,-4.61887 0.42335,-0.46174 1.10065,0.58001 1.31645,2.02482 0.11529,0.77188 0.28871,1.67131 0.38539,1.99873 0.10678,0.36161 0.0622,0.59532 -0.11355,0.59532 z"
         id="path69" /><path
         style="fill:#000000"
         d="m 568.50913,225.03024 c -0.55971,0.44121 -0.96255,0.54222 -1.7458,0.43776 -2.63703,-0.35169 -3.61695,-3.7221 -1.3895,-4.7791 1.66906,-0.79202 2.87265,-0.4329 3.48843,1.04085 0.61253,1.46601 0.48713,2.63812 -0.35313,3.30049 z m -0.82878,-2.75596 c -0.68763,-0.6223 -1.83432,-0.31505 -2.05134,0.54964 -0.0899,0.35836 -0.0383,0.7768 0.11475,0.92986 0.38037,0.38036 1.55215,0.35058 2.03695,-0.0518 0.53215,-0.44165 0.5011,-0.88342 -0.10036,-1.42773 z"
         id="path67" /><path
         style="fill:#000000"
         d="m 575.88941,226.19133 c -0.35656,0.22037 -0.72251,-0.32584 -1.36019,-2.03019 -0.3124,-0.83498 -0.68521,-1.51814 -0.82846,-1.51814 -0.22858,0 -0.89271,1.30899 -1.38173,2.72339 -0.12926,0.37387 -0.27031,0.41754 -0.66548,0.20606 -0.3777,-0.20214 -0.54691,-0.69282 -0.68564,-1.98828 -0.21296,-1.9886 -0.0787,-2.38951 0.66681,-1.99055 0.40312,0.21574 0.63838,0.1589 1.09217,-0.26387 0.77716,-0.72403 1.10584,-0.68081 1.88754,0.24819 0.9396,1.11665 1.81393,4.2803 1.27498,4.61339 z"
         id="path65" /><path
         style="fill:#000000"
         d="m 586.66957,223.10326 c -0.473,0.12369 -0.5383,0.29258 -0.42518,1.09971 0.0735,0.52446 0.17614,1.13216 0.22809,1.35044 0.052,0.21828 -0.0807,0.39688 -0.29488,0.39688 -0.21898,0 -0.58449,-0.52097 -0.83533,-1.19063 -0.32815,-0.87604 -0.57481,-1.17404 -0.93357,-1.12788 -0.83843,0.10789 -1.61271,-0.17186 -1.79572,-0.64879 -0.2159,-0.56261 0.4857,-1.13374 1.39274,-1.13374 h 0.64493 l -0.1868,-2.88215 c -0.12293,-1.89665 -0.0933,-2.93994 0.0866,-3.05114 0.53907,-0.33316 1.05978,1.06999 1.24196,3.34664 0.16225,2.0277 0.26071,2.35795 0.81033,2.71808 0.77503,0.50782 0.8002,0.93079 0.0668,1.12258 z"
         id="path64" /><path
         style="fill:#000000"
         d="m 590.16147,219.70499 c -0.12861,0.20311 -0.42444,0.29614 -0.65741,0.20674 -0.46147,-0.17708 -0.55825,-1.14413 -0.17511,-1.74964 0.19921,-0.31481 0.31179,-0.32059 0.65741,-0.0337 0.46221,0.3836 0.53209,1.01286 0.17511,1.57665 z"
         id="path63" /><path
         style="fill:#000000"
         d="m 590.63928,226.83149 c -1.18287,-0.36592 -2.16698,-5.03005 -1.14414,-5.42255 0.71504,-0.27439 1.03954,0.40513 1.06949,2.23952 0.0159,0.97496 0.12206,2.11562 0.23588,2.5348 0.16097,0.5928 0.12515,0.73683 -0.16123,0.64823 z"
         id="path62" /><path
         style="fill:#000000"
         d="m 595.85324,226.87633 c -0.48362,0 -0.95192,-1.37174 -0.95192,-2.78836 0,-0.61704 -0.30291,-2.23638 -0.67313,-3.59853 -0.86106,-3.16811 -0.8675,-3.23243 -0.33436,-3.34286 0.61889,-0.1282 1.09392,0.90993 1.76753,3.86276 0.66456,2.91315 0.76117,5.86699 0.19188,5.86699 z"
         id="path60" /><path
         style="fill:#000000"
         d="m 604.70829,227.66077 c -1.4688,0.78608 -4.99256,-0.18506 -6.37194,-1.75609 -1.34345,-1.5301 -1.44311,-1.94374 -0.79864,-3.31478 1.04501,-2.22317 3.33992,-2.7075 4.21158,-0.88884 0.54058,1.12788 0.13219,2.02184 -1.21599,2.66173 -0.61319,0.29104 -1.11921,0.62516 -1.12448,0.74248 -0.0193,0.42953 2.5173,1.31452 4.14141,1.44489 1.73824,0.13953 2.18034,0.56351 1.15806,1.11061 z m -5.19206,-5.00508 c -0.56611,0.46983 -0.27183,0.61795 0.45495,0.22899 0.39057,-0.20902 0.4928,-0.37184 0.27835,-0.44332 -0.18641,-0.0621 -0.51639,0.0343 -0.7333,0.21433 z"
         id="path59" /><path
         style="fill:#000000"
         d="m 610.19897,226.72155 c -1.33222,0.93312 -4.16469,0.19595 -4.1811,-1.08816 -0.003,-0.19643 0.524,-0.34731 1.38501,-0.39688 l 1.38906,-0.08 -1.16647,-0.79375 c -1.59022,-1.08209 -2.25475,-2.0236 -2.03795,-2.88738 0.14439,-0.57531 0.32147,-0.68449 1.11019,-0.68449 1.5579,0 2.47946,0.66428 2.48705,1.79273 0.004,0.58798 -0.0151,0.59218 -0.81428,0.17893 -1.25395,-0.64844 -1.2093,-0.26602 0.0721,0.61787 2.14146,1.47711 2.75399,2.64233 1.75635,3.3411 z"
         id="path58" /></g><path
       style="fill:#000000;stroke-width:0.556437"
       d="m 198.02178,188.89405 c -0.34619,0 -0.42458,0.0616 -0.4151,0.32667 0.0188,0.52358 -0.48669,0.522 -0.68453,-0.002 -0.15123,-0.40065 -0.24386,-0.4468 -1.13286,-0.56445 -1.18297,-0.15656 -30.63854,-0.17054 -38.28939,-0.0182 -8.14501,0.1622 -13.30498,0.15561 -16.12102,-0.0205 -1.37652,-0.0862 -6.11346,-0.16752 -10.52648,-0.1809 -6.93234,-0.0211 -8.1839,0.009 -9.20149,0.21761 -0.6478,0.13304 -1.25588,0.24192 -1.35131,0.24195 -0.25023,2e-5 -0.65424,-0.44061 -0.55349,-0.60365 0.047,-0.076 0.0788,-1.51165 0.0706,-3.19024 -0.0162,-3.33915 0.39285,-16.60956 0.52295,-16.96465 0.0445,-0.12147 0.138,-4.79213 0.20777,-10.37927 0.0697,-5.58714 0.20985,-12.39001 0.31129,-15.11749 0.18297,-4.92069 0.16262,-6.71829 -0.26811,-23.67597 -0.0464,-1.82189 -0.0353,-4.15723 0.0244,-5.18963 0.0962,-1.66608 0.13823,-1.87711 0.37243,-1.87711 0.38016,0 0.41308,0.21274 0.26202,1.69308 -0.14154,1.38706 -0.12519,2.78765 0.18865,16.12099 0.15555,6.60983 0.15714,9.18351 0.008,13.47097 -0.10113,2.91503 -0.24177,9.60635 -0.31234,14.86961 -0.0706,5.26325 -0.17545,9.95891 -0.23307,10.4348 l -0.10479,0.86527 0.57456,-0.0814 c 0.316,-0.0448 2.09833,-0.1541 3.9607,-0.24294 4.52693,-0.21595 9.93593,-0.62135 11.05816,-0.82881 0.27917,-0.0516 0.32054,-0.18887 0.40619,-1.34798 0.12699,-1.71824 0.35758,-4.10461 0.62264,-6.44337 0.14087,-1.243 0.23351,-3.84008 0.26427,-7.40873 l 0.0474,-5.49479 -0.35484,0.0891 c -0.19516,0.049 -2.72158,0.15076 -5.6143,0.22617 -2.8927,0.0754 -6.34546,0.24099 -7.6728,0.36795 -1.46606,0.14023 -2.46642,0.17776 -2.54856,0.0957 -0.0822,-0.0821 -0.0699,-0.1755 0.0309,-0.23784 0.32603,-0.20151 4.84283,-0.52573 9.41683,-0.67597 2.55742,-0.084 5.54424,-0.21194 6.63738,-0.28431 1.09313,-0.0724 5.69755,-0.20519 10.23205,-0.29517 4.53449,-0.09 8.28982,-0.20964 8.34516,-0.26591 0.0553,-0.0563 0.17334,-2.71923 0.26217,-5.91766 0.0888,-3.19844 0.2268,-6.37848 0.3066,-7.06675 0.0804,-0.69272 0.15343,-5.93161 0.16377,-11.73498 0.0181,-10.16556 0.027,-10.47916 0.29208,-10.33731 0.18836,0.1008 0.27575,0.3164 0.28097,0.69324 0.15711,11.29924 0.13525,19.03346 -0.0631,22.31676 -0.12289,2.03493 -0.26447,5.58061 -0.31461,7.87931 l -0.0911,4.17944 2.03409,-0.0982 c 1.11875,-0.0541 3.09412,-0.16026 4.38967,-0.23599 1.29558,-0.0757 7.88751,-0.17331 14.64878,-0.21685 6.76124,-0.0435 13.44289,-0.12275 14.84811,-0.17599 2.46233,-0.0934 2.55298,-0.0867 2.50104,0.18434 -0.049,0.25534 -0.20937,0.28372 -1.7452,0.30881 -0.93022,0.0152 -5.31499,0.10835 -9.74392,0.20689 l -8.05263,0.17926 0.024,1.70702 c 0.0239,1.69981 -0.1309,4.18318 -0.55433,8.89414 -0.12237,1.36177 -0.24673,4.12774 -0.27632,6.14658 l -0.0538,3.67064 h 1.75502 c 2.17678,0 13.93413,-0.99903 14.63969,-1.24395 0.0908,-0.0315 1.25021,-0.0748 2.57643,-0.0961 2.2989,-0.0371 2.41127,-0.0256 2.41127,0.24577 0,0.26592 -0.15995,0.29115 -2.42919,0.38315 -1.33605,0.0542 -3.38983,0.20416 -4.56393,0.3333 -3.99435,0.43938 -8.90021,0.82637 -11.65364,0.91932 l -2.74662,0.0927 -0.0942,1.26562 c -0.0517,0.69607 -0.16047,2.69 -0.2415,4.43091 -0.081,1.74092 -0.2072,4.42408 -0.2804,5.96257 -0.0732,1.53848 -0.13639,4.056 -0.1404,5.5945 l -0.008,2.79724 9.82716,0.0286 c 5.40494,0.0158 10.48273,0.0734 11.28397,0.1279 l 1.45681,0.0991 -0.11132,-3.07229 c -0.15454,-4.26527 -0.11171,-16.89007 0.0665,-19.56137 0.081,-1.2146 0.1784,-5.58714 0.21649,-9.71677 0.038,-4.12962 0.13471,-9.33031 0.21471,-11.55706 0.0799,-2.22677 0.18848,-8.65308 0.24111,-14.28071 0.0953,-10.18507 0.25064,-17.83504 0.37086,-18.25575 0.0498,-0.17424 -0.0612,-0.21256 -0.52579,-0.18168 -1.96944,0.13096 -16.2131,0.0305 -18.99186,-0.13388 -4.52807,-0.26795 -21.67122,-0.20001 -26.65443,0.10568 -2.07929,0.12751 -8.27415,0.28626 -14.27377,0.36573 -5.83006,0.0772 -11.77487,0.15658 -13.21065,0.17634 -1.66334,0.023 -2.61257,-0.0174 -2.6162,-0.11133 -0.01,-0.25895 2.61132,-0.35362 14.20738,-0.51315 6.23493,-0.0858 12.09811,-0.2169 13.0293,-0.2914 5.52275,-0.44176 22.63153,-0.63172 28.66839,-0.31826 4.12863,0.21436 17.92929,0.24976 19.47379,0.0499 0.81501,-0.10546 1.1528,-0.0975 1.28989,0.0303 0.14776,0.13774 0.15477,0.92391 0.0344,3.84678 -0.0832,2.02051 -0.22203,10.00059 -0.30843,17.73351 -0.26085,23.3436 -0.38496,31.06296 -0.57756,35.92261 -0.17839,4.5015 -0.12004,15.31045 0.0999,18.50566 0.091,1.3217 0.10236,1.35516 0.4768,1.39863 0.26849,0.0312 0.39768,0.14391 0.43062,0.37578 0.0395,0.27816 -0.0213,0.33125 -0.37975,0.33125 z m -22.8206,-42.13044 c -0.14594,-0.14596 -9.22283,-0.25847 -9.36526,-0.11607 -0.0879,0.0879 0.38609,3.62978 0.63269,4.72688 0.10824,0.48186 0.10535,1.33297 -0.01,2.87086 -0.0902,1.20228 -0.17196,2.48409 -0.18143,2.84846 l -0.0172,0.6625 3.68059,0.0736 c 2.02432,0.0406 3.76341,0.12724 3.86462,0.19273 0.10113,0.0655 0.18404,0.2231 0.18404,0.35022 0,0.19018 -0.12378,0.21518 -0.69932,0.14117 -0.91135,-0.11723 -6.95702,-0.14358 -7.06976,-0.031 -0.0476,0.0476 -0.10158,0.69861 -0.11993,1.44657 -0.0928,3.79792 -0.21889,6.77883 -0.29158,6.89641 -0.0446,0.0724 -0.18022,0.13163 -0.30105,0.13163 -0.23357,0 -0.23378,0.0381 0.0359,-6.36742 0.0565,-1.34382 0.042,-2.3189 -0.0345,-2.31907 -0.0727,-1.5e-4 -1.05967,-0.0959 -2.19329,-0.21285 -1.13361,-0.11685 -3.07146,-0.25852 -4.30629,-0.31473 l -2.24517,-0.10224 -5.3e-4,0.57266 c -2.8e-4,0.31497 -0.0628,1.59955 -0.13881,2.85464 -0.076,1.25507 -0.15864,3.20947 -0.18351,4.3431 l -0.0452,2.06112 h 2.57642 c 4.84699,0 15.32022,-0.26343 15.39676,-0.38727 0.0421,-0.068 0.10379,-1.79748 0.1372,-3.84324 0.0334,-2.04576 0.16293,-4.74646 0.28782,-6.00153 0.12493,-1.25509 0.29704,-3.27428 0.38258,-4.4871 0.0855,-1.21283 0.19244,-2.2397 0.23753,-2.28197 0.13475,-0.12634 -0.0623,-3.55764 -0.21283,-3.70828 z m -4.91697,16.43716 c -0.37472,0.47637 -0.75931,0.4706 -1.14296,-0.0172 -0.41921,-0.53295 -0.38983,-1.02204 0.0798,-1.32982 0.34189,-0.224 0.42732,-0.2285 0.76244,-0.0402 0.53577,0.30105 0.66951,0.91816 0.30063,1.38712 z m 2.19571,4.54745 c -2.18591,0.1008 -10.67901,0.28478 -13.94946,0.30225 l -2.13474,0.0115 0.0165,5.07921 0.0166,5.07923 2.33895,-0.0399 c 1.28643,-0.0219 3.10461,-0.0794 4.04041,-0.12763 l 1.70147,-0.0878 -0.0327,-2.44877 c -0.018,-1.34682 -0.0787,-3.22484 -0.13475,-4.17336 -0.11299,-1.91137 0.0797,-3.20741 0.47718,-3.20741 0.19043,0 0.20649,0.1686 0.10879,1.14098 -0.0631,0.62755 -0.10668,1.24036 -0.0969,1.36182 0.01,0.12147 0.083,1.77773 0.16287,3.68059 0.0799,1.90288 0.14882,3.50946 0.15331,3.57018 0.003,0.0607 1.25034,0.11697 2.76859,0.12506 3.4805,0.0183 5.22024,0.1465 5.30066,0.39025 0.0475,0.14422 -0.81233,0.18403 -3.97578,0.18403 h -4.03653 l 0.0693,4.56394 c 0.0609,4.02694 0.0427,4.56393 -0.15587,4.56393 -0.12378,0 -0.26528,-0.10479 -0.31443,-0.23287 -0.0492,-0.12814 -0.0894,-1.57542 -0.0894,-3.21631 0,-1.64089 -0.0436,-3.59891 -0.097,-4.35116 l -0.097,-1.36772 -2.36891,0.0966 c -1.30292,0.0532 -3.13769,0.10113 -4.0773,0.10657 l -1.70838,0.01 -0.10524,4.36703 c -0.058,2.40187 -0.1603,4.42331 -0.22753,4.49208 -0.0672,0.0688 -0.25781,0.082 -0.42354,0.0294 -0.28991,-0.092 -0.29898,-0.18045 -0.23938,-2.3334 0.0341,-1.23077 0.10301,-3.21215 0.15299,-4.40307 l 0.091,-2.16529 -0.39058,-0.098 c -0.21483,-0.054 -1.40181,-0.0223 -2.63774,0.0703 -1.23593,0.0926 -3.32784,0.21085 -4.64872,0.26285 l -2.40159,0.0945 0.0965,1.19075 c 0.12005,1.48252 0.34411,4.74388 0.44403,6.46338 0.0739,1.27277 0.0692,1.29671 -0.24935,1.2514 -0.31159,-0.0443 -0.3288,-0.12967 -0.42457,-2.10732 -0.0549,-1.13362 -0.1837,-3.14739 -0.28623,-4.47505 l -0.1864,-2.4139 -3.54159,0.0972 c -1.94788,0.0535 -3.74918,0.1358 -4.0029,0.18295 l -0.4613,0.0857 0.0584,1.27403 c 0.0743,1.62097 0.3334,5.45845 0.43541,6.44818 l 0.078,0.75746 2.60457,0.12584 c 3.24555,0.15687 9.17763,0.15353 22.79779,-0.0129 l 10.6237,-0.12971 0.0864,-1.11724 c 0.0476,-0.61448 0.0826,-2.04474 0.0779,-3.17837 -0.003,-1.13361 0.0601,-3.3199 0.14406,-4.85838 0.0839,-1.53849 0.2239,-4.38518 0.31099,-6.32598 0.087,-1.94078 0.18805,-3.5584 0.22435,-3.5947 0.0362,-0.0363 0.066,-0.29483 0.066,-0.5745 v -0.50851 z m -2.27187,16.03817 c -0.0796,0.29544 -0.61065,0.54372 -1.16284,0.54372 -0.38513,0 -0.94361,-0.72204 -0.94465,-1.22129 -5.5e-4,-0.3544 0.64991,-0.98705 1.01511,-0.98705 0.65501,0 1.28315,0.95718 1.09238,1.66462 z m -0.78302,-9.61471 c -0.16195,0.16194 -0.35641,0.29444 -0.43209,0.29444 -0.42408,0 -0.92457,-0.3508 -1.13748,-0.79725 -0.22611,-0.47419 -0.22593,-0.53549 0.002,-0.88435 0.13509,-0.20617 0.42168,-0.41906 0.63688,-0.47306 0.3195,-0.0802 0.46769,-0.0129 0.80786,0.36805 0.48929,0.54759 0.53298,1.08135 0.12212,1.49217 z m -8.50218,10.19182 c -0.14171,0.12442 -0.39036,0.26647 -0.55259,0.31566 -0.38075,0.11543 -1.20539,-0.38252 -1.42245,-0.85894 -0.1421,-0.31183 -0.10924,-0.4371 0.23132,-0.88368 0.283,-0.37104 0.5109,-0.51968 0.79425,-0.51809 0.51341,0.002 0.67183,0.11609 0.96573,0.68976 0.31028,0.60565 0.30552,0.97271 -0.0163,1.25529 z m -9.67328,-0.24753 c -0.65504,0.65504 -1.58924,0.39634 -1.86252,-0.51577 -0.21173,-0.70672 -0.0517,-1.18383 0.52305,-1.56051 1.16209,-0.76141 2.34445,1.07131 1.33947,2.07628 z m 14.41226,-35.26678 c -0.32853,-2.48327 -0.14623,-2.26697 -1.81096,-2.14865 -0.78043,0.0555 -2.63685,0.16186 -4.12538,0.23644 -1.48852,0.0746 -2.7224,0.15438 -2.74194,0.17736 -0.0195,0.023 -0.0828,2.27184 -0.14057,4.99748 l -0.10502,4.95569 0.93306,0.081 c 0.51318,0.0445 1.72808,0.11748 2.69974,0.16214 0.97168,0.0447 2.51323,0.15644 3.42566,0.24842 0.91243,0.0919 1.69771,0.12851 1.74508,0.0812 0.12865,-0.12867 0.35289,-2.18175 0.428,-3.91877 0.0364,-0.84261 0.09,-1.55579 0.11915,-1.58486 0.029,-0.029 -0.003,-0.39968 -0.075,-0.82357 -0.0704,-0.42391 -0.22861,-1.5326 -0.3518,-2.4638 z m -11.0696,-1.6848 c -0.87046,0.0337 -4.29894,0.0956 -7.61883,0.13721 -3.3199,0.0417 -6.66556,0.11749 -7.4348,0.16857 l -1.39863,0.0927 0.0366,5.24385 c 0.0208,2.97219 -0.0325,5.94543 -0.12274,6.86333 -0.3578,3.63769 -0.42493,4.35558 -0.58912,6.29986 -0.0944,1.1167 -0.14164,2.06019 -0.10512,2.09665 0.0364,0.0364 1.75072,0.003 3.80951,-0.0722 2.05877,-0.0761 6.12824,-0.21682 9.04328,-0.3126 2.91503,-0.0958 5.31079,-0.18195 5.32395,-0.1915 0.14663,-0.10657 0.52781,-11.43216 0.61096,-18.15246 l 0.0276,-2.23494 z m 0.99376,23.36191 v -2.42235 l -4.82158,0.10512 c -2.65187,0.0579 -4.88761,0.16741 -4.96831,0.24348 -0.0888,0.0838 -0.15828,1.68784 -0.17604,4.06971 -0.0161,2.16224 -0.069,4.14666 -0.11761,4.40983 -0.0485,0.26316 -0.0429,0.72024 0.0129,1.01573 l 0.10079,0.53726 2.5191,-0.10224 c 1.38551,-0.0563 3.18161,-0.16572 3.99134,-0.24335 0.80974,-0.0777 1.91682,-0.18343 2.46017,-0.23508 l 0.98796,-0.0938 0.0595,-1.12012 c 0.0326,-0.61608 0.0353,-1.70999 0.007,-2.43096 -0.0295,-0.72095 -0.0535,-2.40088 -0.0535,-3.73318 z m -14.95955,-2.01983 c -1.62844,0.0558 -3.05161,0.15775 -3.16259,0.22634 -0.15735,0.0972 -0.24651,1.19782 -0.40489,4.99832 -0.11171,2.6805 -0.17189,4.90483 -0.13374,4.94298 0.0382,0.0381 0.65832,10e-4 1.37818,-0.0806 0.71984,-0.0825 2.51356,-0.15049 3.98603,-0.15115 l 2.67722,-0.001 -0.01,-0.92014 c -0.0294,-2.58763 0.0572,-7.3572 0.14766,-8.13412 l 0.10279,-0.88334 -0.80973,-0.0493 c -0.44535,-0.0272 -2.14208,-0.003 -3.77053,0.0523 z m -4.11028,15.21599 c -0.11903,-1.26541 -0.21649,-3.70427 -0.21649,-5.4197 0,-2.75434 0.0603,-4.16295 0.36472,-8.52416 l 0.0754,-1.08051 -1.28744,0.10002 c -0.70809,0.055 -1.71807,0.16095 -2.24439,0.23549 -0.52633,0.0745 -3.04386,0.23796 -5.59451,0.36317 -2.55065,0.12519 -5.10858,0.26398 -5.6843,0.30839 l -1.04674,0.0808 -0.0872,1.13014 c -0.11787,1.52827 -0.46856,17.07167 -0.38695,17.15002 0.0355,0.0342 0.42917,-0.008 0.87451,-0.0924 0.51187,-0.0977 3.47703,-0.14321 8.06058,-0.12377 3.98796,0.017 7.30049,2.3e-4 7.36119,-0.0372 0.13759,-0.0847 0.0888,-1.14353 -0.18846,-4.09034 z"
       id="path57" /></g></svg>
