<?xml version="1.0" encoding="UTF-8" standalone="no"?>
<!-- Created with Inkscape (http://www.inkscape.org/) -->

<svg
   width="188.32607mm"
   height="163.4052mm"
   viewBox="0 0 188.32607 163.4052"
   version="1.1"
   id="svg1"
   xml:space="preserve"
   inkscape:version="1.4.2 (2aeb623e1d, 2025-05-12)"
   sodipodi:docname="source.svg"
   xmlns:inkscape="http://www.inkscape.org/namespaces/inkscape"
   xmlns:sodipodi="http://sodipodi.sourceforge.net/DTD/sodipodi-0.dtd"
   xmlns="http://www.w3.org/2000/svg"
   xmlns:svg="http://www.w3.org/2000/svg"><sodipodi:namedview
     id="namedview1"
     pagecolor="#ffffff"
     bordercolor="#000000"
     borderopacity="0.25"
     inkscape:showpageshadow="2"
     inkscape:pageopacity="0.0"
     inkscape:pagecheckerboard="0"
     inkscape:deskcolor="#d1d1d1"
     inkscape:document-units="mm"
     inkscape:zoom="1.6774762"
     inkscape:cx="-34.575752"
     inkscape:cy="346.65172"
     inkscape:window-width="3774"
     inkscape:window-height="2091"
     inkscape:window-x="0"
     inkscape:window-y="0"
     inkscape:window-maximized="1"
     inkscape:current-layer="layer1" /><defs
     id="defs1" /><g
     inkscape:label="Layer 1"
     inkscape:groupmode="layer"
     id="layer1"
     transform="translate(-10.567711,-129.17844)"><rect
       style="fill:#ffffff;fill-opacity:1;stroke-width:0.264583"
       id="rect308"
       width="188.32607"
       height="163.4052"
       x="10.567711"
       y="129.17844" /><g
       id="g307"
       transform="translate(-4.1009028,43.690388)"><path
         style="fill:#000000;stroke-width:0.736355"
         d="m 177.98465,112.93744 c 0.10244,-0.87182 0.33465,-1.11094 0.74669,-0.76897 0.23936,0.19864 0.29721,0.47955 0.22702,1.10225 -0.0813,0.72103 -0.044,0.83569 0.27153,0.83569 0.30225,0 0.36572,-0.14856 0.36572,-0.85588 0,-0.92185 0.37215,-1.29076 0.79189,-0.785 0.28376,0.34191 0.14769,3.38529 -0.18972,4.24352 -0.1883,0.47893 -0.26206,0.52118 -0.5266,0.30164 -0.22852,-0.18966 -0.27651,-0.44987 -0.18664,-1.01188 l 0.12098,-0.75658 -0.59742,0.13122 c -1.07884,0.23695 -1.28099,-0.24421 -1.02345,-2.43601 z"
         id="path159" /><path
         style="fill:#000000;stroke-width:0.736355"
         d="m 174.55918,112.17719 c 0.91951,-0.32054 1.49047,-0.26128 1.72618,0.17917 0.16012,0.29917 0.14074,0.49244 -0.0812,0.80923 -0.2636,0.37634 -0.2551,0.46247 0.0888,0.8996 0.79673,1.01289 0.22475,2.02308 -1.16615,2.05955 -0.85774,0.0225 -1.29644,-0.26802 -1.11576,-0.73886 0.073,-0.1904 0.35782,-0.30646 0.75647,-0.30832 1.13258,-0.005 1.26379,-0.26225 0.51586,-1.01019 -0.36551,-0.3655 -0.81603,-0.72266 -1.00115,-0.79371 -0.56718,-0.21764 -0.40527,-0.85865 0.27695,-1.09647 z"
         id="path155" /><path
         style="fill:#000000;stroke-width:0.736355"
         d="m 169.76993,111.44425 c 0.4647,-0.17832 0.75736,0.25017 0.75736,1.10885 0,0.4257 0.0677,0.774 0.15055,0.774 0.0828,0 0.15055,-0.21918 0.15055,-0.48707 0,-0.71234 0.73064,-0.6724 0.89112,0.0487 0.0656,0.29468 0.15848,0.68182 0.20646,0.86033 0.048,0.1785 -0.004,0.38097 -0.11563,0.44992 -0.11157,0.0689 -0.30089,0.5147 -0.42071,0.99054 -0.25167,0.99947 -0.66661,1.13151 -0.85535,0.27219 -0.0716,-0.32614 -0.34161,-0.80435 -0.59996,-1.0627 -0.39335,-0.39335 -0.46973,-0.66222 -0.46973,-1.65366 0,-0.89522 0.0745,-1.2125 0.30534,-1.3011 z"
         id="path151" /><path
         style="fill:#000000;stroke-width:0.736355"
         d="m 167.22163,112.45037 c 0.0374,-0.10715 0.12295,-0.5236 0.19015,-0.92543 0.0742,-0.44373 0.23078,-0.7306 0.39875,-0.7306 0.46841,0 0.64675,0.62157 0.47512,1.65603 -0.0889,0.53578 -0.16684,1.51692 -0.17323,2.18031 -0.0117,1.21889 -0.19843,1.62014 -0.54824,1.17832 -0.19085,-0.24105 -0.4712,-2.9898 -0.34255,-3.35863 z"
         id="path147" /><path
         style="fill:#000000;stroke-width:0.736355"
         d="m 165.37322,113.03485 c 0.10716,-0.0662 0.19483,-0.0275 0.19483,0.0859 0,0.11348 -0.0877,0.20633 -0.19483,0.20633 -0.10715,0 -0.19482,-0.0387 -0.19482,-0.0859 0,-0.0473 0.0877,-0.1401 0.19482,-0.20633 z"
         id="path144" /><path
         style="fill:#000000;stroke-width:0.736355"
         d="m 161.31592,113.27839 c 0.99143,-2.67639 1.38611,-3.20087 1.64186,-2.18189 0.0831,0.33097 -0.0711,0.99808 -0.4615,1.99698 -0.32243,0.825 -0.78459,2.05184 -1.02701,2.72631 -0.31848,0.88609 -0.52724,1.20995 -0.75246,1.1673 -0.55392,-0.10489 -0.41321,-0.97593 0.59911,-3.7087 z"
         id="path142" /><path
         style="fill:#000000;stroke-width:0.736355"
         d="m 155.31415,112.06072 c 0.35231,-0.93476 0.45236,-1.01337 1.45981,-1.14701 1.04325,-0.13839 2.05394,0.13128 1.92637,0.51399 -0.0443,0.13272 -0.54022,0.34341 -1.10219,0.4682 -0.56197,0.1248 -1.07597,0.28111 -1.14222,0.34737 -0.0663,0.0663 0.19346,0.37923 0.57714,0.69549 1.19381,0.98404 1.14926,2.20128 -0.10231,2.79519 -0.85822,0.40726 -1.62083,0.17128 -1.80392,-0.55818 -0.15481,-0.61681 0.008,-0.81649 0.40037,-0.49089 0.36509,0.30299 1.18869,0.11869 1.35018,-0.30213 0.19224,-0.50096 -0.0605,-0.68666 -0.75687,-0.55603 -0.52774,0.099 -0.68971,0.0476 -0.86153,-0.27345 -0.24948,-0.46615 -0.24054,-0.70795 0.0551,-1.49255 z"
         id="path138" /><path
         style="fill:#000000;stroke-width:0.736355"
         d="m 150.93294,111.57586 c 0.13798,-0.77844 0.66636,-1.01004 0.97759,-0.4285 0.13394,0.25027 0.13834,0.59675 0.0132,1.03331 -0.1036,0.36123 -0.18836,0.76696 -0.18836,0.90161 0,0.25721 0.57279,0.35135 0.6005,0.0987 0.0655,-0.59673 0.22014,-1.32395 0.29828,-1.40209 0.0517,-0.0517 0.24326,-6.3e-4 0.42565,0.11354 0.42804,0.26796 0.52328,1.26922 0.24158,2.53987 -0.27186,1.22625 -0.65848,1.64151 -0.97598,1.04827 -0.11904,-0.22244 -0.19091,-0.55687 -0.15971,-0.74318 0.0392,-0.23365 -0.0944,-0.35964 -0.43032,-0.40612 -0.26789,-0.037 -0.59666,-0.15738 -0.73061,-0.26739 -0.25128,-0.20638 -0.28276,-1.29763 -0.0718,-2.48802 z"
         id="path134" /><path
         style="fill:#000000;stroke-width:0.736355"
         d="m 146.42981,113.0532 c 0.42315,-0.39152 0.93496,-1.01934 1.13736,-1.39517 0.26007,-0.48292 0.48243,-0.66692 0.75815,-0.62739 0.43437,0.0623 0.44219,0.18908 0.18686,3.02706 -0.10508,1.168 -0.21819,1.60733 -0.41384,1.60733 -0.30648,0 -0.64923,-0.77333 -0.64923,-1.46483 0,-0.46049 -0.006,-0.46188 -0.5778,-0.13371 -0.5333,0.30607 -0.60217,0.30723 -0.89433,0.0151 -0.29215,-0.29215 -0.25728,-0.37135 0.45283,-1.02837 z"
         id="path130" /><path
         style="fill:#000000;stroke-width:0.736355"
         d="m 141.9228,110.61365 c 0.61112,-0.4807 1.29131,-0.51958 1.71297,-0.0979 0.53585,0.53586 0.56815,1.21603 0.12227,2.5743 -0.25986,0.79158 -0.34919,1.32566 -0.22846,1.36591 0.10904,0.0364 0.42184,0.24195 0.6951,0.4569 0.57958,0.4559 0.69812,1.08443 0.1559,0.82658 -0.18752,-0.0892 -0.84764,-0.14194 -1.46694,-0.11726 -1.37395,0.0547 -1.54284,-0.19635 -0.84406,-1.25492 0.53843,-0.81566 1.09333,-2.24282 1.09333,-2.81196 0,-0.56939 -0.58651,-0.21502 -0.71604,0.43264 -0.13448,0.6724 -0.32853,0.70593 -0.73412,0.12687 -0.43482,-0.62079 -0.37615,-1.04001 0.21005,-1.50113 z"
         id="path126" /><path
         style="fill:#000000;stroke-width:0.736355"
         d="m 136.70814,112.2569 c 0.65787,-1.95838 1.01009,-2.74438 1.25054,-2.79069 0.64534,-0.12427 0.56963,0.59127 -0.35279,3.33472 -1.11438,3.31433 -1.18533,3.46574 -1.55715,3.32306 -0.45494,-0.17457 -0.32498,-0.93674 0.6594,-3.86709 z"
         id="path122" /><path
         style="fill:#000000;stroke-width:0.736355"
         d="m 130.99418,109.69964 c 0.63199,-0.41408 1.36682,-0.12641 1.67045,0.65395 0.21322,0.54797 0.13489,2.79279 -0.11906,3.41187 -0.11116,0.271 -0.0401,0.34095 0.34648,0.34095 0.26748,0 0.69331,0.17356 0.94627,0.38569 0.39443,0.33077 0.41832,0.41493 0.16771,0.5909 -0.17179,0.12063 -0.71384,0.15663 -1.31509,0.0874 -0.67107,-0.0773 -1.02284,-0.046 -1.02284,0.091 0,0.30816 -0.49955,0.2537 -0.78075,-0.0851 -0.20083,-0.24199 -0.15044,-0.42896 0.28502,-1.05731 0.57377,-0.82796 0.90576,-2.35043 0.51253,-2.35043 -0.3739,0 -1.18576,-0.92462 -1.18576,-1.35045 0,-0.21671 0.22277,-0.53998 0.49504,-0.71839 z m 0.79218,1.67918 c 0.0421,0 0.0766,-0.18052 0.0766,-0.40115 0,-0.22063 -0.0839,-0.34933 -0.18632,-0.286 -0.16822,0.10396 -0.0751,0.68715 0.10975,0.68715 z"
         id="path118" /><path
         style="fill:#000000;stroke-width:0.736355"
         d="m 128.45143,109.86148 c 0.36782,0.0527 0.39167,0.20056 0.39167,2.42683 0,2.39837 -0.10343,2.86435 -0.53902,2.42828 -0.1635,-0.16369 -0.24093,-0.98679 -0.24231,-2.5759 -0.002,-2.22866 0.0158,-2.33279 0.38966,-2.27921 z"
         id="path115" /></g><g
       id="g308"
       transform="translate(-92.901221,54.573553)"><path
         style="fill:#000000;stroke-width:0.736355"
         d="m 179.02771,101.34522 c 0.0905,-0.42862 0.21652,-1.11353 0.27995,-1.522013 0.0972,-0.626079 0.18241,-0.733145 0.54258,-0.681894 0.39366,0.05604 0.42361,0.156586 0.38078,1.278477 -0.0399,1.04554 0.001,1.21724 0.29224,1.21469 0.56539,-0.005 0.76656,-0.24633 1.05184,-1.26191 0.17504,-0.623094 0.39377,-0.995852 0.60866,-1.037235 0.47278,-0.09105 0.62941,0.474441 0.38503,1.390025 -0.15315,0.57377 -0.14878,0.87966 0.0164,1.14995 0.18294,0.29933 0.16125,0.4045 -0.11589,0.56195 -0.18752,0.10653 -0.34095,0.31672 -0.34095,0.46709 0,0.56776 -0.46116,1.26586 -0.83623,1.26586 -0.33674,0 -0.37093,-0.0977 -0.27756,-0.79378 0.0919,-0.68486 0.062,-0.77616 -0.21788,-0.66532 -0.775,0.30694 -1.6327,0.34277 -1.80208,0.0753 -0.19518,-0.30825 -0.19383,-0.36683 0.0331,-1.44115 z"
         id="path160" /><path
         style="fill:#000000;stroke-width:0.736355"
         d="m 175.62793,99.313671 c 0.78381,-0.61655 2.01941,-0.502385 2.01941,0.186585 0,0.194619 -0.23604,0.634374 -0.52452,0.977224 -0.50589,0.60121 -0.51149,0.63289 -0.15759,0.89167 0.20181,0.14757 0.43559,0.26831 0.51952,0.26831 0.22587,0 0.74707,1.08682 0.74707,1.5578 0,0.70117 -0.85122,1.36461 -1.75087,1.36461 -0.6457,0 -0.82495,-0.0821 -0.95738,-0.43837 -0.30014,-0.80741 0.18337,-1.25557 0.65651,-0.60851 0.1887,0.25805 0.31028,0.27487 0.65467,0.0905 0.6598,-0.35311 0.51372,-0.90449 -0.40507,-1.52896 -0.70391,-0.47841 -0.82102,-0.65255 -0.7813,-1.16176 0.03,-0.3842 -0.0574,-0.63893 -0.24353,-0.71037 -0.42454,-0.1629 -0.35683,-0.432614 0.22308,-0.888779 z"
         id="path156" /><path
         style="fill:#000000;stroke-width:0.736355"
         d="m 170.52682,99.373567 c 0.51786,-0.198728 0.69122,0.132926 0.69122,1.322373 v 1.17859 l 0.53383,-0.13399 c 0.65993,-0.16562 0.82316,-0.40977 0.82698,-1.23689 0.003,-0.558569 0.0627,-0.63825 0.44135,-0.584481 0.36805,0.05228 0.45761,0.218501 0.5584,1.036391 0.0661,0.53578 0.0441,1.05743 -0.0487,1.15923 -0.0928,0.10179 -0.16875,0.55269 -0.16875,1.00199 0,0.52111 -0.0989,0.85488 -0.27319,0.92175 -0.3871,0.14855 -0.50611,-0.0339 -0.50611,-0.77604 v -0.64796 l -0.91416,0.0472 c -0.80179,0.0415 -0.94513,-0.0127 -1.16609,-0.43983 -0.35755,-0.69125 -0.33968,-2.708345 0.0253,-2.84837 z"
         id="path152" /><path
         style="fill:#000000;stroke-width:0.736355"
         d="m 168.43997,100.01791 c 0.0647,-1.037889 0.10644,-1.1274 0.49894,-1.071555 0.47261,0.06723 0.4543,-0.123295 0.37145,3.866185 -0.033,1.58724 -0.0992,1.97687 -0.3525,2.07407 -0.17154,0.0658 -0.38938,-0.003 -0.48408,-0.15223 -0.16594,-0.26207 -0.18096,-2.35805 -0.0338,-4.71647 z"
         id="path150" /><path
         style="fill:#000000;stroke-width:0.736355"
         d="m 161.76656,101.54004 c 0.98457,-2.662166 1.29612,-3.312058 1.58777,-3.312058 0.59405,0 0.42311,0.904553 -0.79161,4.188788 -1.1281,3.05005 -1.45801,3.66123 -1.84666,3.42103 -0.37043,-0.22894 -0.20698,-0.89763 1.0505,-4.29776 z"
         id="path143" /><path
         style="fill:#000000;stroke-width:0.736355"
         d="m 155.58164,100.66332 c 0.0832,-1.228997 0.28221,-1.542345 0.73887,-1.163351 0.24443,0.202859 0.30116,0.540701 0.25179,1.499481 -0.0585,1.1349 -0.0321,1.23296 0.31683,1.18135 0.302,-0.0447 0.4258,-0.3074 0.59979,-1.27302 0.25042,-1.389718 0.29875,-1.471078 0.76708,-1.291364 0.2939,0.112781 0.32385,0.291494 0.21304,1.270964 -0.0846,0.74778 -0.0586,1.13973 0.0755,1.13973 0.30084,0 0.2493,0.72044 -0.06,0.83914 -0.14549,0.0558 -0.32137,0.38563 -0.39081,0.73288 -0.14972,0.74858 -0.45071,1.15557 -0.85462,1.15557 -0.2308,0 -0.2679,-0.15873 -0.17414,-0.74511 0.11789,-0.7372 0.11297,-0.74419 -0.46394,-0.65951 -0.76624,0.11245 -1.17269,-0.25 -1.12798,-1.00587 0.0198,-0.33514 0.0687,-1.09154 0.10857,-1.68089 z"
         id="path139" /><path
         style="fill:#000000;stroke-width:0.736355"
         d="m 151.28853,100.85815 c 0.10231,-1.288507 0.17373,-1.419372 0.63872,-1.170513 0.31871,0.170569 0.39254,0.406913 0.39254,1.256543 0,0.95053 0.0357,1.03711 0.38966,0.94455 0.26419,-0.0691 0.39051,-0.26709 0.39232,-0.61494 0.005,-0.98076 0.21545,-1.414148 0.65592,-1.351293 0.38167,0.05449 0.40902,0.162283 0.36094,1.422723 -0.0925,2.42509 -0.21891,3.01982 -0.64181,3.01982 -0.30439,0 -0.37772,-0.13734 -0.37772,-0.70739 0,-0.69934 -0.008,-0.70613 -0.68046,-0.59696 -0.78849,0.12795 -1.2871,-0.23632 -1.23378,-0.90137 0.0187,-0.23345 0.0654,-0.81897 0.10367,-1.30117 z"
         id="path135" /><path
         style="fill:#000000;stroke-width:0.736355"
         d="m 148.63766,100.97163 c 0.1735,-1.646155 0.34255,-1.993935 0.87069,-1.791268 0.27885,0.106999 0.31114,0.290455 0.20168,1.146118 -0.0716,0.56031 -0.18314,1.80779 -0.24772,2.77218 -0.12601,1.88193 -0.32283,2.39757 -0.77267,2.02424 -0.29892,-0.24808 -0.31639,-1.64267 -0.052,-4.15127 z"
         id="path131" /><path
         style="fill:#000000;stroke-width:0.736355"
         d="m 143.11421,103.8472 c 0.29467,-0.21796 0.65501,-0.61932 0.80074,-0.89191 0.23743,-0.44408 0.22223,-0.53839 -0.14611,-0.90673 -0.42198,-0.42197 -0.48373,-0.61215 -0.41816,-1.28783 0.0873,-0.899542 1.44579,-1.553256 2.02474,-0.974304 0.57467,0.574664 0.27755,2.071044 -0.7973,4.015524 -0.0361,0.0653 0.35398,0.23237 0.86688,0.37118 1.01268,0.27406 1.46791,0.54065 1.32317,0.77485 -0.0732,0.11838 -1.51831,0.12127 -4.04362,0.008 -0.35505,-0.0159 -0.0976,-0.74844 0.38966,-1.10887 z m 1.48246,-2.22273 c 0.21163,-0.2337 0.3234,-0.96115 0.14767,-0.96115 -0.3061,0 -0.61132,0.65322 -0.40358,0.86374 0.0987,0.10001 0.21385,0.14385 0.25591,0.0974 z"
         id="path127" /><path
         style="fill:#000000;stroke-width:0.736355"
         d="m 137.0242,105.14435 c 0.1432,-0.37505 0.57216,-1.42711 0.95324,-2.33793 0.38108,-0.91081 0.74944,-2.02971 0.81856,-2.48644 0.0691,-0.45673 0.19532,-0.873455 0.28044,-0.926061 0.29876,-0.184648 0.77441,0.146189 0.77441,0.538637 0,1.252144 -1.88929,5.852014 -2.49979,6.086294 -0.47956,0.18402 -0.60396,-0.1488 -0.32686,-0.8745 z"
         id="path123" /><path
         style="fill:#000000;stroke-width:0.736355"
         d="m 131.49886,100.96729 c 0.53025,-0.67411 1.2406,-0.9544 1.74062,-0.6868 0.46947,0.25126 0.51039,1.43964 0.0847,2.45857 -0.16073,0.38469 -0.29224,0.765 -0.29224,0.84515 0,0.24919 1.68927,0.63263 2.14702,0.48735 0.47376,-0.15037 0.80925,0.17338 0.63911,0.61676 -0.12321,0.32107 -0.95754,0.33479 -2.14688,0.0353 -0.82874,-0.20869 -0.92303,-0.19384 -1.23775,0.19482 -0.39011,0.48176 -0.92216,0.5515 -1.07949,0.14151 -0.0589,-0.15358 0.12801,-0.68048 0.41542,-1.17091 0.66522,-1.13512 1.16153,-2.70486 0.81928,-2.59122 -0.13123,0.0436 -0.32275,0.33507 -0.42562,0.64778 -0.10285,0.31271 -0.20493,0.59759 -0.22684,0.63306 -0.0219,0.0355 -0.22269,-0.0334 -0.44618,-0.15298 -0.51967,-0.27812 -0.51655,-0.79042 0.009,-1.45841 z"
         id="path119" /><path
         style="fill:#000000;stroke-width:0.736355"
         d="m 127.76487,103.68919 c 0.21064,-0.19062 0.71475,-0.99289 1.12026,-1.7828 0.7035,-1.37041 1.25323,-1.81627 1.47261,-1.19436 0.1596,0.45241 -0.10756,4.33384 -0.30719,4.463 -0.45981,0.29751 -0.72045,-0.0888 -0.72485,-1.07437 l -0.004,-1.002 -0.42347,0.73061 c -0.33028,0.5698 -0.54368,0.7306 -0.96966,0.7306 -0.64521,0 -0.71484,-0.37147 -0.16322,-0.87068 z"
         id="path114" /></g><g
       id="g306"
       transform="translate(-92.901222,150.31387)"><path
         style="fill:#000000;stroke-width:0.736355"
         d="m 176.81882,125.52055 c 0.0653,-0.0653 0.40175,-0.0657 0.74763,-7.4e-4 0.48902,0.0917 0.72391,0.0229 1.05625,-0.30942 0.54211,-0.5421 0.25894,-0.88814 -0.66186,-0.80881 -0.80343,0.0692 -0.97164,-0.26429 -0.70397,-1.39581 0.10591,-0.44768 0.17134,-0.98443 0.1454,-1.19276 -0.0978,-0.78538 2.74663,-0.89465 3.16046,-0.12141 0.15619,0.29186 0.11067,0.38171 -0.24117,0.47603 -0.23853,0.0639 -0.66763,0.11745 -0.95355,0.11892 -0.80987,0.004 -1.1039,0.18145 -0.99452,0.59972 0.0542,0.20739 0.2046,0.37707 0.33417,0.37707 0.48972,0 1.08278,0.89209 1.08278,1.62874 0,1.29888 -1.37052,2.1105 -2.52264,1.49391 -0.39018,-0.20881 -0.63454,-0.67982 -0.44898,-0.86539 z"
         id="path158" /><path
         style="fill:#000000;stroke-width:0.736355"
         d="m 173.39021,121.72373 c 0.88235,-0.30758 1.42327,-0.26459 1.79159,0.1424 0.39943,0.44137 0.3999,0.51256 0.006,0.90651 -0.2921,0.2921 -0.28459,0.35044 0.0974,0.75707 0.57712,0.61431 0.53159,1.36617 -0.11344,1.87355 -0.58944,0.46366 -1.34698,0.40108 -1.7645,-0.14578 -0.36767,-0.48154 -0.19535,-0.70582 0.55117,-0.71742 0.36802,-0.006 0.66913,-0.10319 0.66913,-0.21662 0,-0.30222 -1.06663,-1.51968 -1.20776,-1.37855 -0.18917,0.18918 -0.6431,-0.27706 -0.6431,-0.66054 0,-0.21375 0.23531,-0.42876 0.61355,-0.56062 z"
         id="path154" /><path
         style="fill:#000000;stroke-width:0.736355"
         d="m 168.03372,121.8367 c 0.38319,-0.38319 1.04122,0.28093 1.04122,1.05085 0,0.44303 0.0882,0.57057 0.39453,0.57057 0.28249,0 0.42771,-0.16597 0.51142,-0.58448 0.12631,-0.63158 0.46508,-0.75302 0.8401,-0.30116 0.31043,0.37404 0.0683,2.7357 -0.31298,3.05209 -0.22453,0.18634 -0.32012,0.11274 -0.51126,-0.39365 -0.19629,-0.52002 -0.31094,-0.6038 -0.6945,-0.50754 -0.65287,0.16386 -0.96907,-0.18696 -1.11086,-1.23249 -0.0678,-0.50022 -0.16077,-1.04735 -0.20652,-1.21583 -0.0457,-0.16849 -0.0238,-0.36575 0.0488,-0.43836 z"
         id="path149" /><path
         style="fill:#000000;stroke-width:0.736355"
         d="m 166.48166,121.46114 c 0.10588,-0.40515 0.511,-0.44494 0.81392,-0.0799 0.15399,0.18553 0.1646,0.81091 0.0367,2.16271 -0.0989,1.04595 -0.22575,1.94755 -0.28178,2.00358 -0.056,0.056 -0.23715,0.0499 -0.4025,-0.0135 -0.24347,-0.0934 -0.29635,-0.45925 -0.27805,-1.92364 0.0125,-0.99454 0.0627,-1.96169 0.11171,-2.14921 z"
         id="path146" /><path
         style="fill:#000000;stroke-width:0.736355"
         d="m 160.40803,123.25722 c 0.3691,-1.12847 0.79902,-2.22437 0.95538,-2.43534 0.26823,-0.36194 0.30335,-0.3648 0.62208,-0.0507 0.32027,0.31558 0.30572,0.4148 -0.28033,1.91203 -0.33998,0.86855 -0.62007,1.68316 -0.62242,1.81025 -0.002,0.12709 -0.17808,0.6141 -0.39049,1.08225 -0.32588,0.71819 -0.43175,0.81338 -0.67762,0.60933 -0.4045,-0.3357 -0.36969,-0.5948 0.3934,-2.92778 z"
         id="path141" /><path
         style="fill:#000000;stroke-width:0.736355"
         d="m 154.45938,122.30428 c 0.0555,-0.58103 0.19736,-1.08807 0.31522,-1.12674 0.39189,-0.12861 0.74355,0.54957 0.6875,1.32586 -0.0761,1.05413 0.31095,0.95836 0.47218,-0.11683 0.1468,-0.97892 0.54807,-1.16643 0.89004,-0.41589 0.19895,0.43665 -0.0336,2.92627 -0.29804,3.19071 -0.20956,0.20956 -0.69959,-0.15177 -0.69959,-0.51585 0,-0.28704 -0.15389,-0.39877 -0.61217,-0.44448 -0.74549,-0.0743 -0.8937,-0.44662 -0.75514,-1.89678 z"
         id="path137" /><path
         style="fill:#000000;stroke-width:0.736355"
         d="m 150.13728,121.75337 c 0.0388,-0.81455 0.13877,-1.21766 0.30199,-1.21766 0.47956,0 0.71156,0.48316 0.71156,1.48193 0,0.91842 0.0368,1.00471 0.38966,0.91244 0.29107,-0.0761 0.38965,-0.26574 0.38965,-0.74957 0,-0.35622 0.0798,-0.69697 0.17724,-0.75721 0.24971,-0.15433 0.74734,0.0661 0.86981,0.3852 0.0976,0.25423 -0.16368,2.3284 -0.38567,3.06212 -0.16596,0.54851 -0.66015,0.39579 -0.78802,-0.24354 -0.0959,-0.47955 -0.21317,-0.58448 -0.65317,-0.58448 -0.89232,0 -1.09976,-0.46876 -1.01305,-2.28923 z"
         id="path133" /><path
         style="fill:#000000;stroke-width:0.736355"
         d="m 145.71008,121.8995 c 0.9041,-1.20681 1.04959,-1.30379 1.45334,-0.9687 0.3081,0.2557 0.36257,1.47733 0.12572,2.81955 -0.10701,0.60645 -0.23418,0.79313 -0.57325,0.84157 -0.3927,0.0561 -0.43635,-0.0208 -0.44194,-0.77931 -0.006,-0.76129 -0.0321,-0.80741 -0.27753,-0.48349 -0.30924,0.40809 -0.95065,0.36585 -1.03364,-0.068 -0.0305,-0.15951 0.30578,-0.77221 0.7473,-1.36156 z"
         id="path128" /><path
         style="fill:#000000;stroke-width:0.736355"
         d="m 140.57517,121.66895 c 0.51401,-0.82861 1.10498,-1.06118 1.70218,-0.66988 0.58339,0.38225 0.63402,0.96771 0.20578,2.37937 -0.15958,0.52602 -0.29108,0.96856 -0.29225,0.98342 -0.001,0.0149 0.29594,0.0829 0.66021,0.15128 0.72522,0.13605 1.26032,0.61661 0.97572,0.87627 -0.26529,0.24204 -2.3828,-0.0598 -2.70918,-0.38619 -0.24932,-0.24932 -0.223,-0.43644 0.2134,-1.51685 0.27379,-0.67784 0.44768,-1.28257 0.38641,-1.34384 -0.0613,-0.0613 -0.20803,0.16584 -0.32616,0.50468 -0.24279,0.69647 -0.64952,0.79899 -0.94909,0.23923 -0.26356,-0.49245 -0.25218,-0.59659 0.13298,-1.21749 z"
         id="path124" /><path
         style="fill:#000000;stroke-width:0.736355"
         d="m 135.67793,123.55553 c 0.2757,-0.64293 0.74843,-1.82651 1.05051,-2.63017 0.30208,-0.80366 0.64601,-1.45243 0.76428,-1.44172 0.53781,0.0488 0.60468,0.1025 0.60468,0.48628 0,0.2246 -0.42652,1.43009 -0.94783,2.67888 -0.52131,1.24879 -1.00324,2.43043 -1.07096,2.62587 -0.16068,0.46371 -0.79157,0.34367 -0.85407,-0.16251 -0.0264,-0.21322 0.1777,-0.9137 0.45339,-1.55663 z"
         id="path120" /><path
         style="fill:#000000;stroke-width:0.736355"
         d="m 129.13721,121.37508 c 0.0946,-0.23485 0.3959,-0.5737 0.66955,-0.75301 0.46164,-0.30248 0.5327,-0.30297 0.98461,-0.007 0.38215,0.25039 0.48707,0.48331 0.48707,1.08127 0,0.41917 -0.0849,0.98543 -0.18865,1.25833 -0.15247,0.40103 -0.12156,0.53211 0.16114,0.6834 0.29192,0.15623 0.95559,0.31389 1.63484,0.38837 0.25369,0.0278 0.15803,0.74906 -0.11314,0.85313 -0.14258,0.0547 -0.71947,-0.0563 -1.28195,-0.24674 -0.84635,-0.28652 -1.04041,-0.30007 -1.12538,-0.0786 -0.13786,0.35924 -0.53913,0.33822 -0.8571,-0.0449 -0.21764,-0.26225 -0.2076,-0.40261 0.0625,-0.87323 0.2575,-0.44868 0.27132,-0.59065 0.0691,-0.71036 -0.2234,-0.13225 -0.71959,-0.89954 -0.68692,-1.06223 0.007,-0.0339 0.0897,-0.25367 0.18434,-0.48852 z"
         id="path116" /><path
         style="fill:#000000;stroke-width:0.736355"
         d="m 127.13135,119.81085 c 0.53982,-0.20714 0.88038,0.5148 0.75552,1.60158 -0.0616,0.53578 -0.11269,1.43442 -0.11362,1.99698 -0.001,1.0472 -0.0769,1.15392 -0.58618,0.83234 -0.44282,-0.27961 -0.49292,-4.26313 -0.0557,-4.4309 z"
         id="path113" /></g><g
       id="g305"
       transform="translate(-5.8359002,140.37705)"><path
         style="fill:#000000;stroke-width:0.736355"
         d="m 176.21032,134.89627 c 0.0669,-0.0669 0.27002,0.0617 0.45142,0.2857 0.27848,0.34391 0.39602,0.37188 0.75512,0.17969 0.57301,-0.30666 0.62342,-1.48012 0.0572,-1.33206 -0.20245,0.0529 -0.47249,0.0317 -0.60007,-0.0471 -0.19498,-0.1205 -0.29956,-1.01105 -0.22078,-1.88013 0.0227,-0.24989 1.46111,-0.65632 2.3229,-0.65632 0.59735,0 1.12651,0.43177 0.92626,0.75578 -0.0641,0.10361 -0.40035,0.24551 -0.74738,0.31533 -1.39037,0.27975 -1.3737,0.26154 -0.83073,0.90681 0.96071,1.14173 0.33524,3.06184 -1.00375,3.0814 -0.65328,0.01 -1.50067,-1.21862 -1.11021,-1.60909 z"
         id="path157" /><path
         style="fill:#000000;stroke-width:0.736355"
         d="m 172.43571,132.18854 c 0.29857,-0.37528 1.08036,-0.57258 1.66404,-0.41995 0.50307,0.13156 0.74531,0.8424 0.46534,1.36552 -0.14487,0.2707 -0.10044,0.47487 0.17826,0.81904 0.43111,0.53241 0.48758,1.43999 0.10913,1.75407 -0.14415,0.11965 -0.52433,0.26997 -0.84482,0.33407 -0.66192,0.13239 -1.231,-0.28746 -1.231,-0.9082 0,-0.30267 0.11996,-0.36678 0.61199,-0.32703 0.75634,0.0611 0.92861,-0.29451 0.28477,-0.58786 -0.26302,-0.11985 -0.5057,-0.41903 -0.54082,-0.66676 -0.035,-0.24716 -0.15137,-0.45071 -0.25853,-0.45236 -0.26924,-0.004 -0.68189,-0.28148 -0.68189,-0.45834 0,-0.0803 0.10959,-0.28384 0.24353,-0.4522 z"
         id="path153" /><path
         style="fill:#000000;stroke-width:0.736355"
         d="m 167.84483,132.08706 c 0.35667,-0.13687 0.84046,0.41276 0.84046,0.95483 0,0.19383 0.1315,0.35242 0.29224,0.35242 0.18184,0 0.29224,-0.18401 0.29224,-0.48707 0,-0.34801 0.1053,-0.48707 0.36881,-0.48707 0.4792,0 0.60533,0.36535 0.60533,1.75345 0,1.29483 -0.1274,1.75344 -0.48707,1.75344 -0.27306,0 -0.48707,-0.42019 -0.48707,-0.95632 0,-0.26173 -0.12586,-0.32151 -0.54686,-0.25972 -0.70877,0.10402 -0.93131,-0.20092 -1.07431,-1.47205 -0.0943,-0.83864 -0.0576,-1.05452 0.19623,-1.15191 z"
         id="path148" /><path
         style="fill:#000000;stroke-width:0.736355"
         d="m 165.8536,131.73596 c 0.29825,-0.38646 0.29963,-0.38645 0.60555,0.002 0.24567,0.3122 0.28198,0.68015 0.18266,1.85086 -0.15885,1.87244 -0.254,2.17936 -0.65205,2.10325 -0.4661,-0.0891 -0.57943,-3.38206 -0.13616,-3.95642 z"
         id="path145" /><path
         style="fill:#000000;stroke-width:0.736355"
         d="m 160.31493,133.68918 c 0.84811,-2.59826 1.01368,-2.86436 1.48748,-2.39056 0.30072,0.30071 0.28598,0.42757 -0.21402,1.84251 -0.29533,0.83575 -0.67719,1.936 -0.8486,2.44499 -0.2086,0.61951 -0.42125,0.92542 -0.64325,0.92542 -0.58471,0 -0.548,-0.47445 0.21839,-2.82236 z"
         id="path140" /><path
         style="fill:#000000;stroke-width:0.736355"
         d="m 153.17048,132.11706 c 0.84303,-0.21159 1.96574,-0.0172 2.0358,0.35241 0.0356,0.18784 -0.0733,0.38511 -0.24192,0.43836 -0.16865,0.0532 -0.4468,0.14123 -0.61812,0.19551 -0.25109,0.0795 -0.19444,0.20803 0.29223,0.66265 0.60231,0.56264 0.79267,1.44199 0.48547,2.24255 -0.25327,0.66004 -2.21966,0.15174 -2.21966,-0.57377 0,-0.19593 0.21073,-0.26299 0.7306,-0.23248 0.877,0.0515 1.06943,-0.50244 0.20908,-0.60187 -0.68336,-0.079 -0.86116,-0.3347 -1.00609,-1.44696 -0.11077,-0.8501 -0.0846,-0.93169 0.33261,-1.0364 z"
         id="path136" /><path
         style="fill:#000000;stroke-width:0.736355"
         d="m 149.261,131.64086 c 0.43437,0 0.72087,0.44138 0.72087,1.11052 0,0.35361 0.0877,0.64293 0.19482,0.64293 0.10716,0 0.19483,-0.26302 0.19483,-0.58448 0,-0.45111 0.0873,-0.58448 0.3828,-0.58448 0.6054,0 0.84675,0.68872 0.69899,1.99468 -0.0721,0.63739 -0.21496,1.37942 -0.31744,1.64896 -0.1542,0.40557 -0.23616,0.44872 -0.47533,0.25022 -0.15896,-0.13192 -0.28902,-0.54535 -0.28902,-0.91874 0,-0.53731 -0.0639,-0.65437 -0.30636,-0.56133 -0.16849,0.0647 -0.47534,0.0271 -0.68189,-0.0834 -0.31566,-0.16894 -0.37554,-0.41738 -0.37554,-1.55792 0,-0.9835 0.0697,-1.35694 0.25327,-1.35694 z"
         id="path132" /><path
         style="fill:#000000;stroke-width:0.736355"
         d="m 145.2433,134.36845 c 0.12959,-2.3128 0.24662,-2.75655 0.7096,-2.69064 0.38736,0.0552 0.4214,0.16314 0.38754,1.22943 -0.0658,2.07378 -0.26702,3.23144 -0.58255,3.35253 -0.29922,0.11482 -0.66872,-0.26519 -0.60768,-0.62494 0.0182,-0.10716 0.0601,-0.67703 0.0931,-1.26638 z"
         id="path129" /><path
         style="fill:#000000;stroke-width:0.736355"
         d="m 141.71903,132.04547 c 0.54943,-0.65298 1.24494,-0.78166 1.64158,-0.30373 0.23919,0.28821 0.20977,0.98949 -0.12041,2.87024 -0.11399,0.64926 -0.0836,0.7306 0.27296,0.7306 0.41193,0 1.01354,0.47083 1.01354,0.79322 0,0.0995 -0.60432,0.18092 -1.34295,0.18092 -1.59473,0 -1.78194,-0.22174 -1.21542,-1.43957 0.20493,-0.44052 0.41989,-1.1078 0.47769,-1.48284 l 0.1051,-0.68189 -0.29794,0.67925 -0.29794,0.67925 -0.3703,-0.4573 c -0.48917,-0.60409 -0.46791,-0.85273 0.13409,-1.56815 z"
         id="path125" /><path
         style="fill:#000000;stroke-width:0.736355"
         d="m 136.14452,133.2969 c 0.42121,-1.07155 0.76991,-2.09653 0.77488,-2.27773 0.0128,-0.46732 0.32348,-0.60124 0.80142,-0.34544 0.50214,0.26873 0.48201,0.36457 -0.73495,3.50043 -0.67285,1.73381 -0.99211,2.33632 -1.21558,2.29407 -0.53953,-0.10199 -0.41395,-1.16627 0.37423,-3.17133 z"
         id="path121" /><path
         style="fill:#000000;stroke-width:0.736355"
         d="m 129.54061,131.9818 c 0.10922,-0.18752 0.453,-0.47251 0.76395,-0.63331 1.40461,-0.72635 2.39424,0.99573 1.65152,2.87384 -0.10593,0.26783 -0.0339,0.34094 0.33583,0.34094 0.61071,0 1.29625,0.49292 1.03222,0.74218 -0.10715,0.10117 -0.91447,0.23004 -1.79404,0.28639 -1.26672,0.0811 -1.649,0.0425 -1.83864,-0.18604 -0.19759,-0.23808 -0.13027,-0.37389 0.38541,-0.77747 0.34366,-0.26895 0.75459,-0.73995 0.91321,-1.04666 0.31583,-0.61075 0.38385,-1.35632 0.12375,-1.35632 -0.2941,0 -0.80951,0.70235 -0.80951,1.10312 0,0.53915 -0.18197,0.67092 -0.6101,0.44179 -0.40459,-0.21654 -0.49,-1.2109 -0.1536,-1.78846 z"
         id="path117" /><path
         style="fill:#000000;stroke-width:0.736355"
         d="m 126.56355,132.95939 c 0.68716,-1.25019 1.19129,-1.62361 1.50553,-1.11516 0.0691,0.11185 0.0639,0.94474 -0.0116,1.85086 -0.13997,1.68024 -0.34258,1.99132 -0.87732,1.34699 -0.16552,-0.19944 -0.31461,-0.23526 -0.44335,-0.10653 -0.2393,0.2393 -0.91804,-0.082 -0.90391,-0.42784 0.005,-0.13017 0.33409,-0.82692 0.7306,-1.54832 z"
         id="path112" /></g><g
       id="g304"
       style="fill:#0055d4;fill-opacity:1"><g
         id="g303"
         transform="translate(38.80085,36.277217)"
         style="fill:#0055d4;fill-opacity:1"><path
           style="fill:#0055d4;fill-opacity:1;stroke-width:0.736355"
           d="m 78.610125,151.05868 c 0.431857,-0.43185 0.898014,0.10951 0.710788,0.82546 -0.141159,0.5398 -0.56999,0.52193 -0.717872,-0.0299 -0.150666,-0.5622 -0.149988,-0.63847 0.0074,-0.79554 z"
           id="path111" /><path
           style="fill:#0055d4;fill-opacity:1;stroke-width:0.736355"
           d="m 78.808432,146.28757 c 0.26106,0.0503 0.353701,0.24603 0.353701,0.74735 0,0.99072 -0.563746,0.93127 -0.645945,-0.0681 -0.05213,-0.63398 -0.0078,-0.73701 0.292244,-0.67922 z"
           id="path110" /><path
           style="fill:#0055d4;fill-opacity:1;stroke-width:0.736355"
           d="m 78.225453,156.72491 c 0.108421,-0.41749 0.615099,-0.4493 0.76899,-0.0482 0.172999,0.45083 -0.09774,1.26594 -0.420496,1.26594 -0.158684,0 -0.288526,-0.0805 -0.288526,-0.17889 0,-0.0984 -0.03343,-0.29566 -0.07425,-0.43836 -0.04087,-0.14271 -0.03439,-0.4129 0.01429,-0.60042 z"
           id="path109" /><path
           style="fill:#0055d4;fill-opacity:1;stroke-width:0.736355"
           d="m 78.402494,140.47103 c 0.362037,-0.13892 0.654974,0.23923 0.659252,0.85102 0.0044,0.58749 -0.3906,0.77968 -0.70847,0.34497 -0.354694,-0.48507 -0.331448,-1.04991 0.04919,-1.19599 z"
           id="path108" /><path
           style="fill:#0055d4;fill-opacity:1;stroke-width:0.736355"
           d="m 78.45912,136.7064 c 0.440679,0 0.741591,0.91785 0.408442,1.24585 -0.160224,0.15776 -0.293386,0.1142 -0.49785,-0.16283 -0.398854,-0.5404 -0.354054,-1.08302 0.08941,-1.08302 z"
           id="path107" /><path
           style="fill:#0055d4;fill-opacity:1;stroke-width:0.736355"
           d="m 77.930255,162.07755 c 0.335704,-0.3357 0.744985,0.0753 0.744985,0.74807 0,0.69422 -0.368516,0.93624 -0.711451,0.46724 -0.323577,-0.44252 -0.336537,-0.91229 -0.0335,-1.21531 z"
           id="path106" /><path
           style="fill:#0055d4;fill-opacity:1;stroke-width:0.736355"
           d="m 77.796209,194.3772 c 0.232018,-0.19256 0.308003,-0.1876 0.380401,0.0248 0.25595,0.75111 0.173169,1.53185 -0.162425,1.53185 -0.530927,0 -0.693632,-1.16195 -0.217976,-1.55671 z"
           id="path105" /><path
           style="fill:#0055d4;fill-opacity:1;stroke-width:0.736355"
           d="m 77.635301,189.55331 c 0.166534,-0.41271 0.636358,-0.26944 0.762326,0.23246 0.136461,0.54369 -0.01664,0.8878 -0.394937,0.8878 -0.389016,0 -0.581985,-0.58843 -0.367389,-1.12026 z"
           id="path104" /><path
           style="fill:#0055d4;fill-opacity:1;stroke-width:0.736355"
           d="m 77.636037,183.9845 c 0.395997,-0.396 0.649421,-0.0792 0.649421,0.81178 0,1.05206 -0.13169,1.30154 -0.517849,0.98106 -0.267533,-0.22204 -0.365637,-1.55878 -0.131572,-1.79284 z"
           id="path103" /><path
           style="fill:#0055d4;fill-opacity:1;stroke-width:0.736355"
           d="m 77.700984,179.08134 c 0.342729,-0.21182 0.584482,0.10185 0.584482,0.75834 0,0.73227 -0.120152,0.91412 -0.506119,0.76601 -0.314152,-0.12055 -0.376838,-1.33988 -0.07836,-1.52435 z"
           id="path102" /><path
           style="fill:#0055d4;fill-opacity:1;stroke-width:0.736355"
           d="m 77.642591,173.46893 c 0.05184,-0.19991 0.231488,-0.32552 0.41576,-0.29064 0.407632,0.0771 0.548865,1.22915 0.201946,1.64717 -0.219287,0.26422 -0.274668,0.25869 -0.500361,-0.0499 -0.256163,-0.35032 -0.284218,-0.66267 -0.117345,-1.30656 z"
           id="path101" /><path
           style="fill:#0055d4;fill-opacity:1;stroke-width:0.736355"
           d="m 77.662104,168.12231 c 0.04219,-0.28043 0.201459,-0.43837 0.442064,-0.43837 0.315866,0 0.3761,0.14042 0.3761,0.87673 0,0.72875 -0.06193,0.87672 -0.36694,0.87672 -0.387456,0 -0.569343,-0.5301 -0.451224,-1.31508 z"
           id="path100" /><path
           style="fill:#0055d4;fill-opacity:1;stroke-width:0.736355"
           d="m 77.599808,212.68905 c 0.321633,0 0.593709,0.81454 0.421748,1.26266 -0.06325,0.16477 -0.240067,0.23988 -0.410665,0.17442 -0.405276,-0.15552 -0.415158,-1.43708 -0.01112,-1.43708 z"
           id="path99" /><path
           style="fill:#0055d4;fill-opacity:1;stroke-width:0.736355"
           d="m 77.506107,208.50026 c 0.310919,-0.19215 0.584482,0.0814 0.584482,0.58449 0,0.55715 -0.36588,0.83814 -0.603281,0.46332 -0.229596,-0.36249 -0.219949,-0.90025 0.01878,-1.04781 z"
           id="path98" /><path
           style="fill:#0055d4;fill-opacity:1;stroke-width:0.736355"
           d="m 77.700932,204.11665 c 0.297974,0 0.389657,0.12988 0.389657,0.55201 0,0.64837 -0.130791,0.82412 -0.506119,0.6801 -0.150253,-0.0577 -0.273195,-0.35847 -0.273195,-0.66847 0,-0.43376 0.08979,-0.56364 0.389657,-0.56364 z"
           id="path97" /><path
           style="fill:#0055d4;fill-opacity:1;stroke-width:0.736355"
           d="m 77.441161,199.18103 c 0.3053,-0.3053 0.611999,-0.0854 0.701908,0.5033 0.117633,0.77014 -0.170871,1.2314 -0.565403,0.90398 -0.274638,-0.22794 -0.366705,-1.17708 -0.136505,-1.40728 z"
           id="path96" /><path
           style="fill:#0055d4;fill-opacity:1;stroke-width:0.736355"
           d="m 77.190454,134.53852 c 0.267098,-0.1217 0.644649,-0.15964 0.839003,-0.0843 0.336632,0.13045 0.335454,0.15013 -0.02481,0.41527 -0.43889,0.323 -1.007305,0.36362 -1.179921,0.0843 -0.06598,-0.1067 0.09864,-0.29358 0.365733,-0.41527 z"
           id="path95" /><path
           style="fill:#0055d4;fill-opacity:1;stroke-width:0.736355"
           d="m 73.885592,213.93468 c 0.420224,-0.16125 0.943743,0.0631 0.844187,0.3618 -0.04462,0.13389 -0.285713,0.24343 -0.535742,0.24343 -0.53399,0 -0.755081,-0.43383 -0.308445,-0.60523 z"
           id="path94" /><path
           style="fill:#0055d4;fill-opacity:1;stroke-width:0.736355"
           d="m 72.491444,134.80425 c 0.370467,-0.296 2.42101,-0.49709 2.572324,-0.25226 0.154119,0.24937 -0.493815,0.51555 -1.692512,0.69531 -0.902787,0.13538 -1.332774,-0.0812 -0.879812,-0.44305 z"
           id="path93" /><path
           style="fill:#0055d4;fill-opacity:1;stroke-width:0.736355"
           d="m 69.014912,213.73986 c 0.420223,-0.16126 0.943742,0.0631 0.84418,0.36179 -0.04462,0.13389 -0.285706,0.24343 -0.535735,0.24343 -0.533991,0 -0.755089,-0.43383 -0.308445,-0.60522 z"
           id="path92" /><path
           style="fill:#0055d4;fill-opacity:1;stroke-width:0.736355"
           d="m 67.112067,135.28092 c 0.215436,-0.21544 2.176482,-0.15225 2.316714,0.0746 0.214433,0.34696 -0.0916,0.47481 -1.100645,0.45978 -0.93026,-0.0138 -1.490464,-0.26004 -1.216069,-0.53443 z"
           id="path91" /><path
           style="fill:#0055d4;fill-opacity:1;stroke-width:0.736355"
           d="m 64.338055,213.93507 c 0.540095,-0.20725 1.770647,0.01 1.770647,0.3126 0,0.43413 -1.75709,0.52536 -1.920429,0.0997 -0.0673,-0.17535 -0.0022,-0.3539 0.149782,-0.41231 z"
           id="path90" /><path
           style="fill:#0055d4;fill-opacity:1;stroke-width:0.736355"
           d="m 62.574617,135.14779 c 0.145784,0 0.671814,-0.0557 1.168964,-0.1239 0.753718,-0.10331 0.90392,-0.0716 0.90392,0.19112 0,0.37415 -0.789711,0.59879 -1.899568,0.54034 -0.465369,-0.0245 -0.631697,-0.60756 -0.173316,-0.60756 z"
           id="path89" /><path
           style="fill:#0055d4;fill-opacity:1;stroke-width:0.736355"
           d="m 57.860346,213.89312 c 0.850777,0.0815 0.910452,0.64679 0.06826,0.64679 -0.40772,0 -0.60225,-0.1061 -0.650098,-0.35455 -0.05677,-0.29482 0.04124,-0.34405 0.581816,-0.29224 z"
           id="path88" /><path
           style="fill:#0055d4;fill-opacity:1;stroke-width:0.736355"
           d="m 56.891391,135.18145 c 0.527893,-0.18817 2.300941,-0.065 2.300941,0.15994 0,0.25199 -0.555389,0.39088 -1.563054,0.39088 -1.041877,0 -1.443043,-0.29947 -0.737887,-0.55082 z"
           id="path87" /><path
           style="fill:#0055d4;fill-opacity:1;stroke-width:0.736355"
           d="m 51.935021,135.27837 c 0.301987,-0.18029 2.206717,0.11695 2.13582,0.3333 -0.08431,0.25731 -1.166511,0.39313 -1.821831,0.22865 -0.450465,-0.11306 -0.604407,-0.38857 -0.313989,-0.56195 z"
           id="path86" /><path
           style="fill:#0055d4;fill-opacity:1;stroke-width:0.736355"
           d="m 51.484143,213.94492 c 0.943028,-0.17691 2.058202,0.0495 2.058202,0.4179 0,0.2364 -0.248542,0.28129 -1.299557,0.2347 -1.453653,-0.0644 -1.890533,-0.44025 -0.758645,-0.6526 z"
           id="path85" /><path
           style="fill:#0055d4;fill-opacity:1;stroke-width:0.736355"
           d="m 47.581387,135.45385 c 1.289498,-0.37487 1.479927,-0.37969 1.479927,-0.0375 0,0.42116 -1.204383,0.82581 -2.191805,0.73641 -0.667992,-0.0605 -0.324601,-0.39763 0.711878,-0.69894 z"
           id="path84" /><path
           style="fill:#0055d4;fill-opacity:1;stroke-width:0.736355"
           d="m 45.975883,214.28277 c 0.850777,0.0815 0.910451,0.6468 0.06826,0.6468 -0.407713,0 -0.602243,-0.1061 -0.650091,-0.35456 -0.05677,-0.29482 0.04124,-0.34405 0.581816,-0.29224 z"
           id="path83" /><path
           style="fill:#0055d4;fill-opacity:1;stroke-width:0.736355"
           d="m 41.793061,135.85685 c 0.157919,-0.15792 1.099548,-0.16188 1.504911,-0.007 0.589526,0.22623 0.30276,0.46623 -0.557045,0.46623 -0.824674,0 -1.217276,-0.19048 -0.947866,-0.45989 z"
           id="path82" /><path
           style="fill:#0055d4;fill-opacity:1;stroke-width:0.736355"
           d="m 39.563488,214.44548 c 0.455406,0.001 0.956548,0.0843 1.113649,0.18364 0.228682,0.14463 0.177587,0.22174 -0.256215,0.38667 -0.708248,0.26928 -1.163316,0.26057 -1.451658,-0.0278 -0.407867,-0.40786 -0.25701,-0.54559 0.594224,-0.54253 z"
           id="path81" /><path
           style="fill:#0055d4;fill-opacity:1;stroke-width:0.736355"
           d="m 36.975597,135.86005 c 0.693617,-0.29164 1.431703,-0.21483 1.314497,0.13679 -0.109562,0.32869 -1.491708,0.60385 -1.747636,0.34793 -0.154141,-0.15414 -0.03446,-0.28812 0.433139,-0.48472 z"
           id="path80" /><path
           style="fill:#0055d4;fill-opacity:1;stroke-width:0.736355"
           d="m 33.801796,214.64031 c 0.743837,0.004 1.20221,0.29951 0.91311,0.58861 -0.328923,0.32893 -1.322369,0.15088 -1.398515,-0.25064 -0.04926,-0.25998 0.06598,-0.34024 0.485405,-0.33797 z"
           id="path79" /><path
           style="fill:#0055d4;fill-opacity:1;stroke-width:0.736355"
           d="m 32.733507,136.16217 c 0.32284,-0.32284 1.131277,-0.29823 1.131277,0.0345 0,0.3209 -0.738866,0.55178 -1.10683,0.34586 -0.202631,-0.1134 -0.207991,-0.19677 -0.02445,-0.38031 z"
           id="path78" /><path
           style="fill:#0055d4;fill-opacity:1;stroke-width:0.736355"
           d="m 29.188928,136.21931 c 0.437999,-0.13902 1.168964,0.0389 1.168964,0.28452 0,0.25889 -0.576735,0.40674 -1.087029,0.27866 -0.572818,-0.14376 -0.609474,-0.39575 -0.08193,-0.56318 z"
           id="path77" /><path
           style="fill:#0055d4;fill-opacity:1;stroke-width:0.736355"
           d="m 27.612915,214.82281 c 0.492769,0.26372 0.539903,0.64795 0.06833,0.55713 -0.186291,-0.0359 -0.369467,-0.22492 -0.40705,-0.4201 -0.05854,-0.30393 -0.0099,-0.3236 0.338708,-0.13703 z"
           id="path76" /><path
           style="fill:#0055d4;fill-opacity:1;stroke-width:0.736355"
           d="m 24.869005,136.72442 c 0.490825,-0.26268 1.592346,-0.28058 1.592346,-0.0258 0,0.30731 -1.535109,0.69375 -1.780617,0.44824 -0.149436,-0.14944 -0.09546,-0.27051 0.188271,-0.42237 z"
           id="path75" /><path
           style="fill:#0055d4;fill-opacity:1;stroke-width:0.736355"
           d="m 22.306725,214.76549 c 0.24229,-0.24229 1.384207,-0.13118 1.490184,0.145 0.142764,0.37203 -0.03107,0.50612 -0.65624,0.50612 -0.535448,0 -1.068709,-0.41635 -0.833944,-0.65112 z"
           id="path74" /><path
           style="fill:#0055d4;fill-opacity:1;stroke-width:0.736355"
           d="m 20.908335,136.59166 c 0.58052,-0.1457 1.145592,0.0328 0.97542,0.30816 -0.156196,0.25274 -1.462055,0.25728 -1.462055,0.005 0,-0.10512 0.218984,-0.24608 0.486635,-0.31325 z"
           id="path73" /><path
           style="fill:#0055d4;fill-opacity:1;stroke-width:0.736355"
           d="m 18.976433,213.58659 c 0.457623,-0.17561 0.471135,-0.16358 0.471135,0.41936 0,0.32662 0.152926,0.63312 0.38965,0.78096 0.484661,0.30267 0.504904,0.6297 0.03895,0.6297 -0.192881,0 -0.459545,0.10885 -0.592597,0.2419 -0.34859,0.34859 -0.608619,-0.13825 -0.612345,-1.14649 -0.0022,-0.5583 0.09203,-0.84363 0.305189,-0.92543 z"
           id="path72" /><path
           style="fill:#0055d4;fill-opacity:1;stroke-width:0.736355"
           d="m 18.674903,205.76854 c 0.372397,-0.23015 0.607758,0.2043 0.542421,1.00128 -0.04219,0.51481 -0.155312,0.75628 -0.354238,0.75628 -0.360652,0 -0.52645,-1.5485 -0.188183,-1.75756 z"
           id="path71" /><path
           style="fill:#0055d4;fill-opacity:1;stroke-width:0.736355"
           d="m 18.40849,211.26029 c 0.292193,-0.2922 0.649421,-0.10205 0.649421,0.34569 0,0.62567 -0.317097,0.80334 -0.574703,0.322 -0.240626,-0.44962 -0.245877,-0.49654 -0.07472,-0.66769 z"
           id="path70" /><path
           style="fill:#0055d4;fill-opacity:1;stroke-width:0.736355"
           d="m 18.317565,200.64869 c 0.430797,-0.43079 0.545521,-0.24095 0.545521,0.9027 0,1.24062 -0.117736,1.50796 -0.517849,1.17589 -0.324674,-0.26945 -0.344533,-1.76172 -0.02769,-2.07859 z"
           id="path69" /><path
           style="fill:#0055d4;fill-opacity:1;stroke-width:0.736355"
           d="m 18.20491,195.68285 c 0.07625,-0.0763 0.259904,-0.13863 0.408124,-0.13863 0.204972,0 0.255508,0.26823 0.211069,1.12025 -0.04381,0.83994 -0.131564,1.12027 -0.350674,1.12027 -0.213499,0 -0.307723,-0.2645 -0.349703,-0.98162 -0.03159,-0.5399 0.0052,-1.04402 0.08118,-1.12027 z"
           id="path68" /><path
           style="fill:#0055d4;fill-opacity:1;stroke-width:0.736355"
           d="m 19.106621,139.16767 c 0.669715,-0.0583 3.058782,-0.20165 5.30904,-0.31849 2.250257,-0.11683 5.231111,-0.34733 6.624126,-0.5122 1.393022,-0.16487 4.461546,-0.37633 6.818958,-0.46991 2.357412,-0.0936 5.951974,-0.25741 7.987922,-0.36407 2.035941,-0.10666 5.279821,-0.24685 7.208608,-0.31153 1.928787,-0.0647 6.531588,-0.28457 10.22843,-0.48866 7.942246,-0.43844 12.989346,-0.52811 13.281488,-0.23597 0.121469,0.12147 0.189361,1.05685 0.168109,2.31604 -0.01959,1.16175 -0.06038,5.26849 -0.09066,9.12607 -0.04109,5.23812 -0.141446,7.70431 -0.396483,9.74136 -0.277775,2.21868 -0.325336,3.76355 -0.254919,8.28016 0.04764,3.05392 0.02032,9.05947 -0.0606,13.34567 -0.08093,4.2862 -0.08073,13.66713 4.5e-4,20.84652 0.08118,7.17939 0.136711,13.07132 0.123398,13.09319 -0.01333,0.0219 -0.590781,-0.0509 -1.283279,-0.16171 -2.429464,-0.38876 -38.387234,-0.55292 -43.070505,-0.19663 -4.884295,0.37158 -10.816284,0.49703 -10.979961,0.2322 -0.07879,-0.12748 -0.09534,-0.27971 -0.03674,-0.33827 0.05854,-0.0585 1.930384,-0.18194 4.159589,-0.27417 2.229205,-0.0922 5.543532,-0.26978 7.365165,-0.39456 3.667873,-0.25126 34.569652,-0.30298 40.013849,-0.0669 l 3.191489,0.13836 -0.130033,-1.04762 c -0.0715,-0.57619 -0.122124,-9.24498 -0.112471,-19.26397 0.0299,-31.0032 0.05906,-33.4839 0.430484,-36.62754 0.248992,-2.10725 0.347648,-4.77432 0.388317,-10.49745 l 0.05449,-7.67247 -4.968097,0.11228 c -2.732452,0.0618 -6.435339,0.20566 -8.228629,0.31979 -1.79329,0.11413 -7.667335,0.38971 -13.053427,0.6124 -16.347328,0.67587 -17.147526,0.71607 -18.599132,0.93444 -0.771538,0.11606 -3.240478,0.25967 -5.486531,0.31913 -2.246053,0.0595 -4.375894,0.19191 -4.732974,0.29433 -0.357088,0.10241 -1.022437,0.1862 -1.47855,0.1862 h -0.829305 l 0.0085,2.77629 c 0.0044,1.52695 0.09227,3.69684 0.19467,4.82197 0.102398,1.12513 0.270301,4.45668 0.373126,7.40344 0.102825,2.94677 0.290389,6.01529 0.416806,6.81896 0.147632,0.93852 0.250317,4.98056 0.287061,11.29998 0.05162,8.87162 0.377191,19.42574 0.862522,27.95772 0.09752,1.71447 0.181357,4.98027 0.186283,7.25732 0.0075,3.47597 -0.03601,4.14007 -0.271339,4.14007 -0.410673,0 -0.48003,-0.91968 -0.573039,-7.59826 -0.04551,-3.26823 -0.178272,-7.30116 -0.295006,-8.96206 -0.364857,-5.19107 -0.817317,-22.87606 -0.685377,-26.78875 0.09829,-2.91497 0.05567,-4.21932 -0.200421,-6.13706 -0.178883,-1.33944 -0.407514,-4.84633 -0.508063,-7.79309 -0.10055,-2.94677 -0.268689,-6.19064 -0.373649,-7.20862 -0.104953,-1.01796 -0.193198,-3.35541 -0.196099,-5.19432 l -0.0052,-3.34347 z"
           id="path67" /><path
           style="fill:#0055d4;fill-opacity:1;stroke-width:0.736355"
           d="m 17.823993,182.8155 c 0.07143,-0.0714 0.251583,-0.12988 0.400327,-0.12988 0.435436,0 0.254506,1.82782 -0.189265,1.9121 -0.28293,0.0537 -0.340948,-0.0814 -0.340948,-0.7938 0,-0.47219 0.05847,-0.91698 0.129886,-0.98842 z"
           id="path66" /><path
           style="fill:#0055d4;fill-opacity:1;stroke-width:0.736355"
           d="m 17.799914,189.18215 c 0.419841,-0.16111 0.510162,-0.0176 0.623877,0.99124 0.08063,0.71537 0.03557,0.90741 -0.237342,1.01215 -0.442976,0.16998 -0.680466,-0.22963 -0.684192,-1.1513 -0.0022,-0.48635 0.09919,-0.77593 0.297657,-0.85209 z"
           id="path65" /><path
           style="fill:#0055d4;fill-opacity:1;stroke-width:0.736355"
           d="m 17.888925,176.45114 c 0.340947,0 0.389657,0.12989 0.389657,1.03908 0,1.14623 -0.124304,1.4051 -0.517849,1.07848 -0.153339,-0.12726 -0.261465,-0.60998 -0.261465,-1.16728 0,-0.82039 0.05324,-0.95028 0.389657,-0.95028 z"
           id="path64" /><path
           style="fill:#0055d4;fill-opacity:1;stroke-width:0.736355"
           d="m 17.425095,170.55062 c 0.378906,-0.37891 0.658655,-0.10093 0.658655,0.65447 0,0.65053 -0.06149,0.78195 -0.340947,0.72901 -0.350572,-0.0664 -0.59041,-1.11078 -0.317708,-1.38348 z"
           id="path63" /><path
           style="fill:#0055d4;fill-opacity:1;stroke-width:0.736355"
           d="m 17.417584,165.06588 c 0.54466,-0.54466 0.624245,-0.23252 0.481223,1.88744 -0.01856,0.27534 -0.552561,0.14636 -0.670908,-0.16206 -0.215936,-0.56272 -0.122427,-1.41327 0.189685,-1.72538 z"
           id="path62" /><path
           style="fill:#0055d4;fill-opacity:1;stroke-width:0.736355"
           d="m 17.099766,161.6459 c 0.13909,-0.21447 0.245633,-0.23345 0.406644,-0.0725 0.311368,0.31137 0.156446,1.33719 -0.201945,1.33719 -0.344239,0 -0.480192,-0.83997 -0.204699,-1.26475 z"
           id="path61" /><path
           style="fill:#0055d4;fill-opacity:1;stroke-width:0.736355"
           d="m 16.9255,152.24385 c 0.361042,-0.6049 0.57379,-0.36484 0.57379,0.64748 0,0.83607 -0.05258,0.97846 -0.340947,0.92383 -0.40029,-0.0758 -0.54452,-1.04911 -0.232843,-1.57131 z"
           id="path60" /><path
           style="fill:#0055d4;fill-opacity:1;stroke-width:0.736355"
           d="m 16.844427,137.03653 c 0.199074,-0.19908 1.392941,-0.16484 1.521789,0.0437 0.154597,0.25015 -0.98031,0.47045 -1.351993,0.26245 -0.167822,-0.0939 -0.244227,-0.23166 -0.169796,-0.30609 z"
           id="path59" /><path
           style="fill:#0055d4;fill-opacity:1;stroke-width:0.736355"
           d="m 16.664101,157.45548 c 0.117051,-0.46629 0.427999,-0.87672 0.664222,-0.87672 0.09403,0 0.170967,0.44446 0.170967,0.98768 0,0.91158 -0.03365,0.9829 -0.436372,0.92543 -0.451555,-0.0644 -0.567302,-0.3652 -0.398817,-1.03639 z"
           id="path58" /><path
           style="fill:#0055d4;fill-opacity:1;stroke-width:0.736355"
           d="m 16.914808,147.22705 c 0.337707,0 0.389657,0.12988 0.389657,0.97413 0,0.70277 -0.0756,0.97414 -0.271398,0.97414 -0.339946,0 -0.507909,-0.42406 -0.507909,-1.28231 0,-0.53608 0.07599,-0.66596 0.38965,-0.66596 z"
           id="path57" /><path
           style="fill:#0055d4;fill-opacity:1;stroke-width:0.736355"
           d="m 16.664145,142.97816 c 0.05626,-0.29453 0.198404,-0.42689 0.411829,-0.38353 0.258807,0.0526 0.312215,0.24547 0.259396,0.93682 -0.07783,1.01871 -0.07493,1.01366 -0.490089,0.85435 -0.311169,-0.11941 -0.35789,-0.48248 -0.181136,-1.40764 z"
           id="path56" /><path
           style="fill:#0055d4;fill-opacity:1;stroke-width:0.736355"
           d="m 16.269938,138.39973 c 0.32605,-0.20151 0.584835,0.15184 0.71313,0.97376 0.12641,0.80982 -0.107662,1.26822 -0.464912,0.91047 -0.252195,-0.25253 -0.450657,-1.75912 -0.248218,-1.88423 z"
           id="path55" /></g></g><path
       style="fill:#000000;stroke-width:0.564658"
       d="m 30.867137,228.95598 c 0.575804,-0.21618 4.514679,-0.89008 6.675049,-1.14204 2.436214,-0.28413 7.346293,-0.46824 17.962778,-0.67354 12.839398,-0.2483 21.86108,-0.45594 26.070148,-0.60002 2.136406,-0.0732 6.708021,-0.2035 10.159143,-0.2897 3.451117,-0.0862 6.953719,-0.19997 7.783557,-0.25284 l 1.508788,-0.0961 0.20773,-2.5566 c 0.15896,-1.95624 0.2098,-6.2402 0.21656,-18.24349 0.008,-13.94206 0.15608,-22.27483 0.44253,-24.87496 0.0407,-0.36975 0.17803,-2.63334 0.30509,-5.03018 0.19406,-3.66069 0.20604,-5.53696 0.0749,-11.72783 -0.15621,-7.37385 -0.0459,-14.90612 0.28746,-19.64554 0.16591,-2.35806 0.096,-3.32013 -0.26154,-3.59861 -0.17342,-0.13507 -0.19512,-0.23268 -0.0778,-0.34999 0.24325,-0.24325 0.76851,0.0915 0.88751,0.5656 0.10237,0.40788 0.0255,2.8174 -0.24933,7.81515 -0.096,1.74486 -0.14474,7.79669 -0.12166,15.08931 0.0271,8.55978 -0.015,12.79722 -0.14183,14.26761 -0.59758,6.9294 -0.84222,17.75125 -0.66366,29.35692 0.14601,9.49026 0.0946,12.99873 -0.25195,17.1809 -0.0715,0.86278 -0.0865,1.61215 -0.0333,1.66526 0.124,0.12386 17.41048,-0.11038 23.18509,-0.31416 3.59379,-0.12682 11.55838,-0.17422 34.33143,-0.20432 0.75552,-7.6e-4 1.16705,0.21855 0.97925,0.52242 -0.039,0.0631 -6.6735,0.0914 -14.7433,0.0628 -8.0698,-0.0286 -16.05057,0.005 -17.73504,0.0759 -1.68448,0.0703 -8.20348,0.1976 -14.48667,0.28288 -6.28318,0.0853 -11.47702,0.20808 -11.54186,0.27292 -0.0648,0.0649 -0.19687,1.15623 -0.2934,2.42532 -0.13823,1.81723 -0.13079,4.08486 0.035,10.67378 0.30434,12.09382 0.28358,14.55363 -0.14754,17.4797 -0.38375,2.6046 -0.4918,6.31352 -0.24917,8.5531 0.0979,0.90322 0.0879,1.23254 -0.0373,1.23254 -0.32361,0 -0.39345,-0.0758 -0.41308,-0.4482 -0.0108,-0.20542 -0.10376,-1.01218 -0.20651,-1.79279 -0.2241,-1.70256 -0.11496,-4.34532 0.29371,-7.11248 0.57916,-3.92142 0.65365,-5.40606 0.47518,-9.47082 -0.41026,-9.34449 -0.50451,-16.24855 -0.26888,-19.69739 l 0.12599,-1.84421 -4.010369,0.0951 c -9.164914,0.21741 -19.877926,0.53914 -20.312143,0.61002 -0.680621,0.1111 -11.299545,0.30238 -13.614332,0.24523 -4.526725,-0.11175 -22.448256,0.45006 -25.439185,0.79749 -1.719299,0.19971 -2.43886,0.31296 -5.674254,0.89302 -1.112408,0.19943 -1.759917,0.0758 -1.032772,-0.1972 z"
       id="path54" /></g></svg>
